<svg width="14" height="12" viewBox="0 0 14 12" fill="none" xmlns="http://www.w3.org/2000/svg">
<path d="M7.00002 0.166504C5.55545 0.166504 4.37502 1.34694 4.37502 2.7915C4.37502 4.23607 5.55545 5.4165 7.00002 5.4165C8.44459 5.4165 9.62502 4.23607 9.62502 2.7915C9.62502 1.34694 8.44459 0.166504 7.00002 0.166504ZM1.00946 0.167074C0.993031 0.168345 0.976716 0.172533 0.961038 0.179606C0.898038 0.208189 0.863563 0.276294 0.878438 0.343669L1.46177 2.96867C1.47344 3.02059 1.51241 3.06231 1.56374 3.07747C1.6142 3.09089 1.66967 3.07807 1.70729 3.04045L2.35443 2.39331L3.23627 3.60612C3.26427 3.6452 3.30869 3.6665 3.35419 3.6665C3.37431 3.6665 3.39475 3.66186 3.414 3.6534C3.477 3.62482 3.51148 3.55671 3.4966 3.48934L2.91327 0.864339C2.9016 0.812423 2.86291 0.770409 2.81187 0.755534C2.76083 0.740951 2.70508 0.755228 2.66774 0.792562L2.02118 1.43913L1.13877 0.226318C1.10815 0.184318 1.05875 0.163259 1.00946 0.167074ZM12.9906 0.167074C12.9412 0.163259 12.8917 0.184888 12.8613 0.226888L11.9794 1.4397L11.3323 0.792562C11.295 0.754937 11.2392 0.740951 11.1882 0.755534C11.1368 0.770701 11.0984 0.812423 11.0868 0.864339L10.5034 3.48934C10.4889 3.55671 10.523 3.62482 10.586 3.6534C10.6053 3.66186 10.6257 3.6665 10.6459 3.6665C10.6914 3.6665 10.7358 3.64548 10.7638 3.60669L11.6456 2.39388L12.2927 3.04045C12.3304 3.07807 12.3858 3.09089 12.4363 3.07747C12.4876 3.06231 12.5266 3.02115 12.5383 2.96924L13.1216 0.344238C13.1365 0.276863 13.102 0.207898 13.039 0.179606C13.0233 0.172533 13.007 0.168345 12.9906 0.167074ZM7.00002 1.0415C7.9717 1.0415 8.75002 1.81982 8.75002 2.7915C8.75002 3.76318 7.9717 4.5415 7.00002 4.5415C6.02834 4.5415 5.25002 3.76318 5.25002 2.7915C5.25002 1.81982 6.02834 1.0415 7.00002 1.0415ZM4.22919 5.99984C3.5095 5.99984 2.91669 6.59265 2.91669 7.31234V10.5207C2.91669 10.6754 2.95593 10.8198 3.00612 10.9582H2.47919C2.42121 10.9574 2.36365 10.9681 2.30985 10.9897C2.25606 11.0113 2.20709 11.0434 2.1658 11.0841C2.12452 11.1248 2.09173 11.1733 2.06936 11.2268C2.04698 11.2803 2.03546 11.3377 2.03546 11.3957C2.03546 11.4536 2.04698 11.5111 2.06936 11.5645C2.09173 11.618 2.12452 11.6665 2.1658 11.7072C2.20709 11.7479 2.25606 11.78 2.30985 11.8017C2.36365 11.8233 2.42121 11.834 2.47919 11.8332H4.22919H9.77085H11.5209C11.5788 11.834 11.6364 11.8233 11.6902 11.8017C11.744 11.78 11.7929 11.7479 11.8342 11.7072C11.8755 11.6665 11.9083 11.618 11.9307 11.5645C11.9531 11.5111 11.9646 11.4536 11.9646 11.3957C11.9646 11.3377 11.9531 11.2803 11.9307 11.2268C11.9083 11.1733 11.8755 11.1248 11.8342 11.0841C11.7929 11.0434 11.744 11.0113 11.6902 10.9897C11.6364 10.9681 11.5788 10.9574 11.5209 10.9582H10.9939C11.0441 10.8198 11.0834 10.6754 11.0834 10.5207V7.31234C11.0834 6.59265 10.4905 5.99984 9.77085 5.99984H4.22919ZM4.22919 6.87484H9.77085C10.0177 6.87484 10.2084 7.06544 10.2084 7.31234V10.5207C10.2084 10.7676 10.0177 10.9582 9.77085 10.9582H4.22919C3.98229 10.9582 3.79169 10.7676 3.79169 10.5207V7.31234C3.79169 7.06544 3.98229 6.87484 4.22919 6.87484ZM7.00002 8.33317C6.84531 8.33317 6.69694 8.39463 6.58754 8.50402C6.47814 8.61342 6.41669 8.76179 6.41669 8.9165C6.41669 9.07121 6.47814 9.21959 6.58754 9.32898C6.69694 9.43838 6.84531 9.49984 7.00002 9.49984C7.15473 9.49984 7.3031 9.43838 7.4125 9.32898C7.52189 9.21959 7.58335 9.07121 7.58335 8.9165C7.58335 8.76179 7.52189 8.61342 7.4125 8.50402C7.3031 8.39463 7.15473 8.33317 7.00002 8.33317Z" fill="#31415D"/>
</svg>
