<svg width="14" height="12" viewBox="0 0 14 12" fill="none" xmlns="http://www.w3.org/2000/svg">
<path d="M8.16655 0.166504C6.72198 0.166504 5.54155 1.34694 5.54155 2.7915C5.54155 4.23607 6.72198 5.4165 8.16655 5.4165C9.61112 5.4165 10.7916 4.23607 10.7916 2.7915C10.7916 1.34694 9.61112 0.166504 8.16655 0.166504ZM8.16655 1.0415C9.13823 1.0415 9.91655 1.81982 9.91655 2.7915C9.91655 3.76318 9.13823 4.5415 8.16655 4.5415C7.19487 4.5415 6.41655 3.76318 6.41655 2.7915C6.41655 1.81982 7.19487 1.0415 8.16655 1.0415ZM7.16679 6.42537C7.14061 6.42763 7.11429 6.4324 7.08818 6.43962C5.73601 6.80945 4.69822 7.84222 4.2826 9.12614C4.57222 9.26264 4.82812 9.45911 5.0317 9.70207C5.25425 8.67248 5.97555 7.80336 6.96343 7.40348L7.76608 9.23779C7.83579 9.39704 7.99272 9.49984 8.16655 9.49984C8.34038 9.49984 8.49731 9.39675 8.56702 9.23779L9.36968 7.40405C10.5667 7.88851 11.3749 9.06117 11.3749 10.3748V10.9582H4.95081C4.87608 10.145 4.18555 9.49984 3.35405 9.49984C3.31017 9.49984 3.2672 9.50315 3.22417 9.50667L2.59013 8.01587C2.55671 7.93422 2.49939 7.86458 2.42569 7.81608C2.35198 7.76759 2.26534 7.74251 2.17713 7.74414C2.10493 7.74539 2.03416 7.76449 1.97113 7.79973C1.90811 7.83498 1.85479 7.88528 1.81592 7.94614C1.77706 8.007 1.75386 8.07653 1.7484 8.14854C1.74294 8.22054 1.75539 8.29278 1.78463 8.3588L2.40499 9.816C2.04642 10.0817 1.80015 10.4918 1.75729 10.9582H1.31238C1.25441 10.9574 1.19685 10.9681 1.14305 10.9897C1.08925 11.0113 1.04029 11.0434 0.999001 11.0841C0.957715 11.1248 0.92493 11.1733 0.902553 11.2268C0.880176 11.2803 0.868652 11.3377 0.868652 11.3957C0.868652 11.4536 0.880176 11.5111 0.902553 11.5645C0.92493 11.618 0.957715 11.6665 0.999001 11.7072C1.04029 11.7479 1.08925 11.78 1.14305 11.8017C1.19685 11.8233 1.25441 11.834 1.31238 11.8332H12.6874C12.7454 11.834 12.8029 11.8233 12.8567 11.8017C12.9105 11.78 12.9595 11.7479 13.0008 11.7072C13.0421 11.6665 13.0748 11.618 13.0972 11.5645C13.1196 11.5111 13.1311 11.4536 13.1311 11.3957C13.1311 11.3377 13.1196 11.2803 13.0972 11.2268C13.0748 11.1733 13.0421 11.1248 13.0008 11.0841C12.9595 11.0434 12.9105 11.0113 12.8567 10.9897C12.8029 10.9681 12.7454 10.9574 12.6874 10.9582H12.2499V10.3748C12.2499 8.54171 11.0139 6.92349 9.24435 6.43962C9.03523 6.38216 8.81515 6.48736 8.72824 6.68628L8.16655 7.97087L7.60429 6.68628C7.52824 6.51223 7.35009 6.40962 7.16679 6.42537ZM3.35405 10.3748C3.71186 10.3748 4.00236 10.6221 4.06841 10.9582H2.63969C2.70574 10.6221 2.99624 10.3748 3.35405 10.3748Z" fill="#31415D"/>
</svg>
