<svg width="12" height="12" viewBox="0 0 12 12" fill="none" xmlns="http://www.w3.org/2000/svg">
<path d="M2.20825 0.458496C1.64446 0.458496 1.18742 0.915538 1.18742 1.47933C1.18742 2.04312 1.64446 2.50016 2.20825 2.50016C2.77204 2.50016 3.22909 2.04312 3.22909 1.47933C3.22909 0.915538 2.77204 0.458496 2.20825 0.458496ZM9.79158 0.458496C9.22779 0.458496 8.77075 0.915538 8.77075 1.47933C8.77075 2.04312 9.22779 2.50016 9.79158 2.50016C10.3554 2.50016 10.8124 2.04312 10.8124 1.47933C10.8124 0.915538 10.3554 0.458496 9.79158 0.458496ZM5.99992 2.2085C3.91102 2.2085 2.20825 3.91127 2.20825 6.00016C2.20825 8.08906 3.91102 9.79183 5.99992 9.79183C6.88716 9.79183 7.70274 9.48216 8.34977 8.96867L10.7948 11.4137C10.8351 11.4556 10.8834 11.4892 10.9368 11.5123C10.9902 11.5353 11.0477 11.5475 11.1059 11.5481C11.1641 11.5487 11.2219 11.5377 11.2758 11.5157C11.3296 11.4937 11.3786 11.4612 11.4198 11.42C11.4609 11.3788 11.4935 11.3299 11.5155 11.276C11.5375 11.2221 11.5485 11.1644 11.5479 11.1062C11.5473 11.048 11.5351 10.9905 11.512 10.937C11.4889 10.8836 11.4554 10.8353 11.4134 10.795L8.96842 8.35002C9.48192 7.70298 9.79158 6.88741 9.79158 6.00016C9.79158 3.91127 8.08882 2.2085 5.99992 2.2085ZM0.895752 3.0835C0.653669 3.0835 0.458252 3.27891 0.458252 3.521V3.99325C0.458252 4.45991 0.992025 4.92685 1.72119 5.0756C1.88452 4.32019 2.24327 3.64058 2.74202 3.0835H0.895752ZM5.99992 3.0835C7.61593 3.0835 8.91658 4.38415 8.91658 6.00016C8.91658 6.78368 8.60915 7.49153 8.10994 8.01449C8.07352 8.0411 8.04143 8.07319 8.01481 8.10962C7.4918 8.60916 6.78373 8.91683 5.99992 8.91683C4.3839 8.91683 3.08325 7.61618 3.08325 6.00016C3.08325 4.38415 4.3839 3.0835 5.99992 3.0835ZM9.25781 3.0835C9.75656 3.64058 10.1153 4.32019 10.2786 5.0756C11.0078 4.92685 11.5416 4.45991 11.5416 3.99325V3.521C11.5416 3.27891 11.3462 3.0835 11.1041 3.0835H9.25781ZM5.99992 3.66683C5.43613 3.66683 4.97908 4.12387 4.97908 4.68766C4.97908 5.25145 5.43613 5.7085 5.99992 5.7085C6.56371 5.7085 7.02075 5.25145 7.02075 4.68766C7.02075 4.12387 6.56371 3.66683 5.99992 3.66683ZM4.68742 6.29183C4.44592 6.29183 4.24992 6.48783 4.24992 6.72933V7.20329C4.24992 7.76708 5.03334 8.3335 5.99992 8.3335C6.9665 8.3335 7.74992 7.76708 7.74992 7.20329V6.72933C7.74992 6.48783 7.55392 6.29183 7.31242 6.29183H4.68742ZM1.73885 6.99194C1.40927 7.16111 1.18742 7.50225 1.18742 7.896C1.18742 8.45891 1.64534 8.91683 2.20825 8.91683C2.36867 8.91683 2.52013 8.8791 2.6543 8.81201C2.21388 8.29284 1.89635 7.67444 1.73885 6.99194ZM0.895752 9.50016C0.653669 9.50016 0.458252 9.69558 0.458252 9.93766V10.4099C0.458252 10.9757 1.24284 11.5418 2.20825 11.5418C3.17367 11.5418 3.95825 10.9757 3.95825 10.4099V9.93766C3.95825 9.91141 3.95547 9.88808 3.95256 9.86475H3.94971C3.74846 9.75683 3.5586 9.63433 3.37777 9.50016H0.895752Z" fill="#31415D"/>
</svg>
