<svg width="14" height="8" viewBox="0 0 14 8" fill="none" xmlns="http://www.w3.org/2000/svg">
<path d="M4.1995 0.208496C4.06413 0.208602 3.93147 0.246387 3.81636 0.317621C3.70125 0.388855 3.60824 0.490725 3.54775 0.611824C3.48726 0.732923 3.46168 0.868471 3.47386 1.00329C3.48604 1.13811 3.53551 1.26687 3.61673 1.37516H2.47798C2.36195 1.37517 2.25068 1.42127 2.16863 1.50332C2.08659 1.58536 2.04049 1.69663 2.04048 1.81266V2.06331C1.75056 2.15645 1.34285 2.32914 1.00199 2.67C0.662931 3.00906 0.532118 3.45735 0.432895 3.83439C0.333673 4.21144 0.293898 4.52938 0.293898 4.52938C0.286777 4.58643 0.290964 4.64432 0.30622 4.69975C0.321476 4.75518 0.347502 4.80706 0.382812 4.85243C0.418121 4.8978 0.462022 4.93577 0.512008 4.96417C0.561994 4.99258 0.617085 5.01085 0.674135 5.01796C0.731185 5.02507 0.789076 5.02087 0.844503 5.0056C0.899929 4.99033 0.951805 4.96429 0.997168 4.92897C1.04253 4.89365 1.08049 4.84975 1.10888 4.79975C1.13727 4.74976 1.15554 4.69467 1.16263 4.63761C1.16263 4.63761 1.19577 4.37222 1.27884 4.05656C1.36191 3.7409 1.52277 3.3871 1.62121 3.28866C1.73139 3.17847 1.88665 3.09354 2.04048 3.02148V3.85433C2.04059 3.85927 2.04078 3.86421 2.04105 3.86914C2.04119 3.87275 2.04138 3.87636 2.04162 3.87996C2.04556 3.96375 2.07351 4.04464 2.12213 4.113C2.17075 4.18135 2.238 4.23429 2.31585 4.2655C2.39371 4.29672 2.4789 4.30489 2.56128 4.28906C2.64365 4.27322 2.71973 4.23405 2.78047 4.17619C2.82698 4.14292 3.10853 3.94149 3.37804 3.74894V3.74951C3.42331 3.71723 3.47694 3.72137 3.5159 3.76034C3.54025 3.78468 3.563 3.80717 3.58312 3.82756C3.58369 3.82832 3.58426 3.82908 3.58483 3.82983C3.62484 3.86984 3.62886 3.92435 3.59509 3.9694C3.13449 4.58344 2.35258 5.62627 2.23189 5.78719L0.652215 6.06576C0.595615 6.07574 0.541536 6.09677 0.493065 6.12765C0.444594 6.15853 0.402681 6.19866 0.369719 6.24574C0.336757 6.29282 0.313393 6.34593 0.300959 6.40204C0.288526 6.45816 0.287267 6.51617 0.297255 6.57277C0.307243 6.62936 0.328282 6.68344 0.35917 6.73191C0.390059 6.78037 0.430192 6.82228 0.477277 6.85524C0.524363 6.88819 0.577479 6.91155 0.633593 6.92397C0.689706 6.9364 0.747718 6.93765 0.804314 6.92765L2.51558 6.62516H3.6173C3.53611 6.73342 3.48665 6.86213 3.47444 6.9969C3.46224 7.13166 3.48777 7.26717 3.54819 7.38825C3.60862 7.50933 3.70154 7.6112 3.81656 7.68248C3.93159 7.75376 4.06418 7.79162 4.1995 7.79183C4.33486 7.79172 4.46753 7.75394 4.58264 7.68271C4.69774 7.61147 4.79075 7.5096 4.85124 7.3885C4.91173 7.2674 4.93732 7.13186 4.92513 6.99704C4.91295 6.86222 4.86348 6.73346 4.78226 6.62516H5.97798C6.09401 6.62515 6.20528 6.57905 6.28733 6.49701C6.36937 6.41496 6.41547 6.30369 6.41548 6.18766V1.81266C6.41547 1.69663 6.36937 1.58536 6.28733 1.50332C6.20528 1.42127 6.09401 1.37517 5.97798 1.37516H4.78226C4.86348 1.26687 4.91295 1.13811 4.92513 1.00329C4.93732 0.868471 4.91173 0.732923 4.85124 0.611824C4.79075 0.490725 4.69774 0.388855 4.58264 0.317621C4.46753 0.246387 4.33486 0.208602 4.1995 0.208496ZM9.76965 0.208496C9.63433 0.208707 9.50174 0.246569 9.38671 0.317845C9.27169 0.389121 9.17876 0.490999 9.11834 0.612078C9.05792 0.733158 9.03238 0.868663 9.04459 1.00343C9.0568 1.1382 9.10626 1.26691 9.18745 1.37516H8.01965C7.90362 1.37517 7.79234 1.42127 7.7103 1.50332C7.62825 1.58536 7.58216 1.69663 7.58215 1.81266V6.18766C7.58216 6.30369 7.62825 6.41496 7.7103 6.49701C7.79234 6.57905 7.90362 6.62515 8.01965 6.62516H9.18745C9.10626 6.73342 9.0568 6.86213 9.04459 6.9969C9.03238 7.13166 9.05792 7.26717 9.11834 7.38825C9.17876 7.50933 9.27169 7.6112 9.38671 7.68248C9.50174 7.75376 9.63433 7.79162 9.76965 7.79183C9.90501 7.79172 10.0377 7.75394 10.1528 7.68271C10.2679 7.61147 10.3609 7.5096 10.4214 7.3885C10.4819 7.2674 10.5075 7.13186 10.4953 6.99704C10.4831 6.86222 10.4336 6.73346 10.3524 6.62516H11.4826L13.1939 6.92765C13.2505 6.93766 13.3085 6.93641 13.3646 6.92399C13.4207 6.91157 13.4739 6.88821 13.5209 6.85526C13.568 6.8223 13.6082 6.7804 13.6391 6.73193C13.67 6.68346 13.691 6.62938 13.701 6.57277C13.711 6.51617 13.7097 6.45816 13.6973 6.40204C13.6848 6.34593 13.6615 6.29281 13.6285 6.24573C13.5955 6.19864 13.5536 6.15852 13.5051 6.12764C13.4567 6.09676 13.4026 6.07573 13.346 6.06576L11.7663 5.78719C11.6456 5.62624 10.8639 4.58332 10.4037 3.9694C10.4035 3.9694 10.4033 3.9694 10.4031 3.9694C10.3692 3.9243 10.3734 3.86984 10.4134 3.82983L10.4823 3.76034C10.5211 3.72153 10.5755 3.71707 10.6202 3.74894C10.8884 3.94062 11.1661 4.13959 11.2149 4.17448C11.2719 4.22962 11.3428 4.26823 11.42 4.28619C11.4973 4.30415 11.5779 4.30078 11.6534 4.27644C11.7289 4.25211 11.7963 4.20771 11.8485 4.14801C11.9007 4.08831 11.9357 4.01555 11.9497 3.9375C11.9524 3.92317 11.9543 3.90872 11.9554 3.89421C11.9563 3.88454 11.9569 3.87485 11.9571 3.86515C11.9574 3.85737 11.9574 3.84958 11.9571 3.8418V3.02148C12.1111 3.09357 12.2667 3.17836 12.377 3.28866C12.4754 3.3871 12.6363 3.7409 12.7194 4.05656C12.8024 4.37222 12.8356 4.63761 12.8356 4.63761C12.8427 4.69467 12.8609 4.74976 12.8893 4.79975C12.9177 4.84975 12.9557 4.89366 13.001 4.92898C13.0464 4.9643 13.0983 4.99033 13.1537 5.0056C13.2091 5.02087 13.267 5.02507 13.3241 5.01796C13.3811 5.01085 13.4362 4.99258 13.4862 4.96418C13.5362 4.93577 13.5801 4.8978 13.6154 4.85243C13.6507 4.80706 13.6767 4.75518 13.692 4.69975C13.7072 4.64432 13.7114 4.58643 13.7043 4.52938C13.7043 4.52938 13.6645 4.21144 13.5653 3.83439C13.4661 3.45735 13.3353 3.00906 12.9962 2.67C12.6551 2.32885 12.2471 2.15581 11.9571 2.06274V1.81266C11.9571 1.69663 11.911 1.58536 11.829 1.50332C11.7469 1.42127 11.6357 1.37517 11.5196 1.37516H10.3524C10.4336 1.26687 10.4831 1.13811 10.4953 1.00329C10.5075 0.868471 10.4819 0.732923 10.4214 0.611824C10.3609 0.490725 10.2679 0.388855 10.1528 0.317621C10.0377 0.246387 9.90501 0.208602 9.76965 0.208496ZM2.91548 2.25016H5.54048V3.28125C5.37064 3.31004 5.21648 3.39802 5.10532 3.52961C4.99415 3.66121 4.93317 3.8279 4.93317 4.00016C4.93317 4.17242 4.99415 4.33912 5.10532 4.47071C5.21648 4.6023 5.37064 4.69029 5.54048 4.71908V5.75016H3.35355C3.68098 5.31362 3.97709 4.91872 4.2952 4.49463C4.58634 4.10627 4.54673 3.55443 4.20348 3.21118C4.17889 3.18631 4.15568 3.16281 4.13456 3.14168C3.96591 2.97304 3.74657 2.87779 3.52103 2.85913C3.31241 2.84187 3.09997 2.89318 2.91548 3.01009V2.47746C2.92568 2.42363 2.92568 2.36836 2.91548 2.31453V2.25016ZM8.45715 2.25016H11.0821V2.33333C11.0763 2.37433 11.0763 2.41595 11.0821 2.45695V3.01009C10.8978 2.89347 10.6854 2.84191 10.4772 2.85913C10.2516 2.87779 10.0324 2.97296 9.86364 3.14168L9.79471 3.21118C9.45147 3.55443 9.41194 4.10632 9.70356 4.49463C10.0216 4.91886 10.3179 5.31366 10.6452 5.75016H8.45715V4.71452C8.62143 4.68056 8.76898 4.59099 8.87492 4.46091C8.98086 4.33084 9.03871 4.16821 9.03871 4.00045C9.03871 3.83269 8.98086 3.67006 8.87492 3.53998C8.76898 3.40991 8.62143 3.32034 8.45715 3.28638V2.25016Z" fill="#31415D"/>
</svg>
