<svg width="12" height="13" viewBox="0 0 12 13" fill="none" xmlns="http://www.w3.org/2000/svg">
<path d="M1.64551 0.166504C0.921883 0.166504 0.333008 0.755379 0.333008 1.479V10.5207C0.333008 11.2443 0.921883 11.8332 1.64551 11.8332H4.42887C4.43937 11.7605 4.45674 11.6887 4.48299 11.619L4.48356 11.6195C4.49902 11.5542 4.51869 11.4859 4.53882 11.415L4.66984 10.9582H1.64551C1.4043 10.9582 1.20801 10.7619 1.20801 10.5207V1.479C1.20801 1.2378 1.4043 1.0415 1.64551 1.0415H4.99967V3.52067C4.99967 4.2443 5.58855 4.83317 6.31217 4.83317H8.79134V5.95085C9.0483 5.71051 9.34755 5.54758 9.66634 5.47233V4.39567C9.66634 4.27477 9.61732 4.1655 9.53817 4.08634L5.7465 0.294678C5.66735 0.215527 5.55807 0.166504 5.43717 0.166504H1.64551ZM5.87467 1.66016L8.17269 3.95817H6.31217C6.07097 3.95817 5.87467 3.76188 5.87467 3.52067V1.66016ZM10.1033 5.99984C10.0234 6.00013 9.94254 6.00718 9.86117 6.02205C9.60333 6.06843 9.35705 6.20288 9.14909 6.41113L5.70776 9.85246C5.60364 9.95658 5.527 10.0864 5.48617 10.2273L5.02816 11.8258C5.00716 11.8812 4.99763 11.9397 4.99967 11.9984C5.00347 12.1042 5.04506 12.209 5.12614 12.29C5.20693 12.3708 5.31108 12.4124 5.41667 12.4165C5.47529 12.4185 5.53471 12.4093 5.59041 12.388L7.18888 11.93C7.32976 11.8892 7.45873 11.8128 7.56315 11.7084L11.005 8.26709C11.2133 8.05913 11.3477 7.81285 11.3941 7.55501C11.4087 7.47364 11.4155 7.39282 11.4158 7.31291C11.4166 6.96466 11.2824 6.63547 11.0313 6.38493C10.7807 6.1341 10.4515 5.99925 10.1033 5.99984Z" fill="#31415D"/>
</svg>
