<svg width="12" height="13" viewBox="0 0 12 13" fill="none" xmlns="http://www.w3.org/2000/svg">
<path d="M1.64575 0.166504C0.922127 0.166504 0.333252 0.755379 0.333252 1.479V10.5207C0.333252 11.2443 0.922127 11.8332 1.64575 11.8332H4.42912C4.43962 11.7605 4.45699 11.6887 4.48324 11.619L4.48381 11.6195C4.49926 11.5542 4.51894 11.4859 4.53906 11.415L4.67008 10.9582H1.64575C1.40454 10.9582 1.20825 10.7619 1.20825 10.5207V1.479C1.20825 1.2378 1.40454 1.0415 1.64575 1.0415H4.99992V3.52067C4.99992 4.2443 5.58879 4.83317 6.31242 4.83317H8.79159V5.95085C9.04854 5.71051 9.34779 5.54758 9.66659 5.47233V4.39567C9.66659 4.27477 9.61756 4.1655 9.53841 4.08634L5.74675 0.294678C5.66759 0.215527 5.55831 0.166504 5.43742 0.166504H1.64575ZM5.87492 1.66016L8.17293 3.95817H6.31242C6.07121 3.95817 5.87492 3.76188 5.87492 3.52067V1.66016ZM10.1035 5.99984C10.0236 6.00013 9.94279 6.00718 9.86141 6.02205C9.60358 6.06843 9.35729 6.20288 9.14933 6.41113L5.70801 9.85246C5.60388 9.95658 5.52724 10.0864 5.48641 10.2273L5.0284 11.8258C5.0074 11.8812 4.99788 11.9397 4.99992 11.9984C5.00371 12.1042 5.0453 12.209 5.12638 12.29C5.20718 12.3708 5.31133 12.4124 5.41691 12.4165C5.47554 12.4185 5.53495 12.4093 5.59066 12.388L7.18913 11.93C7.33 11.8892 7.45898 11.8128 7.5634 11.7084L11.0053 8.26709C11.2135 8.05913 11.348 7.81285 11.3944 7.55501C11.409 7.47364 11.4157 7.39282 11.416 7.31291C11.4169 6.96466 11.2826 6.63547 11.0315 6.38493C10.781 6.1341 10.4518 5.99925 10.1035 5.99984Z" fill="#31415D"/>
</svg>
