<svg width="10" height="12" viewBox="0 0 10 12" fill="none" xmlns="http://www.w3.org/2000/svg">
<path d="M5.00033 0.166504C3.55576 0.166504 2.37533 1.34694 2.37533 2.7915C2.37533 4.23607 3.55576 5.4165 5.00033 5.4165C6.44489 5.4165 7.62533 4.23607 7.62533 2.7915C7.62533 1.34694 6.44489 0.166504 5.00033 0.166504ZM5.00033 1.0415C5.97201 1.0415 6.75033 1.81982 6.75033 2.7915C6.75033 3.76319 5.97201 4.5415 5.00033 4.5415C4.02864 4.5415 3.25033 3.76319 3.25033 2.7915C3.25033 1.81982 4.02864 1.0415 5.00033 1.0415ZM2.22949 5.99984C1.5098 5.99984 0.916992 6.59265 0.916992 7.31234V8.20215C0.426703 8.27473 0.0419922 8.69956 0.0419922 9.20817V9.7915C0.0419922 10.311 0.443538 10.742 0.948893 10.8004C1.07877 11.3875 1.60581 11.8332 2.22949 11.8332H7.77116C8.39484 11.8332 8.92188 11.3875 9.05176 10.8004C9.55711 10.742 9.95866 10.311 9.95866 9.7915V9.20817C9.95866 8.69956 9.57395 8.27473 9.08366 8.20215V7.31234C9.08366 6.59265 8.49085 5.99984 7.77116 5.99984H2.22949ZM2.22949 6.87484H7.77116C8.01805 6.87484 8.20866 7.06544 8.20866 7.31234V8.29102C7.86625 8.45686 7.62533 8.80623 7.62533 9.20817V9.7915C7.62533 10.1801 7.85135 10.5183 8.17562 10.6904C8.11106 10.8496 7.95736 10.9582 7.77116 10.9582H2.22949C2.04329 10.9582 1.88959 10.8496 1.82503 10.6904C2.1493 10.5183 2.37533 10.1801 2.37533 9.7915V9.20817C2.37533 8.80623 2.1344 8.45686 1.79199 8.29102V7.31234C1.79199 7.06544 1.9826 6.87484 2.22949 6.87484ZM7.18783 7.45817C7.07179 7.45817 6.96051 7.50426 6.87847 7.58631C6.79642 7.66836 6.75033 7.77964 6.75033 7.89567C6.75033 8.0117 6.79642 8.12298 6.87847 8.20503C6.96051 8.28708 7.07179 8.33317 7.18783 8.33317C7.30386 8.33317 7.41514 8.28708 7.49719 8.20503C7.57923 8.12298 7.62533 8.0117 7.62533 7.89567C7.62533 7.77964 7.57923 7.66836 7.49719 7.58631C7.41514 7.50426 7.30386 7.45817 7.18783 7.45817ZM1.06283 9.06234H1.35449C1.44055 9.06234 1.50033 9.12212 1.50033 9.20817V9.7915C1.50033 9.87756 1.44055 9.93734 1.35449 9.93734H1.06283C0.976771 9.93734 0.916992 9.87756 0.916992 9.7915V9.20817C0.916992 9.12212 0.976771 9.06234 1.06283 9.06234ZM8.71623 9.06234H8.93783C9.02388 9.06234 9.08366 9.12212 9.08366 9.20817V9.7915C9.08366 9.87756 9.02388 9.93734 8.93783 9.93734H8.64616C8.5601 9.93734 8.50033 9.87756 8.50033 9.7915V9.20817C8.50033 9.13205 8.54846 9.07928 8.61882 9.06746C8.65138 9.06939 8.68405 9.06767 8.71623 9.06234Z" fill="#31415D"/>
</svg>
