<svg width="12" height="13" viewBox="0 0 12 13" fill="none" xmlns="http://www.w3.org/2000/svg">
<path d="M1.64567 0.75C0.764903 0.75 0.0415039 1.4734 0.0415039 2.35417V3.22917C0.0415039 3.68708 0.238112 4.1014 0.549642 4.39469C0.237796 4.68752 0.0415039 5.10195 0.0415039 5.5625V6.4375C0.0415039 6.89746 0.237016 7.31133 0.547933 7.60417C0.237016 7.897 0.0415039 8.31088 0.0415039 8.77083V9.64583C0.0415039 10.5305 0.761337 11.25 1.64567 11.25H5.2915V10.375H1.64567C1.24346 10.375 0.916504 10.0478 0.916504 9.64583V8.77083C0.916504 8.36892 1.24346 8.04167 1.64567 8.04167H5.2915V7.16667H1.64567C1.24346 7.16667 0.916504 6.83942 0.916504 6.4375V5.5625C0.916504 5.16058 1.24346 4.83333 1.64567 4.83333H8.354C8.74192 4.83333 9.05702 5.13854 9.07918 5.52092L9.08317 6H9.95817V5.5625C9.95817 5.10195 9.76188 4.68752 9.45003 4.39469C9.76156 4.1014 9.95817 3.68708 9.95817 3.22917V2.35417C9.95817 1.4734 9.23477 0.75 8.354 0.75H1.64567ZM1.64567 1.625H8.354C8.76182 1.625 9.08317 1.94635 9.08317 2.35417V3.22917C9.08317 3.63698 8.76182 3.95833 8.354 3.95833H1.64567C1.23785 3.95833 0.916504 3.63698 0.916504 3.22917V2.35417C0.916504 1.94635 1.23785 1.625 1.64567 1.625ZM8.354 6.29167C8.11221 6.29167 7.9165 6.48738 7.9165 6.72917V8.91667H5.729C5.48721 8.91667 5.2915 9.11238 5.2915 9.35417C5.2915 9.59596 5.48721 9.79167 5.729 9.79167H7.9165V11.9792C7.9165 12.221 8.11221 12.4167 8.354 12.4167C8.5958 12.4167 8.7915 12.221 8.7915 11.9792V9.79167H10.979C11.2208 9.79167 11.4165 9.59596 11.4165 9.35417C11.4165 9.11238 11.2208 8.91667 10.979 8.91667H8.7915V6.72917C8.7915 6.48738 8.5958 6.29167 8.354 6.29167Z" fill="#31415D"/>
</svg>
