<svg width="10" height="14" viewBox="0 0 10 14" fill="none" xmlns="http://www.w3.org/2000/svg">
<path d="M4.99967 0.291687C3.3941 0.291687 2.08301 1.60278 2.08301 3.20835V5.39585C2.08317 5.39889 2.08336 5.40193 2.08358 5.40497C1.0181 6.26117 0.333008 7.57243 0.333008 9.04169C0.333008 11.6138 2.42753 13.7084 4.99967 13.7084C7.57182 13.7084 9.66634 11.6138 9.66634 9.04169C9.66634 6.46954 7.57182 4.37502 4.99967 4.37502C4.26704 4.37502 3.57578 4.5499 2.95801 4.8524V3.20835C2.95801 2.07576 3.86708 1.16669 4.99967 1.16669C6.13227 1.16669 7.04134 2.07576 7.04134 3.20835C7.04052 3.26633 7.05123 3.32389 7.07285 3.37768C7.09447 3.43148 7.12656 3.48045 7.16727 3.52174C7.20798 3.56302 7.25648 3.59581 7.30997 3.61818C7.36346 3.64056 7.42086 3.65208 7.47884 3.65208C7.53682 3.65208 7.59422 3.64056 7.64771 3.61818C7.7012 3.59581 7.7497 3.56302 7.79041 3.52174C7.83112 3.48045 7.86321 3.43148 7.88483 3.37768C7.90645 3.32389 7.91716 3.26633 7.91634 3.20835C7.91634 1.60278 6.60525 0.291687 4.99967 0.291687ZM4.99967 5.25002C7.09894 5.25002 8.79134 6.94242 8.79134 9.04169C8.79134 11.1409 7.09894 12.8334 4.99967 12.8334C2.90041 12.8334 1.20801 11.1409 1.20801 9.04169C1.20801 6.94242 2.90041 5.25002 4.99967 5.25002ZM4.99967 7.00002C4.6654 7.00099 4.34161 7.11678 4.08251 7.32798C3.82341 7.53918 3.64473 7.83299 3.57639 8.1602C3.50805 8.48742 3.5542 8.82818 3.70711 9.12543C3.86001 9.42269 4.1104 9.65839 4.41634 9.79307V10.7917C4.41634 11.114 4.67738 11.375 4.99967 11.375C5.32197 11.375 5.58301 11.114 5.58301 10.7917V9.79421C5.88963 9.65993 6.14073 9.42426 6.29415 9.12675C6.44757 8.82924 6.49397 8.488 6.42557 8.16033C6.35716 7.83265 6.17811 7.53848 5.91847 7.32721C5.65883 7.11593 5.33441 7.0004 4.99967 7.00002Z" fill="#31415D"/>
</svg>
