<svg width="31" height="31" viewBox="0 0 31 31" fill="none" xmlns="http://www.w3.org/2000/svg">
<path d="M15.5 30C23.5081 30 30 23.5081 30 15.5C30 7.49187 23.5081 1 15.5 1C7.49187 1 1 7.49187 1 15.5C1 23.5081 7.49187 30 15.5 30Z" fill="#4294FF"/>
<path d="M8 22.5001L9.262 18.4241L20.133 7.55315C20.133 7.55315 21.178 7.21515 22.239 8.27615C23.3 9.33715 22.962 10.3821 22.962 10.3821L12.09 21.2531L8 22.5001Z" fill="#FCBA7F"/>
<path d="M18.686 9.00014L20.133 7.55315C20.133 7.55315 21.178 7.21515 22.239 8.27615C23.3 9.33715 22.962 10.3821 22.962 10.3821L21.489 11.8541L18.686 9.00014Z" fill="#F37E98"/>
<path d="M8.4301 20.6699L9.8441 22.0839L8.1001 22.4139L8.4301 20.6699Z" fill="#4294FF"/>
<path d="M8.36591 23.0251C8.13791 23.0251 7.91691 22.9351 7.74791 22.7661C7.50691 22.5261 7.42691 22.1791 7.53791 21.8601L8.76291 18.3381C8.80391 18.2181 8.87391 18.1041 8.96691 18.0121L19.7789 7.2001C19.8349 7.1441 19.9039 7.10211 19.9789 7.07811C20.0329 7.05811 21.3309 6.6611 22.5919 7.9231C23.8539 9.1851 23.4539 10.4811 23.4369 10.5361C23.4129 10.6111 23.3709 10.6801 23.3149 10.7361L12.4439 21.6061C12.3909 21.6591 12.3259 21.7001 12.2549 21.7251L8.65391 22.9771C8.55891 23.0091 8.46191 23.0251 8.36591 23.0251ZM20.3809 8.0121L9.67391 18.7191L8.56491 21.9481L11.8179 20.8171L22.5039 10.1311C22.5339 9.9001 22.5379 9.2811 21.8849 8.6291C21.2349 7.9791 20.6199 7.9801 20.3809 8.0121Z" fill="#4294FF"/>
<path d="M21.5782 12.2648C21.4502 12.2648 21.3222 12.2158 21.2242 12.1188L18.3962 9.28977C18.2013 9.09477 18.2013 8.77777 18.3962 8.58277C18.5912 8.38777 18.9082 8.38777 19.1032 8.58277L21.9322 11.4118C22.1272 11.6068 22.1272 11.9238 21.9322 12.1188C21.8342 12.2158 21.7062 12.2648 21.5782 12.2648Z" fill="#4294FF"/>
<path d="M12.2799 21.5621C12.1519 21.5621 12.0239 21.5131 11.9259 21.4161L9.09791 18.5871C8.90291 18.3921 8.90291 18.0751 9.09791 17.8801C9.29291 17.6851 9.60991 17.6851 9.80491 17.8801L12.6329 20.7091C12.8279 20.9041 12.8279 21.2211 12.6329 21.4161C12.5359 21.5141 12.4079 21.5621 12.2799 21.5621Z" fill="#4294FF"/>
<path d="M15.5 31C6.953 31 0 24.047 0 15.5C0 6.953 6.953 0 15.5 0C24.047 0 31 6.953 31 15.5C31 24.047 24.047 31 15.5 31ZM15.5 2C8.056 2 2 8.056 2 15.5C2 22.944 8.056 29 15.5 29C22.944 29 29 22.944 29 15.5C29 8.056 22.944 2 15.5 2Z" fill="#4294FF"/>
</svg>
