<svg width="59" height="59" viewBox="0 0 59 59" fill="none" xmlns="http://www.w3.org/2000/svg">
<g clip-path="url(#clip0_203_4463)">
<path d="M58.0897 29.5C58.0897 13.7129 45.2872 0.9104 29.5 0.9104C13.7129 0.9104 0.9104 13.7129 0.9104 29.5C0.9104 45.2872 13.7129 58.0897 29.5 58.0897C45.2872 58.0897 58.0897 45.2872 58.0897 29.5Z" fill="#32BEA6"/>
<path d="M45.241 19.9239C44.5727 18.1839 43.2014 18.4604 41.7148 18.7601C40.8275 18.9444 36.875 20.0968 30.6408 26.6882C28.048 29.4192 26.3426 31.5972 25.2133 33.2565C24.5219 32.4153 23.7383 31.505 22.9086 30.6868C20.3619 28.1401 17.5156 26.3886 17.4004 26.3194C16.2135 25.5935 14.6578 25.9622 13.9203 27.1606C13.1943 28.3476 13.5631 29.9032 14.75 30.6407C14.773 30.6522 17.216 32.1618 19.3133 34.2706C21.4566 36.414 23.4041 39.3179 23.4272 39.3524C23.8996 40.0669 24.6947 40.4817 25.5359 40.4817C25.6742 40.4817 25.824 40.4702 25.9738 40.4472C26.9648 40.2743 27.7484 39.5368 27.9904 38.5688C28.002 38.5458 29.0045 35.7686 34.2938 30.1913C38.5574 25.6856 41.4037 24.2567 42.3947 23.8649C42.4063 23.8649 42.4063 23.8649 42.4293 23.8649C42.4293 23.8649 42.4639 23.8534 42.5215 23.8188C42.6943 23.7497 42.7865 23.7267 42.7865 23.7267C42.7404 23.7382 42.7174 23.7382 42.7174 23.7382V23.7267C43.1783 23.5308 44.0311 23.162 44.0426 23.1505C45.3217 22.5974 45.7481 21.2145 45.241 19.9239Z" fill="white"/>
</g>
<defs>
<clipPath id="clip0_203_4463">
<rect width="59" height="59" fill="white"/>
</clipPath>
</defs>
</svg>
