<svg width="14" height="14" viewBox="0 0 14 14" fill="none" xmlns="http://www.w3.org/2000/svg">
<path d="M4.66674 0C2.89496 0 1.4483 1.4302 1.4483 3.18182C1.4483 4.93343 2.89496 6.36364 4.66674 6.36364C6.43852 6.36364 7.88518 4.93343 7.88518 3.18182C7.88518 1.4302 6.43852 0 4.66674 0ZM4.66674 0.954545C5.91671 0.954545 6.91965 1.94608 6.91965 3.18182C6.91965 4.41756 5.91671 5.40909 4.66674 5.40909C3.41677 5.40909 2.41383 4.41756 2.41383 3.18182C2.41383 1.94608 3.41677 0.954545 4.66674 0.954545ZM1.19812 7.63636C0.537369 7.63636 0 8.20416 0 8.90225V9.38636C0 10.4303 0.545652 11.3376 1.53693 11.9405C2.37083 12.448 3.48236 12.7273 4.66674 12.7273C5.67444 12.7273 6.71508 12.5148 7.55831 12.076C7.36681 11.8218 7.21292 11.5394 7.10446 11.2352C6.4125 11.5976 5.5251 11.7727 4.66674 11.7727C2.88405 11.7727 0.965533 11.026 0.965533 9.38636V8.90225C0.965533 8.7333 1.07195 8.59091 1.19812 8.59091H7.35527C7.5722 8.2215 7.86174 7.90028 8.20514 7.64382C8.18133 7.64255 8.15951 7.63636 8.13537 7.63636H1.19812ZM10.1381 7.63636C8.71844 7.63636 7.56334 8.77832 7.56334 10.1818C7.56334 11.5853 8.71844 12.7273 10.1381 12.7273C10.674 12.7273 11.1713 12.5641 11.5839 12.286L13.1761 13.8602C13.2704 13.9537 13.3939 14 13.5175 14C13.641 14 13.7645 13.9534 13.8588 13.8602C14.0471 13.6737 14.0471 13.3717 13.8588 13.1853L12.2672 11.6112C12.5481 11.2032 12.7128 10.7116 12.7128 10.1818C12.7128 8.77832 11.5577 7.63636 10.1381 7.63636ZM10.1381 8.59091C11.0254 8.59091 11.7473 9.30459 11.7473 10.1818C11.7473 11.059 11.0254 11.7727 10.1381 11.7727C9.25077 11.7727 8.52887 11.059 8.52887 10.1818C8.52887 9.30459 9.25077 8.59091 10.1381 8.59091Z" fill="#31415E"/>
</svg>
