<svg width="14" height="14" viewBox="0 0 14 14" fill="none" xmlns="http://www.w3.org/2000/svg">
<path d="M8.03854 0.875302C8.02391 0.874758 8.00928 0.874949 7.99467 0.875872C7.92442 0.880091 7.85622 0.901196 7.79586 0.937395L5.30416 2.43333C4.90953 2.6701 4.66671 3.0981 4.66671 3.55841V4.565L4.45423 4.4374C4.3786 4.39204 4.29103 4.3706 4.20301 4.37587C4.13275 4.38009 4.06455 4.4012 4.00419 4.4374L1.51249 5.93333C1.11787 6.1701 0.875044 6.5981 0.875044 7.05841V12.6878C0.874224 12.7458 0.884934 12.8033 0.906553 12.8571C0.928171 12.9109 0.960267 12.9599 1.00097 13.0012C1.04168 13.0425 1.09019 13.0753 1.14367 13.0976C1.19716 13.12 1.25456 13.1315 1.31254 13.1315C1.37052 13.1315 1.42793 13.12 1.48141 13.0976C1.5349 13.0753 1.58341 13.0425 1.62411 13.0012C1.66482 12.9599 1.69692 12.9109 1.71853 12.8571C1.74015 12.8033 1.75086 12.7458 1.75004 12.6878V7.05841C1.75004 6.90402 1.83004 6.76301 1.96253 6.68357L4.22921 5.32322L6.49589 6.683C6.62818 6.76232 6.70838 6.90389 6.70838 7.05784V8.89614V12.6878C6.70756 12.7458 6.71827 12.8033 6.73989 12.8571C6.76151 12.9109 6.7936 12.9599 6.83431 13.0012C6.87501 13.0425 6.92352 13.0753 6.97701 13.0976C7.0305 13.12 7.0879 13.1315 7.14588 13.1315C7.20386 13.1315 7.26126 13.12 7.31475 13.0976C7.36823 13.0753 7.41674 13.0425 7.45745 13.0012C7.49815 12.9599 7.53025 12.9109 7.55187 12.8571C7.57349 12.8033 7.5842 12.7458 7.58338 12.6878V8.89614C7.58338 8.48832 7.90473 8.16697 8.31254 8.16697H10.8658C10.9127 8.17468 10.9606 8.17468 11.0076 8.16697H11.8125C12.2204 8.16697 12.5417 8.48832 12.5417 8.89614V12.6878C12.5409 12.7458 12.5516 12.8033 12.5732 12.8571C12.5948 12.9109 12.6269 12.9599 12.6676 13.0012C12.7083 13.0425 12.7569 13.0753 12.8103 13.0976C12.8638 13.12 12.9212 13.1315 12.9792 13.1315C13.0372 13.1315 13.0946 13.12 13.1481 13.0976C13.2016 13.0753 13.2501 13.0425 13.2908 13.0012C13.3315 12.9599 13.3636 12.9109 13.3852 12.8571C13.4068 12.8033 13.4175 12.7458 13.4167 12.6878V8.89614C13.4167 8.01537 12.6933 7.29197 11.8125 7.29197H11.375V3.55784C11.375 3.09754 11.1326 2.66961 10.7376 2.43276L8.24589 0.937395C8.18307 0.899658 8.11176 0.878307 8.03854 0.875302ZM8.02088 1.82322L10.2876 3.183C10.4198 3.26232 10.5 3.40389 10.5 3.55784V7.29197H8.31254C8.04614 7.29197 7.80532 7.37465 7.58338 7.49135V7.05784C7.58338 6.59754 7.34097 6.16961 6.94593 5.93276L5.54171 5.09023V3.55841C5.54171 3.40402 5.6217 3.26301 5.75419 3.18357L8.02088 1.82322ZM6.70838 3.5003C6.54738 3.5003 6.41671 3.63097 6.41671 3.79197V4.3753C6.41671 4.5363 6.54738 4.66697 6.70838 4.66697H7.29171C7.45271 4.66697 7.58338 4.5363 7.58338 4.3753V3.79197C7.58338 3.63097 7.45271 3.5003 7.29171 3.5003H6.70838ZM8.75004 3.5003C8.58904 3.5003 8.45838 3.63097 8.45838 3.79197V4.3753C8.45838 4.5363 8.58904 4.66697 8.75004 4.66697H9.33338C9.49438 4.66697 9.62504 4.5363 9.62504 4.3753V3.79197C9.62504 3.63097 9.49438 3.5003 9.33338 3.5003H8.75004ZM8.75004 5.54197C8.58904 5.54197 8.45838 5.67264 8.45838 5.83364V6.41697C8.45838 6.57797 8.58904 6.70864 8.75004 6.70864H9.33338C9.49438 6.70864 9.62504 6.57797 9.62504 6.41697V5.83364C9.62504 5.67264 9.49438 5.54197 9.33338 5.54197H8.75004ZM2.91671 7.0003C2.75571 7.0003 2.62504 7.13097 2.62504 7.29197V7.8753C2.62504 8.0363 2.75571 8.16697 2.91671 8.16697H3.50004C3.66104 8.16697 3.79171 8.0363 3.79171 7.8753V7.29197C3.79171 7.13097 3.66104 7.0003 3.50004 7.0003H2.91671ZM4.95838 7.0003C4.79738 7.0003 4.66671 7.13097 4.66671 7.29197V7.8753C4.66671 8.0363 4.79738 8.16697 4.95838 8.16697H5.54171C5.70271 8.16697 5.83338 8.0363 5.83338 7.8753V7.29197C5.83338 7.13097 5.70271 7.0003 5.54171 7.0003H4.95838ZM2.91671 9.04197C2.75571 9.04197 2.62504 9.17264 2.62504 9.33364V9.91697C2.62504 10.078 2.75571 10.2086 2.91671 10.2086H3.50004C3.66104 10.2086 3.79171 10.078 3.79171 9.91697V9.33364C3.79171 9.17264 3.66104 9.04197 3.50004 9.04197H2.91671ZM4.95838 9.04197C4.79738 9.04197 4.66671 9.17264 4.66671 9.33364V9.91697C4.66671 10.078 4.79738 10.2086 4.95838 10.2086H5.54171C5.70271 10.2086 5.83338 10.078 5.83338 9.91697V9.33364C5.83338 9.17264 5.70271 9.04197 5.54171 9.04197H4.95838ZM8.75004 9.04197C8.58904 9.04197 8.45838 9.17264 8.45838 9.33364V9.91697C8.45838 10.078 8.58904 10.2086 8.75004 10.2086H9.33338C9.49438 10.2086 9.62504 10.078 9.62504 9.91697V9.33364C9.62504 9.17264 9.49438 9.04197 9.33338 9.04197H8.75004ZM10.7917 9.04197C10.6307 9.04197 10.5 9.17264 10.5 9.33364V9.91697C10.5 10.078 10.6307 10.2086 10.7917 10.2086H11.375C11.536 10.2086 11.6667 10.078 11.6667 9.91697V9.33364C11.6667 9.17264 11.536 9.04197 11.375 9.04197H10.7917ZM2.91671 11.0836C2.75571 11.0836 2.62504 11.2143 2.62504 11.3753V11.9586C2.62504 12.1196 2.75571 12.2503 2.91671 12.2503H3.50004C3.66104 12.2503 3.79171 12.1196 3.79171 11.9586V11.3753C3.79171 11.2143 3.66104 11.0836 3.50004 11.0836H2.91671ZM4.95838 11.0836C4.79738 11.0836 4.66671 11.2143 4.66671 11.3753V11.9586C4.66671 12.1196 4.79738 12.2503 4.95838 12.2503H5.54171C5.70271 12.2503 5.83338 12.1196 5.83338 11.9586V11.3753C5.83338 11.2143 5.70271 11.0836 5.54171 11.0836H4.95838ZM8.75004 11.0836C8.58904 11.0836 8.45838 11.2143 8.45838 11.3753V11.9586C8.45838 12.1196 8.58904 12.2503 8.75004 12.2503H9.33338C9.49438 12.2503 9.62504 12.1196 9.62504 11.9586V11.3753C9.62504 11.2143 9.49438 11.0836 9.33338 11.0836H8.75004ZM10.7917 11.0836C10.6307 11.0836 10.5 11.2143 10.5 11.3753V11.9586C10.5 12.1196 10.6307 12.2503 10.7917 12.2503H11.375C11.536 12.2503 11.6667 12.1196 11.6667 11.9586V11.3753C11.6667 11.2143 11.536 11.0836 11.375 11.0836H10.7917Z" fill="#31415D"/>
</svg>
