<svg width="14" height="14" viewBox="0 0 14 14" fill="none" xmlns="http://www.w3.org/2000/svg">
<path d="M4.95866 0.583008C3.35301 0.583008 2.04199 1.89403 2.04199 3.49967C2.04199 5.10532 3.35301 6.41634 4.95866 6.41634C6.56431 6.41634 7.87533 5.10532 7.87533 3.49967C7.87533 1.89403 6.56431 0.583008 4.95866 0.583008ZM4.95866 1.45801C6.09142 1.45801 7.00033 2.36691 7.00033 3.49967C7.00033 4.63244 6.09142 5.54134 4.95866 5.54134C3.82589 5.54134 2.91699 4.63244 2.91699 3.49967C2.91699 2.36691 3.82589 1.45801 4.95866 1.45801ZM10.2087 6.99967C8.43678 6.99967 7.00033 8.43613 7.00033 10.208C7.00033 11.9799 8.43678 13.4163 10.2087 13.4163C11.9805 13.4163 13.417 11.9799 13.417 10.208C13.417 8.43613 11.9805 6.99967 10.2087 6.99967ZM1.81527 7.58301C1.21677 7.58301 0.729492 8.10349 0.729492 8.74341V9.18717C0.729492 10.1441 1.22398 10.9758 2.12231 11.5285C2.87802 11.9937 3.88533 12.2497 4.95866 12.2497C5.59741 12.2497 6.25118 12.1551 6.84823 11.9609C6.71406 11.7039 6.61068 11.429 6.53776 11.1417C6.0428 11.2974 5.49445 11.3747 4.95866 11.3747C3.34312 11.3747 1.60449 10.6901 1.60449 9.18717V8.74341C1.60449 8.58853 1.70123 8.45801 1.81527 8.45801H6.84709C7.01479 8.1363 7.22748 7.8423 7.47656 7.58301H1.81527ZM10.2087 7.87467C10.3697 7.87467 10.5003 8.00534 10.5003 8.16634V9.91634H12.2503C12.4113 9.91634 12.542 10.047 12.542 10.208C12.542 10.369 12.4113 10.4997 12.2503 10.4997H10.5003V12.2497C10.5003 12.4107 10.3697 12.5413 10.2087 12.5413C10.0477 12.5413 9.91699 12.4107 9.91699 12.2497V10.4997H8.16699C8.00599 10.4997 7.87533 10.369 7.87533 10.208C7.87533 10.047 8.00599 9.91634 8.16699 9.91634H9.91699V8.16634C9.91699 8.00534 10.0477 7.87467 10.2087 7.87467Z" fill="#31415D"/>
</svg>
