<svg width="16" height="14" viewBox="0 0 16 14" fill="none" xmlns="http://www.w3.org/2000/svg">
<path d="M15.9332 6.07788C14.3178 2.32719 11.2789 0 8 0C4.72114 0 1.6822 2.32719 0.0667645 6.07788C0.0227292 6.17878 0 6.28768 0 6.39777C0 6.50786 0.0227292 6.61676 0.0667645 6.71766C1.6822 10.4684 4.72114 12.7955 8 12.7955C11.2789 12.7955 14.3178 10.4684 15.9332 6.71766C15.9773 6.61676 16 6.50786 16 6.39777C16 6.28768 15.9773 6.17878 15.9332 6.07788V6.07788ZM8 11.1961C5.46488 11.1961 3.06572 9.36474 1.6822 6.39777C3.06572 3.4308 5.46488 1.59944 8 1.59944C10.5351 1.59944 12.9343 3.4308 14.3178 6.39777C12.9343 9.36474 10.5351 11.1961 8 11.1961ZM8 3.19888C7.36732 3.19888 6.74885 3.3865 6.22279 3.73799C5.69674 4.08949 5.28673 4.58909 5.04461 5.17361C4.8025 5.75813 4.73915 6.40132 4.86258 7.02184C4.98601 7.64236 5.29067 8.21235 5.73805 8.65972C6.18542 9.1071 6.75541 9.41176 7.37593 9.53519C7.99645 9.65862 8.63964 9.59527 9.22416 9.35315C9.80868 9.11104 10.3083 8.70103 10.6598 8.17497C11.0113 7.64892 11.1989 7.03045 11.1989 6.39777C11.1989 5.54937 10.8619 4.73572 10.262 4.13582C9.66205 3.53591 8.8484 3.19888 8 3.19888V3.19888ZM8 7.99721C7.68366 7.99721 7.37442 7.90341 7.1114 7.72766C6.84837 7.55191 6.64337 7.30211 6.52231 7.00985C6.40125 6.71759 6.36958 6.396 6.43129 6.08573C6.493 5.77547 6.64534 5.49048 6.86902 5.26679C7.09271 5.04311 7.3777 4.89077 7.68796 4.82906C7.99823 4.76735 8.31982 4.79902 8.61208 4.92008C8.90434 5.04114 9.15414 5.24614 9.32989 5.50917C9.50564 5.77219 9.59944 6.08143 9.59944 6.39777C9.59944 6.82197 9.43093 7.22879 9.13098 7.52875C8.83102 7.8287 8.4242 7.99721 8 7.99721Z" fill="#AFB3C1"/>
<g filter="url(#filter0_d_2521_4454)">
<line x1="14.4845" y1="0.57254" x2="1.48446" y2="11.5725" stroke="#AFB3C1" stroke-width="1.5"/>
</g>
<defs>
<filter id="filter0_d_2521_4454" x="1" y="0" width="13.9688" height="13.1451" filterUnits="userSpaceOnUse" color-interpolation-filters="sRGB">
<feFlood flood-opacity="0" result="BackgroundImageFix"/>
<feColorMatrix in="SourceAlpha" type="matrix" values="0 0 0 0 0 0 0 0 0 0 0 0 0 0 0 0 0 0 127 0" result="hardAlpha"/>
<feOffset dy="1"/>
<feComposite in2="hardAlpha" operator="out"/>
<feColorMatrix type="matrix" values="0 0 0 0 1 0 0 0 0 1 0 0 0 0 1 0 0 0 1 0"/>
<feBlend mode="normal" in2="BackgroundImageFix" result="effect1_dropShadow_2521_4454"/>
<feBlend mode="normal" in="SourceGraphic" in2="effect1_dropShadow_2521_4454" result="shape"/>
</filter>
</defs>
</svg>
