<svg width="20" height="21" viewBox="0 0 20 21" fill="none" xmlns="http://www.w3.org/2000/svg">
<path d="M11.8704 20.5919C11.794 20.5919 11.7176 20.5717 11.6494 20.5306L7.35942 17.9566C7.23029 17.8793 7.15135 17.7395 7.15135 17.5889V10.0368L0.404042 2.8682C0.328967 2.78841 0.287354 2.68331 0.287354 2.57391V1.28691C0.287354 1.0501 0.479546 0.85791 0.716354 0.85791H18.7344C18.9712 0.85791 19.1634 1.0501 19.1634 1.28691V2.57391C19.1634 2.68331 19.1217 2.78841 19.0467 2.8682L12.2994 10.0368V20.1629C12.2994 20.3174 12.2161 20.4602 12.0819 20.5361C12.0162 20.5735 11.9433 20.5919 11.8704 20.5919ZM18.7344 2.57391H18.7386H18.7344Z" fill="#C6CDDA"/>
</svg>
