<svg width="48" height="48" viewBox="0 0 48 48" fill="none" xmlns="http://www.w3.org/2000/svg">
<path d="M40.2241 7.09913C37.9251 8.04213 37.2731 10.8581 37.0311 13.3311C37.0311 13.3311 36.6831 16.1111 36.3991 17.3551C35.7191 20.3401 33.6211 18.6861 32.6201 17.6981C32.6201 17.6981 22.2091 7.93613 22.1171 7.84813C21.3701 7.06213 20.4161 6.58113 19.5641 6.56213C19.0321 6.55013 18.5721 6.71613 18.2331 7.04113C17.3371 7.96313 17.5941 9.64413 18.8461 10.9601L27.9261 21.1891C23.1401 16.6091 15.2111 9.04813 15.1521 8.99113C13.8501 7.70813 12.1361 7.40313 11.2441 8.29513C11.2421 8.29713 11.2401 8.29913 11.2371 8.30213C10.9071 8.63713 10.7341 9.09513 10.7371 9.62713C10.7431 10.4801 11.2071 11.4431 11.9581 12.1811L23.6741 25.4071C19.6901 21.6991 12.1701 14.7431 12.0761 14.6551C10.7601 13.4041 9.05111 13.1221 8.16811 14.0061C8.16011 14.0141 8.15311 14.0211 8.14511 14.0291C7.81911 14.3681 7.65311 14.8291 7.66511 15.3611C7.68411 16.2121 8.16511 17.1671 8.93911 17.9041L20.7761 29.8831C18.2621 27.7671 11.8461 22.4801 11.7701 22.4151C10.3821 21.2221 8.66111 21.0261 7.80211 21.9701C7.49011 22.3231 7.34311 22.7881 7.37811 23.3181C7.43511 24.1651 7.96211 25.0931 8.75511 25.7731C8.75511 25.7731 16.2071 33.5141 17.0731 34.6131C18.0011 35.7911 19.0271 36.9451 20.1261 38.0381C22.5841 40.4831 25.2881 42.5341 27.9451 43.9701C30.6281 45.4191 34.0171 44.9251 36.1871 42.7661L43.9691 35.0111C45.8881 32.9171 46.6791 29.4831 46.0341 26.0501C45.9951 25.8451 42.9881 8.67013 42.9881 8.67013C42.7951 7.37313 41.4371 6.60113 40.2241 7.09913Z" fill="url(#paint0_radial_3073_4449)"/>
<path opacity="0.07" d="M33.0109 28.655C33.3379 33.086 36.0869 36.494 39.1509 36.268C42.2149 36.042 44.4329 32.266 44.1049 27.835C43.7769 23.404 41.0289 19.996 37.9649 20.222C34.9009 20.448 32.6829 24.224 33.0109 28.655Z" fill="url(#paint1_radial_3073_4449)"/>
<path opacity="0.07" d="M27.2651 42.9158C31.2101 44.6198 35.2621 44.0238 36.3151 41.5848C37.3691 39.1458 35.0251 35.7868 31.0801 34.0828C27.1351 32.3788 23.0831 32.9748 22.0301 35.4138C20.9771 37.8528 23.3201 41.2118 27.2651 42.9158Z" fill="url(#paint2_radial_3073_4449)"/>
<path opacity="0.07" d="M17.47 17.992C21.495 22.232 25.514 24.953 26.445 24.069C27.376 23.185 24.868 19.03 20.843 14.79C16.818 10.55 12.799 7.82903 11.868 8.71303C10.936 9.59703 13.445 13.751 17.47 17.992Z" fill="url(#paint3_radial_3073_4449)"/>
<path opacity="0.07" d="M14.0581 22.8408C18.0571 26.8398 21.9941 29.3868 22.8511 28.5298C23.7081 27.6728 21.1611 23.7358 17.1621 19.7368C13.1631 15.7378 9.22607 13.1908 8.36907 14.0478C7.51207 14.9048 10.0591 18.8418 14.0581 22.8408Z" fill="url(#paint4_radial_3073_4449)"/>
<path opacity="0.07" d="M12.3959 29.057C15.5249 31.916 18.7219 33.512 19.5359 32.621C20.3499 31.73 18.4729 28.69 15.3439 25.831C12.2149 22.972 9.01789 21.376 8.20389 22.267C7.38989 23.158 9.26689 26.197 12.3959 29.057Z" fill="url(#paint5_radial_3073_4449)"/>
<path opacity="0.07" d="M23.9929 15.8889C27.2089 19.2769 30.4839 21.3899 31.3079 20.6079C32.1319 19.8259 30.1919 16.4459 26.9759 13.0579C23.7599 9.66993 20.4849 7.55693 19.6609 8.33893C18.8369 9.11993 20.7769 12.5009 23.9929 15.8889Z" fill="url(#paint6_radial_3073_4449)"/>
<path d="M34.6639 19.954C34.6639 19.954 29.2039 23.021 26.9209 30.982C26.7039 31.817 27.3459 32.21 27.7109 31.419C28.0769 30.629 30.4419 23.687 35.0539 20.469C35.8659 19.814 34.6639 19.954 34.6639 19.954Z" fill="url(#paint7_linear_3073_4449)"/>
<path d="M31.3791 17.903C31.3791 17.903 23.7271 21.754 17.4801 31.875C16.8501 32.937 17.4061 33.444 18.1851 32.441C18.9651 31.438 24.8411 22.616 31.5901 18.564C32.8201 17.736 31.3791 17.903 31.3791 17.903Z" fill="url(#paint8_linear_3073_4449)"/>
<path d="M10.1359 32.5288C10.0869 32.5288 10.0379 32.5218 9.98989 32.5068C7.04989 31.6138 4.91189 29.4078 4.54489 26.8868C4.50489 26.6138 4.69389 26.3598 4.96789 26.3198C5.25489 26.2868 5.49389 26.4698 5.53389 26.7428C5.84689 28.8818 7.70889 30.7688 10.2799 31.5498C10.5449 31.6298 10.6939 31.9088 10.6129 32.1738C10.5479 32.3898 10.3499 32.5288 10.1359 32.5288Z" fill="url(#paint9_linear_3073_4449)"/>
<path d="M9.76299 35.904C9.71399 35.904 9.66499 35.897 9.61699 35.882C5.09599 34.509 1.80999 31.13 1.24899 27.272C1.20899 26.999 1.39799 26.745 1.67199 26.705C1.96099 26.672 2.19799 26.855 2.23799 27.128C2.74499 30.604 5.75499 33.665 9.90699 34.926C10.172 35.006 10.321 35.285 10.24 35.55C10.175 35.765 9.97699 35.904 9.76299 35.904Z" fill="url(#paint10_linear_3073_4449)"/>
<path d="M30.6279 12.0358C30.4139 12.0358 30.2159 11.8968 30.1499 11.6808C29.3689 9.10978 27.4819 7.24578 25.3419 6.93378C25.0689 6.89378 24.8789 6.63978 24.9189 6.36678C24.9579 6.09378 25.2159 5.91078 25.4849 5.94378C28.0059 6.31178 30.2129 8.44878 31.1049 11.3898C31.1859 11.6538 31.0369 11.9328 30.7719 12.0138C30.7259 12.0288 30.6769 12.0358 30.6279 12.0358Z" fill="url(#paint11_linear_3073_4449)"/>
<path d="M33.937 11.724C33.723 11.724 33.525 11.585 33.459 11.369C32.198 7.21699 29.137 4.20699 25.661 3.69999C25.388 3.65999 25.198 3.40599 25.238 3.13299C25.277 2.85999 25.533 2.67899 25.804 2.70999C29.662 3.27299 33.042 6.55699 34.414 11.078C34.495 11.342 34.346 11.621 34.081 11.702C34.035 11.716 33.986 11.724 33.937 11.724Z" fill="url(#paint12_linear_3073_4449)"/>
<path d="M33.273 19.0542C32.405 20.7022 31.801 22.5682 31.525 24.5192C31.356 25.7172 31.308 26.9562 31.396 28.1732C31.544 30.2132 32.078 32.2852 33.071 34.0912C33.407 34.7012 33.803 35.2772 34.247 35.8132C34.652 36.3022 35.149 36.9702 35.725 37.2642C35.874 37.3682 36.045 37.4372 36.228 37.4372C36.387 37.4372 36.546 37.3812 36.655 37.2622C36.664 37.2522 36.673 37.2422 36.681 37.2312C36.892 36.9612 36.794 36.5332 36.438 36.2602C33.524 33.9642 32.074 29.4342 32.744 24.6932C33.019 22.7492 33.646 20.9042 34.543 19.3052L33.273 19.0542Z" fill="url(#paint13_linear_3073_4449)"/>
<defs>
<radialGradient id="paint0_radial_3073_4449" cx="0" cy="0" r="1" gradientUnits="userSpaceOnUse" gradientTransform="translate(25.1838 21.5676) rotate(-45.001) scale(25.466)">
<stop stop-color="#F9E5C8"/>
<stop offset="0.629" stop-color="#F8DABA"/>
<stop offset="0.713" stop-color="#F5D5B5"/>
<stop offset="0.818" stop-color="#EEC7A5"/>
<stop offset="0.933" stop-color="#E1B08C"/>
<stop offset="0.999" stop-color="#D8A07A"/>
</radialGradient>
<radialGradient id="paint1_radial_3073_4449" cx="0" cy="0" r="1" gradientUnits="userSpaceOnUse" gradientTransform="translate(38.5588 28.2478) rotate(175.773) scale(4.99671 7.07602)">
<stop offset="0.425" stop-color="white"/>
<stop offset="0.573" stop-color="#FEFBF7" stop-opacity="0.744"/>
<stop offset="0.803" stop-color="#FCF0E0" stop-opacity="0.342"/>
<stop offset="1" stop-color="#F9E5C8" stop-opacity="0"/>
</radialGradient>
<radialGradient id="paint2_radial_3073_4449" cx="0" cy="0" r="1" gradientUnits="userSpaceOnUse" gradientTransform="translate(29.1802 38.5136) rotate(113.363) scale(4.32141 6.84333)">
<stop offset="0.425" stop-color="white"/>
<stop offset="0.573" stop-color="#FEFBF7" stop-opacity="0.744"/>
<stop offset="0.803" stop-color="#FCF0E0" stop-opacity="0.342"/>
<stop offset="1" stop-color="#F9E5C8" stop-opacity="0"/>
</radialGradient>
<radialGradient id="paint3_radial_3073_4449" cx="0" cy="0" r="1" gradientUnits="userSpaceOnUse" gradientTransform="translate(19.1566 16.38) rotate(136.488) scale(2.089 9.31165)">
<stop offset="0.425" stop-color="white"/>
<stop offset="0.573" stop-color="#FEFBF7" stop-opacity="0.744"/>
<stop offset="0.803" stop-color="#FCF0E0" stop-opacity="0.342"/>
<stop offset="1" stop-color="#F9E5C8" stop-opacity="0"/>
</radialGradient>
<radialGradient id="paint4_radial_3073_4449" cx="0" cy="0" r="1" gradientUnits="userSpaceOnUse" gradientTransform="translate(15.6017 21.2949) rotate(134.997) scale(1.9715 9.00635)">
<stop offset="0.425" stop-color="white"/>
<stop offset="0.573" stop-color="#FEFBF7" stop-opacity="0.744"/>
<stop offset="0.803" stop-color="#FCF0E0" stop-opacity="0.342"/>
<stop offset="1" stop-color="#F9E5C8" stop-opacity="0"/>
</radialGradient>
<radialGradient id="paint5_radial_3073_4449" cx="0" cy="0" r="1" gradientUnits="userSpaceOnUse" gradientTransform="translate(13.8468 27.4752) rotate(132.419) scale(1.96254 6.75049)">
<stop offset="0.425" stop-color="white"/>
<stop offset="0.573" stop-color="#FEFBF7" stop-opacity="0.744"/>
<stop offset="0.803" stop-color="#FCF0E0" stop-opacity="0.342"/>
<stop offset="1" stop-color="#F9E5C8" stop-opacity="0"/>
</radialGradient>
<radialGradient id="paint6_radial_3073_4449" cx="0" cy="0" r="1" gradientUnits="userSpaceOnUse" gradientTransform="translate(25.5106 14.455) rotate(136.491) scale(1.84707 7.43977)">
<stop offset="0.425" stop-color="white"/>
<stop offset="0.573" stop-color="#FEFBF7" stop-opacity="0.744"/>
<stop offset="0.803" stop-color="#FCF0E0" stop-opacity="0.342"/>
<stop offset="1" stop-color="#F9E5C8" stop-opacity="0"/>
</radialGradient>
<linearGradient id="paint7_linear_3073_4449" x1="35.1681" y1="18.1506" x2="28.8721" y2="28.5861" gradientUnits="userSpaceOnUse">
<stop stop-color="#F8DABA" stop-opacity="0"/>
<stop offset="1" stop-color="#E4B794"/>
</linearGradient>
<linearGradient id="paint8_linear_3073_4449" x1="16.8733" y1="32.5369" x2="31.1128" y2="17.6648" gradientUnits="userSpaceOnUse">
<stop stop-color="#E4B794"/>
<stop offset="0.999" stop-color="#F8DABA"/>
</linearGradient>
<linearGradient id="paint9_linear_3073_4449" x1="4.24789" y1="26.8958" x2="10.6739" y2="32.8958" gradientUnits="userSpaceOnUse">
<stop stop-color="#F1F7FE" stop-opacity="0"/>
<stop offset="0.52" stop-color="#3C8AF0"/>
<stop offset="1" stop-color="#F1F7FE" stop-opacity="0"/>
</linearGradient>
<linearGradient id="paint10_linear_3073_4449" x1="0.791993" y1="27.72" x2="9.81399" y2="35.719" gradientUnits="userSpaceOnUse">
<stop stop-color="#F1F7FE" stop-opacity="0"/>
<stop offset="0.52" stop-color="#3C8AF0"/>
<stop offset="1" stop-color="#F1F7FE" stop-opacity="0"/>
</linearGradient>
<linearGradient id="paint11_linear_3073_4449" x1="25.3799" y1="5.75578" x2="30.9019" y2="11.0538" gradientUnits="userSpaceOnUse">
<stop stop-color="#F1F7FE" stop-opacity="0"/>
<stop offset="0.52" stop-color="#3C8AF0"/>
<stop offset="1" stop-color="#F1F7FE" stop-opacity="0"/>
</linearGradient>
<linearGradient id="paint12_linear_3073_4449" x1="25.828" y1="2.44999" x2="34.221" y2="10.269" gradientUnits="userSpaceOnUse">
<stop stop-color="#F1F7FE" stop-opacity="0"/>
<stop offset="0.52" stop-color="#3C8AF0"/>
<stop offset="1" stop-color="#F1F7FE" stop-opacity="0"/>
</linearGradient>
<linearGradient id="paint13_linear_3073_4449" x1="32.2714" y1="18.576" x2="34.1978" y2="33.2654" gradientUnits="userSpaceOnUse">
<stop stop-color="#F8DABA" stop-opacity="0"/>
<stop offset="0.999" stop-color="#E4B794" stop-opacity="0.64"/>
</linearGradient>
</defs>
</svg>
