<svg width="26" height="26" viewBox="0 0 26 26" fill="none" xmlns="http://www.w3.org/2000/svg">
<circle cx="12.6" cy="12.6" r="12.1" stroke="#3F3F46"/>
<path d="M18.1864 9.88494C17.8093 10.0525 17.4112 10.1573 16.9922 10.2202C17.4112 9.96874 17.7464 9.57067 17.8931 9.0888C17.495 9.31926 17.0551 9.48687 16.5732 9.59162C16.1961 9.19355 15.6513 8.94214 15.0647 8.94214C13.9333 8.94214 13.0115 9.86399 13.0115 10.9953C13.0115 11.163 13.0324 11.3096 13.0743 11.4563C11.3773 11.3725 9.84787 10.5554 8.82127 9.29831C8.65366 9.61257 8.54891 9.94779 8.54891 10.3249C8.54891 11.0373 8.90507 11.6658 9.47075 12.0429C9.13554 12.022 8.82127 11.9381 8.52795 11.7915V11.8124C8.52795 12.8181 9.24029 13.6561 10.1831 13.8447C10.0155 13.8866 9.82692 13.9076 9.63836 13.9076C9.51266 13.9076 9.366 13.8866 9.24029 13.8657C9.51266 14.6827 10.2669 15.2903 11.1678 15.2903C10.4555 15.8351 9.57551 16.1703 8.61176 16.1703C8.44415 16.1703 8.27654 16.1703 8.12988 16.1493C9.05173 16.736 10.1202 17.0712 11.2935 17.0712C15.0857 17.0712 17.1598 13.9285 17.1598 11.2049C17.1598 11.1211 17.1598 11.0163 17.1598 10.9325C17.5579 10.6601 17.9141 10.304 18.1864 9.88494Z" fill="white"/>
</svg>
