<svg width="26" height="26" viewBox="0 0 26 26" fill="none" xmlns="http://www.w3.org/2000/svg">
<circle cx="12.6" cy="12.6001" r="12.1" stroke="#3F3F46"/>
<path d="M12.6007 7.60188C14.2285 7.60188 14.4213 7.60797 15.0644 7.6373C15.451 7.64203 15.834 7.71302 16.1966 7.8472C16.4596 7.94862 16.6984 8.10399 16.8977 8.3033C17.0971 8.5026 17.2524 8.74144 17.3538 9.00442C17.488 9.36707 17.559 9.75004 17.5637 10.1367C17.5928 10.7797 17.5992 10.9725 17.5992 12.6004C17.5992 14.2282 17.5931 14.421 17.5637 15.064C17.559 15.4507 17.488 15.8336 17.3538 16.1963C17.2524 16.4593 17.0971 16.6981 16.8977 16.8974C16.6984 17.0967 16.4596 17.2521 16.1966 17.3535C15.834 17.4877 15.451 17.5587 15.0644 17.5634C14.4216 17.5925 14.2288 17.5988 12.6007 17.5988C10.9726 17.5988 10.7798 17.5927 10.137 17.5634C9.75036 17.5587 9.36739 17.4877 9.00475 17.3535C8.74176 17.2521 8.50292 17.0967 8.30362 16.8974C8.10431 16.6981 7.94894 16.4593 7.84752 16.1963C7.71334 15.8336 7.64235 15.4507 7.63762 15.064C7.60858 14.421 7.6022 14.2282 7.6022 12.6004C7.6022 10.9725 7.60829 10.7797 7.63762 10.1367C7.64235 9.75004 7.71334 9.36707 7.84752 9.00442C7.94894 8.74144 8.10431 8.5026 8.30362 8.3033C8.50292 8.10399 8.74176 7.94862 9.00475 7.8472C9.36739 7.71302 9.75036 7.64203 10.137 7.6373C10.7801 7.60826 10.9728 7.60188 12.6007 7.60188ZM12.6007 6.5033C10.9458 6.5033 10.7374 6.51026 10.0871 6.53988C9.58105 6.54994 9.0804 6.64575 8.60642 6.82323C8.19982 6.97642 7.83155 7.21649 7.52729 7.52668C7.21682 7.83105 6.97655 8.19953 6.82326 8.60639C6.64578 9.08037 6.54997 9.58102 6.53991 10.087C6.51087 10.7368 6.50391 10.9452 6.50391 12.6001C6.50391 14.2549 6.51087 14.4634 6.54049 15.1137C6.55055 15.6197 6.64636 16.1203 6.82384 16.5943C6.97696 17.0011 7.21703 17.3696 7.52729 17.674C7.83172 17.9843 8.2002 18.2244 8.607 18.3775C9.08098 18.555 9.58163 18.6508 10.0876 18.6608C10.738 18.6899 10.9456 18.6974 12.6013 18.6974C14.257 18.6974 14.4646 18.6905 15.1149 18.6608C15.6209 18.6508 16.1215 18.555 16.5955 18.3775C17.0004 18.2205 17.3681 17.9808 17.675 17.6737C17.982 17.3665 18.2214 16.9987 18.3781 16.5937C18.5556 16.1198 18.6514 15.6191 18.6615 15.1131C18.6905 14.4634 18.6975 14.2549 18.6975 12.6001C18.6975 10.9452 18.6905 10.7368 18.6609 10.0865C18.6508 9.58044 18.555 9.07979 18.3775 8.60581C18.2244 8.19901 17.9843 7.83053 17.6741 7.5261C17.3696 7.21584 17.0012 6.97577 16.5944 6.82265C16.1204 6.64517 15.6197 6.54936 15.1137 6.5393C14.464 6.51026 14.2555 6.5033 12.6007 6.5033Z" fill="white"/>
<path d="M12.6015 9.46985C11.9823 9.46985 11.377 9.65347 10.8621 9.99749C10.3473 10.3415 9.94599 10.8305 9.70903 11.4026C9.47206 11.9747 9.41006 12.6042 9.53086 13.2115C9.65167 13.8188 9.94985 14.3767 10.3877 14.8145C10.8256 15.2524 11.3834 15.5506 11.9907 15.6714C12.5981 15.7922 13.2276 15.7302 13.7997 15.4932C14.3717 15.2562 14.8607 14.855 15.2047 14.3401C15.5488 13.8252 15.7324 13.2199 15.7324 12.6007C15.7324 11.7703 15.4025 10.974 14.8154 10.3869C14.2282 9.7997 13.4319 9.46985 12.6015 9.46985ZM12.6015 14.6329C12.1996 14.6329 11.8067 14.5138 11.4725 14.2904C11.1383 14.0671 10.8778 13.7497 10.724 13.3784C10.5702 13.0071 10.5299 12.5984 10.6083 12.2042C10.6867 11.81 10.8803 11.4479 11.1645 11.1637C11.4487 10.8794 11.8108 10.6859 12.2051 10.6075C12.5993 10.5291 13.0079 10.5693 13.3793 10.7231C13.7506 10.8769 14.068 11.1374 14.2913 11.4716C14.5146 11.8058 14.6338 12.1987 14.6338 12.6007C14.6338 13.1397 14.4197 13.6566 14.0386 14.0377C13.6574 14.4188 13.1405 14.6329 12.6015 14.6329Z" fill="white"/>
<path d="M15.8559 10.077C16.2599 10.077 16.5875 9.74944 16.5875 9.34538C16.5875 8.94132 16.2599 8.61377 15.8559 8.61377C15.4518 8.61377 15.1243 8.94132 15.1243 9.34538C15.1243 9.74944 15.4518 10.077 15.8559 10.077Z" fill="white"/>
</svg>
