<svg width="26" height="26" viewBox="0 0 26 26" fill="none" xmlns="http://www.w3.org/2000/svg">
<circle cx="12.6" cy="12.6001" r="12.1" stroke="#3F3F46"/>
<path fill-rule="evenodd" clip-rule="evenodd" d="M13.1461 6.5033C9.91427 6.5033 7.31421 9.10335 7.31421 12.3352C7.31421 14.911 8.99088 17.0979 11.2993 17.8755C11.5909 17.9241 11.6881 17.754 11.6881 17.5839C11.6881 17.4381 11.6881 17.0736 11.6881 16.5876C10.0601 16.9521 9.71987 15.81 9.71987 15.81C9.45257 15.1297 9.06378 14.9596 9.06378 14.9596C8.52919 14.5951 9.11238 14.5951 9.11238 14.5951C9.69557 14.6437 10.0115 15.2026 10.0115 15.2026C10.5218 16.1016 11.3722 15.8343 11.7124 15.6885C11.761 15.2998 11.9068 15.0568 12.0769 14.911C10.7891 14.7652 9.42827 14.2549 9.42827 12.0193C9.42827 11.3875 9.64697 10.8529 10.0358 10.4641C9.98717 10.3183 9.76847 9.73514 10.0844 8.90896C10.0844 8.90896 10.5704 8.76316 11.6881 9.51645C12.1498 9.39495 12.6601 9.32205 13.1461 9.32205C13.6321 9.32205 14.1424 9.39495 14.6041 9.51645C15.7219 8.76316 16.2079 8.90896 16.2079 8.90896C16.5238 9.71084 16.3294 10.294 16.2565 10.4641C16.621 10.8772 16.864 11.3875 16.864 12.0193C16.864 14.2549 15.5032 14.7409 14.191 14.8867C14.4097 15.0568 14.5798 15.4213 14.5798 15.9558C14.5798 16.7334 14.5798 17.3652 14.5798 17.5596C14.5798 17.7054 14.677 17.8998 14.9929 17.8512C17.3013 17.0979 18.978 14.911 18.978 12.3352C18.978 9.10335 16.378 6.5033 13.1461 6.5033Z" fill="white"/>
</svg>
