<svg width="45" height="45" viewBox="0 0 45 45" fill="none" xmlns="http://www.w3.org/2000/svg">
<rect width="44.1222" height="44.1667" rx="22.0611" fill="#578BFF"/>
<path d="M12.2035 20.9793H14.3506C15.57 20.9793 16.5584 21.968 16.5584 23.1877V24.2918C16.5584 25.5115 17.5469 26.5002 18.7663 26.5002C19.9856 26.5002 20.9741 27.4889 20.9741 28.7085V31.9603M17.6624 13.179V14.9064C17.6624 16.4309 18.8979 17.6668 20.4221 17.6668H20.9741C22.1934 17.6668 23.1819 18.6555 23.1819 19.8752C23.1819 21.0948 24.1704 22.0835 25.3897 22.0835C26.609 22.0835 27.5975 21.0948 27.5975 19.8752C27.5975 18.6555 28.586 17.6668 29.8053 17.6668L30.9804 17.6668M25.3897 31.4555V28.7085C25.3897 27.4889 26.3782 26.5002 27.5975 26.5002H30.9804M32.0131 22.0835C32.0131 27.5718 27.565 32.021 22.078 32.021C16.5909 32.021 12.1428 27.5718 12.1428 22.0835C12.1428 16.5952 16.5909 12.146 22.078 12.146C27.565 12.146 32.0131 16.5952 32.0131 22.0835Z" stroke="white" stroke-width="2" stroke-linecap="round" stroke-linejoin="round"/>
</svg>
