<svg width="45" height="45" viewBox="0 0 45 45" fill="none" xmlns="http://www.w3.org/2000/svg">
<rect x="0.235352" width="44.1222" height="44.1667" rx="22.0611" fill="#578BFF"/>
<path d="M13.4824 15.2131C13.4824 14.129 14.3611 13.2501 15.4449 13.2501H18.6627C19.085 13.2501 19.46 13.5205 19.5936 13.9212L21.0633 18.3315C21.2177 18.7948 21.008 19.3013 20.5712 19.5197L18.3563 20.6274C19.4379 23.0269 21.3705 24.9599 23.7694 26.0418L24.8768 23.8263C25.0952 23.3894 25.6015 23.1797 26.0648 23.3341L30.474 24.8042C30.8747 24.9378 31.1449 25.3129 31.1449 25.7353V28.9538C31.1449 30.0379 30.2663 30.9168 29.1824 30.9168H28.2012C20.0722 30.9168 13.4824 24.3254 13.4824 16.1946V15.2131Z" stroke="white" stroke-width="2" stroke-linecap="round" stroke-linejoin="round"/>
</svg>
