<svg width="15" height="14" viewBox="0 0 15 14" fill="none" xmlns="http://www.w3.org/2000/svg">
<path d="M2.63762 0.5C1.76803 0.5 1.05505 1.17578 1.05505 2V4.5H2.11009V2C2.11009 1.71875 2.34088 1.5 2.63762 1.5H13.1881C13.4848 1.5 13.7156 1.71875 13.7156 2V12C13.7156 12.2812 13.4848 12.5 13.1881 12.5H2.63762C2.34088 12.5 2.11009 12.2812 2.11009 12V9.5H1.05505V12C1.05505 12.8242 1.76803 13.5 2.63762 13.5H13.1881C14.0577 13.5 14.7706 12.8242 14.7706 12V2C14.7706 1.17578 14.0577 0.5 13.1881 0.5H2.63762ZM7.09683 3.52344L6.355 4.22656L8.74946 6.5H0V7.5H8.74946L6.355 9.76953L7.09683 10.4805L10.7689 7L7.09683 3.52344Z" fill="#12141D"/>
</svg>
