<svg width="610" height="660" viewBox="0 0 610 660" fill="none" xmlns="http://www.w3.org/2000/svg">
<path d="M197.892 151.301C196.537 146.023 194.436 141.024 191.728 136.447L197.985 127.011L189.3 118.322L180.614 109.634L171.182 115.893C166.606 113.184 161.609 111.082 156.333 109.727L154.092 98.6563H141.811H129.53L127.289 109.727C122.012 111.082 117.016 113.184 112.44 115.893L103.007 109.634L94.3219 118.322L85.6367 127.011L91.8938 136.447C89.1855 141.024 87.0842 146.023 85.7301 151.301L74.6633 153.543V165.829V178.114L85.7301 180.356C87.0842 185.635 89.1855 190.633 91.8938 195.211L85.6367 204.646L94.3219 213.335L103.007 222.023L112.44 215.764C117.016 218.473 122.012 220.575 127.289 221.93L129.53 233.001H141.811H154.092L156.333 221.93C161.609 220.575 166.606 218.473 171.182 215.764L180.614 222.023L189.3 213.335L197.985 204.646L191.728 195.211C194.436 190.633 196.537 185.635 197.892 180.356L208.958 178.114V165.829V153.543L197.892 151.301ZM141.904 208.897C118.136 208.897 98.8514 189.605 98.8514 165.829C98.8514 142.052 118.136 122.76 141.904 122.76C165.672 122.76 184.957 142.052 184.957 165.829C184.957 189.605 165.672 208.897 141.904 208.897Z" fill="#9AA9E2"/>
<path d="M101.56 69.5546C100.672 66.1446 99.3183 62.9682 97.5906 60.0253L101.606 53.9527L96.003 48.3472L90.3996 42.7418L84.3292 46.759C81.3875 45.0307 78.1655 43.676 74.8035 42.7885L73.3559 35.6415H65.4644H57.573L56.1254 42.7885C52.7167 43.676 49.5414 45.0307 46.5997 46.759L40.5293 42.7418L34.9259 48.3472L29.3225 53.9527L33.3383 60.0253C31.6106 62.9682 30.2564 66.1913 29.3692 69.5546L22.2249 71.0027V78.8971V86.7914L29.3692 88.2395C30.2564 91.6495 31.6106 94.8259 33.3383 97.7688L29.3225 103.841L34.9259 109.447L40.5293 115.052L46.5997 111.035C49.5414 112.763 52.7634 114.118 56.1254 115.006L57.573 122.153H65.4644H73.3559L74.8035 115.006C78.2122 114.118 81.3875 112.763 84.3292 111.035L90.3996 115.052L96.003 109.447L101.606 103.841L97.5906 97.7688C99.3183 94.8259 100.672 91.6028 101.56 88.2395L108.704 86.7914V78.8971V71.0027L101.56 69.5546ZM65.5111 106.597C50.1952 106.597 37.821 94.172 37.821 78.8971C37.821 63.5754 50.2419 51.1967 65.5111 51.1967C80.8271 51.1967 93.2013 63.6222 93.2013 78.8971C93.248 94.2187 80.8271 106.597 65.5111 106.597Z" fill="#9AA9E2"/>
<path d="M220.398 598.618H361.091C413.716 598.618 456.348 555.969 456.348 503.325V255.563C456.348 202.918 413.716 160.27 361.091 160.27H220.398C167.773 160.27 125.141 202.918 125.141 255.563V503.371C125.141 555.969 167.773 598.618 220.398 598.618Z" fill="#D9DDE9"/>
<path d="M234.734 70.956L220.445 62.6879V68.1532H199.152V73.7587H220.445V79.224L234.734 70.956Z" fill="#9AA9E2"/>
<path d="M199.152 52.8316L213.488 61.0997V55.681H234.734V50.0289H213.488V44.6102L199.152 52.8316Z" fill="#9AA9E2"/>
<path d="M441.873 70.3019C440.145 70.1618 438.511 69.5078 437.25 68.4335C435.849 67.2189 435.055 65.584 435.055 63.8557C434.822 60.4457 433.748 56.9422 432.861 54.5132C428.705 51.1966 426.463 46.0583 426.884 40.7331C427.537 31.9045 435.289 25.2713 444.067 25.972C452.893 26.626 459.523 34.3802 458.823 43.1621C458.449 47.9735 456.021 52.271 452.052 55.0738C450.838 58.3436 450.138 61.2865 449.904 63.9491C449.858 67.4992 446.496 70.3487 442.386 70.3019C442.293 70.3019 442.106 70.3019 441.873 70.3019ZM444.021 27.3267C435.942 26.7194 428.845 32.792 428.238 40.9199C427.864 45.8714 429.966 50.6361 433.888 53.6724L434.028 53.7658L434.075 53.9527C435.009 56.4284 436.129 60.2121 436.409 63.8557V63.9024C436.409 65.257 437.016 66.5183 438.137 67.4992C439.305 68.4802 440.845 69.0407 442.526 69.0407C445.935 69.0407 448.69 66.7985 448.69 63.9491V63.9024V63.8557C448.924 61.0529 449.671 57.8765 450.978 54.4198L451.072 54.2329L451.258 54.0928C454.947 51.5703 457.282 47.5064 457.609 43.0687C458.216 35.0342 452.099 27.9339 444.021 27.3267Z" fill="#9AA9E2"/>
<path d="M438.931 64.8366L436.83 47.3662L440.472 50.3558L442.713 47.88L444.675 50.2157L448.083 47.3195L446.029 64.8366L444.721 64.6965L446.402 50.4959L444.535 52.0841L442.667 49.842L440.612 52.1776L438.511 50.4492L440.239 64.6497L438.931 64.8366Z" fill="#9AA9E2"/>
<path d="M448.202 68.7539L436.809 68.6767L436.778 73.2545L448.171 73.3318L448.202 68.7539Z" fill="#9AA9E2"/>
<path d="M450.08 64.0948L435.044 63.9935L434.994 71.3741L450.03 71.4753L450.08 64.0948Z" fill="#9AA9E2"/>
<path d="M345.308 13.313C345.214 12.986 344.981 12.5656 344.701 12.0985C344.421 11.6314 344 11.1642 343.58 10.6504C343.113 10.1366 342.599 9.66944 342.039 9.20232C341.432 8.73519 340.825 8.31478 340.125 7.9878L336.903 15.5085L337.51 15.9289C338.677 16.8164 339.704 17.6572 340.592 18.4981C341.479 19.3389 342.179 20.1797 342.646 21.0672C343.113 21.9548 343.393 22.8423 343.44 23.8233C343.487 24.8042 343.253 25.8786 342.786 27.0464C342.226 28.3076 341.525 29.3353 340.685 30.036C339.844 30.7367 338.864 31.2505 337.79 31.4841C336.716 31.7176 335.595 31.8111 334.381 31.6242C333.167 31.4841 331.953 31.1104 330.692 30.6432L329.058 34.4737L327.19 33.6795L328.871 29.8024C327.19 28.9149 325.696 27.8872 324.342 26.626C323.034 25.3648 321.914 23.9634 321.073 22.3752L324.435 19.7126C324.575 20.133 324.809 20.6001 325.182 21.1607C325.556 21.7212 325.976 22.2818 326.536 22.889C327.097 23.4963 327.704 24.1035 328.404 24.6641C329.105 25.2713 329.898 25.7852 330.692 26.2523L333.914 18.7316C333.774 18.6382 333.681 18.4981 333.494 18.4046C333.354 18.3112 333.214 18.1711 333.074 18.0776C331.953 17.1901 330.972 16.3493 330.179 15.5552C329.385 14.7611 328.778 13.967 328.404 13.1729C327.984 12.3788 327.797 11.5379 327.797 10.6971C327.797 9.85629 327.984 8.92204 328.404 7.89437C328.918 6.72657 329.572 5.74561 330.365 4.99821C331.159 4.25082 332.093 3.73698 333.12 3.36328C334.148 3.0363 335.268 2.89616 336.436 2.94287C337.603 2.98958 338.817 3.22315 340.078 3.64356L341.666 0L343.533 0.794109L341.946 4.43767C343.487 5.23177 344.794 6.16602 345.868 7.2404C346.989 8.3615 347.876 9.48259 348.576 10.6971L345.308 13.313ZM332.934 9.10889C332.513 10.1366 332.513 11.0241 333.027 11.8649C333.541 12.659 334.428 13.5933 335.689 14.6209L338.77 7.47396C337.276 6.91342 336.015 6.77328 335.082 7.10027C334.101 7.38054 333.4 8.08122 332.934 9.10889ZM338.257 25.645C338.724 24.5707 338.63 23.5897 338.023 22.7022C337.416 21.8146 336.436 20.787 335.082 19.7126L332 26.8596C333.541 27.5135 334.848 27.7471 335.922 27.5135C336.996 27.3267 337.79 26.7194 338.257 25.645Z" fill="#9AA9E2"/>
<path d="M509.347 98.4694C437.11 103.141 435.756 185.308 435.756 185.308V576.569H145.733V185.261C145.733 185.261 145.406 103.374 219.698 98.4227H509.347V98.4694Z" fill="#F3F6FF"/>
<path d="M382.991 200.676H183.79V218.24H382.991V200.676Z" fill="#E0E8EE"/>
<path d="M353.9 241.316H183.79V253.788H353.9V241.316Z" fill="#E0E8EE"/>
<path d="M269.288 274.201H183.79V292.699H269.288V274.201Z" fill="#E0E8EE"/>
<path d="M383.037 274.201H294.597V292.699H383.037V274.201Z" fill="#E0E8EE"/>
<path d="M319.999 309.842H183.79V323.015H319.999V309.842Z" fill="#E0E8EE"/>
<path d="M337.276 342.821H183.79V350.155H337.276V342.821Z" fill="#E0E8EE"/>
<path d="M368.375 375.753H183.79V383.087H368.375V375.753Z" fill="#E0E8EE"/>
<path d="M269.895 449.606H183.229V408.125H269.895V449.606ZM184.397 448.438H268.728V409.293H184.397V448.438Z" fill="#E0E8EE"/>
<path d="M368.375 408.732H290.721V418.262H368.375V408.732Z" fill="#E0E8EE"/>
<path d="M345.728 428.865H290.721V438.395H345.728V428.865Z" fill="#E0E8EE"/>
<path d="M335.922 474.69H183.79V482.024H335.922V474.69Z" fill="#E0E8EE"/>
<path d="M271.203 507.669H183.79V515.003H271.203V507.669Z" fill="#E0E8EE"/>
<path d="M406.198 527.008H351.565V472.354H406.198V527.008ZM356.701 521.869H401.108V477.446H356.701V521.869Z" fill="#9AA9E2"/>
<path d="M379.769 511.126L360.53 493.001L366.414 486.788L380.142 499.728L410.214 475.064L415.63 481.65L379.769 511.126Z" fill="#9AA9E2"/>
<path d="M186.731 515.283C186.731 515.283 187.899 516.404 188.319 517.478C188.646 518.319 189.72 519.44 190.233 520.048C190.747 520.702 192.662 523.644 192.942 524.485C193.035 524.812 192.895 527.148 193.222 527.802C193.502 528.456 194.296 529.717 193.736 529.951C193.129 530.184 192.148 529.25 192.148 529.25C192.148 529.25 192.381 529.857 191.914 530.231C191.027 530.932 190.374 530.651 190.374 530.651C190.374 530.651 190.187 531.445 189.767 531.632C188.786 532.099 188.179 531.772 188.179 531.772C188.179 531.772 187.852 532.286 187.105 532.426C186.171 532.613 185.564 531.913 185.564 531.913C185.564 531.913 184.49 532.426 183.976 531.959C183.509 531.492 183.369 530.885 183.089 530.464C182.809 529.997 181.642 525.56 182.249 522.01C182.856 518.459 180.054 515.797 180.054 515.797L186.731 515.283Z" fill="#DBA585"/>
<path d="M196.491 542.61H181.175C179.634 542.61 178.326 541.348 178.326 539.807V530.138C178.326 528.596 179.587 527.335 181.175 527.335H196.491C198.031 527.335 199.339 528.596 199.339 530.138V539.807C199.339 541.348 198.078 542.61 196.491 542.61ZM181.175 529.203C180.661 529.203 180.241 529.624 180.241 530.138V539.807C180.241 540.321 180.661 540.741 181.175 540.741H196.491C197.004 540.741 197.424 540.321 197.424 539.807V530.138C197.424 529.624 197.004 529.203 196.491 529.203H181.175Z" fill="#1A232F"/>
<path d="M217.644 538.452H160.069V579.699H217.644V538.452Z" fill="#5A5C5A"/>
<path d="M164.411 428.071C164.411 428.071 161.469 428.118 160.208 436.946C158.948 445.775 161.329 449.465 161.609 453.109C161.889 456.799 166.185 480.482 166.326 481.51C166.466 482.538 167.026 495.15 168.707 498.513C170.388 501.877 182.715 520.842 182.902 521.776C183.089 522.71 188.879 518.459 188.879 518.459C188.879 518.459 179.167 498.186 178.606 495.851C178.046 493.515 174.124 481.697 174.777 478.1C175.384 474.503 173.05 454.604 173.283 452.362C173.47 450.213 170.061 429.426 164.411 428.071Z" fill="#DBA585"/>
<path d="M164.411 428.071C164.411 428.071 161.469 428.118 160.209 436.946C158.948 445.775 160.069 448.952 160.862 452.782C161.563 456.379 164.038 478.474 164.131 479.501C164.271 480.529 167.166 493.842 168.707 498.56C169.875 502.11 180.848 520.748 181.035 521.729C181.221 522.664 189.58 517.385 189.58 517.385C189.58 517.385 178.84 496.411 178.28 494.076C177.719 491.74 175.898 483.752 175.852 480.109C175.758 475.811 173.097 454.697 173.283 452.502C173.47 450.213 172.63 431.107 164.411 428.071Z" fill="#295174"/>
<path d="M139.756 633.745C139.756 633.745 144.893 641.359 146.947 643.228C146.947 643.228 151.71 644.91 151.99 648.133C152.177 650.235 151.99 653.645 146.574 653.785C141.11 653.925 137.655 652.056 136.627 648.74C135.647 645.423 133.732 643.975 133.732 643.975V650.889H132.518C132.518 650.889 132.191 644.209 132.145 642.994C132.051 641.78 131.258 637.062 133.872 634.96C136.441 632.858 139.756 633.745 139.756 633.745Z" fill="#E6D8D1"/>
<path d="M174.544 627.626C174.544 627.626 175.431 629.728 177.112 631.923C178.326 633.512 182.155 640.145 183.836 640.565C185.517 641.032 190.747 641.967 191.214 644.863C191.681 647.759 191.915 649.861 186.778 650.095C181.642 650.328 178.28 650.655 175.805 647.012C173.33 643.415 169.454 640.799 169.454 640.799V650.188H167.446C167.446 650.188 166.513 640.425 165.999 639.724C165.485 639.024 164.084 631.503 168.847 627.626C173.61 623.749 174.544 627.626 174.544 627.626Z" fill="#E6D8D1"/>
<path d="M136.301 486.555C136.301 486.555 129.81 494.963 128.083 505.006C126.308 515.003 129.11 548.589 129.063 553.54C128.97 558.492 124.394 570.777 125.328 580.12C126.261 589.415 133.919 635.006 133.919 635.006L139.803 633.792C139.803 633.792 139.243 586.519 139.803 582.642C140.363 578.718 141.531 564.471 141.764 562.883C141.998 561.295 156.333 519.02 156.333 511.78C156.333 504.539 151.897 474.783 136.301 486.555Z" fill="#DBA585"/>
<path d="M168.847 489.825C168.847 489.825 179.494 530.464 180.754 536.117C182.015 541.769 183.836 546.393 183.836 548.776C183.836 554.334 181.782 563.256 181.782 563.256L174.544 627.626H168.847C168.847 627.626 165.252 590.023 164.691 582.455C164.131 574.888 168.847 563.163 167.68 559.94C166.513 556.717 149.189 519.58 149.189 519.58C149.189 519.58 136.021 478.053 168.847 489.825Z" fill="#DBA585"/>
<path d="M147.834 643.602C147.834 643.602 143.352 645.89 139.289 642.854C135.227 639.818 133.873 634.96 133.873 634.96L139.756 633.745L147.834 643.602Z" fill="#DBA585"/>
<path d="M183.883 640.612C183.883 640.612 179.307 641.78 177.532 640.612C175.758 639.444 169.781 629.354 167.773 628.747C167.773 628.747 169.688 624.823 174.544 627.673C174.544 627.626 182.576 638.93 183.883 640.612Z" fill="#DBA585"/>
<path d="M182.482 542.61C182.482 542.61 162.917 554.148 126.261 554.148C126.261 554.148 124.206 511.593 129.53 499.634C134.853 487.676 170.248 495.103 170.248 495.103C170.248 495.103 181.221 533.828 182.482 542.61Z" fill="#2C3D54"/>
<path d="M155.773 424.895C155.773 424.895 161.47 427.604 163.431 427.978C165.392 428.351 173.05 438.348 174.404 441.945C175.758 445.588 174.404 451.054 171.649 457.453C168.894 463.853 171.509 466.002 170.248 472.401C168.987 478.801 167.867 492.347 168.1 495.897C168.334 499.448 136.161 500.101 128.783 493.655C128.783 493.655 136.161 482.584 137.095 480.996C138.029 479.408 137.235 470.813 136.394 468.571C135.507 466.375 129.764 447.55 129.764 447.55C129.764 447.55 125.047 433.116 129.297 429.8C133.032 426.903 143.118 425.876 144.939 425.268C146.761 424.614 152.037 424.381 155.773 424.895Z" fill="#E6D8D1"/>
<path d="M157.547 437.601L161.002 433.537L158.014 422.886C158.014 422.886 157.033 428.819 157.547 437.601Z" fill="#CFC3BC"/>
<path d="M148.582 384.535C151.944 383.368 164.364 380.425 167.306 396.307C170.248 412.189 161.469 423.493 153.391 420.504C145.313 417.514 140.363 406.537 139.896 398.129C139.429 389.767 144.286 386.03 148.582 384.535Z" fill="#DBA585"/>
<path d="M167.306 396.307C167.306 396.307 167.913 382.714 154.418 382.246C140.923 381.779 137.281 392.897 138.402 401.025C139.523 409.153 145.079 413.404 145.079 413.404C145.079 413.404 144.612 406.864 147.227 405.135C149.842 403.454 160.349 400.044 164.925 392.149C164.878 392.103 167.026 394.625 167.306 396.307Z" fill="#2C323D"/>
<path d="M150.45 394.859C148.675 400.277 143.399 403.407 138.683 401.819C133.966 400.277 131.585 394.625 133.359 389.207C135.134 383.788 140.41 380.658 145.126 382.246C149.843 383.788 152.224 389.44 150.45 394.859Z" fill="#2C323D"/>
<path d="M158.481 418.355C158.481 418.355 157.36 428.772 157.594 432.182C157.594 432.182 151.663 438.114 144.986 425.268C144.986 425.268 147.834 419.99 145.687 412.75C143.492 405.556 158.481 418.355 158.481 418.355Z" fill="#DBA585"/>
<path d="M157.548 432.182V437.6L150.776 432.509L157.548 432.182Z" fill="#DBA585"/>
<path d="M157.547 437.6L154.745 434.097L145.22 424.614L142.138 427.604L157.547 437.6Z" fill="#CFC3BC"/>
<path d="M143.912 425.502C143.912 425.502 151.897 437.6 152.271 442.972C152.644 448.298 149.282 488.19 146.621 501.036C143.959 513.882 124.581 499.588 124.581 499.588C124.581 499.588 137.608 478.52 132.612 461.611C127.616 444.747 125.795 437.974 125.795 437.974C125.795 437.974 127.522 428.585 133.593 427.23C138.916 426.109 143.912 425.502 143.912 425.502Z" fill="#295174"/>
<path d="M174.918 443.58C174.918 443.58 176.365 448.671 170.762 459.929C170.762 459.929 170.855 474.363 170.995 478.847C171.135 483.332 172.209 500.382 172.209 500.382L166.652 503.652C165.532 504.306 164.131 503.418 164.318 502.11C165.905 489.124 170.995 439.983 159.975 426.763L164.411 428.071C164.411 428.071 172.256 434.517 174.918 443.58Z" fill="#295174"/>
<path d="M148.535 402.239C148.021 400.978 146.387 400.651 145.453 401.352C144.519 402.052 143.959 404.201 145.453 406.957C146.947 409.76 152.27 411.675 148.535 402.239Z" fill="#DBA585"/>
<path d="M161.003 433.537L165.393 434.751L158.014 422.886L161.003 433.537Z" fill="#F3E4DC"/>
<path d="M154.745 434.097L150.776 439.329L142.605 425.689L145.22 424.614L154.745 434.097Z" fill="#F3E4DC"/>
<path d="M158.247 420.644L158.061 422.746C158.061 422.746 153.344 423.634 147.227 416.113C147.181 416.113 151.57 421.438 158.247 420.644Z" fill="#997761"/>
<path d="M182.389 484.546C182.389 484.546 185.144 486.321 186.731 485.34C188.085 484.5 190.42 484.36 191.167 484.36C192.148 484.313 195.043 483.052 195.136 484.266C195.23 485.481 190.42 486.602 189.439 487.022C188.459 487.442 192.708 489.498 193.175 490.479C193.642 491.46 189.86 498.28 187.105 496.505C184.35 494.73 182.622 491.086 182.062 490.852C181.501 490.619 180.007 489.638 180.007 489.638L182.389 484.546Z" fill="#DBA585"/>
<path d="M129.95 429.192C129.95 429.192 133.779 428.258 137.095 431.808C140.41 435.358 142.091 441.197 142.931 443.113C143.819 445.028 154.792 462.545 155.399 462.965C156.006 463.339 167.166 472.354 172.256 477.166C177.299 481.977 187.152 487.349 187.152 487.349L183.416 492.581C183.416 492.581 153.485 476.605 149.702 470.766C145.92 464.927 130.791 448.718 130.791 448.718C130.791 448.718 121.779 435.078 129.95 429.192Z" fill="#DBA585"/>
<path d="M192.661 489.918C192.661 489.918 200.693 495.851 200.88 496.692C201.067 497.532 200.74 497.953 199.946 497.439C199.152 496.925 192.054 491.927 192.054 491.927C192.054 491.927 200.366 500.522 200.693 501.176C200.88 501.55 200.273 502.39 199.806 502.157C199.386 501.923 190.654 493.842 190.654 493.842C190.654 493.842 198.405 501.877 198.498 502.531C198.592 503.091 197.845 503.698 197.191 503.138C196.584 502.577 188.973 495.524 188.973 495.524C188.973 495.524 194.249 501.736 194.016 502.297C193.876 502.671 193.362 503.418 192.054 501.783C190.747 500.148 187.245 496.598 187.245 496.598L192.661 489.918Z" fill="#DBA585"/>
<path d="M172.07 457.126C172.07 457.126 172.35 475.11 171.229 483.799L170.762 459.929L172.07 457.126Z" fill="#2F386C"/>
<path d="M131.912 427.884C131.912 427.884 134.106 428.258 137.422 431.808C140.737 435.358 142.418 441.197 143.258 443.113C144.146 445.028 155.119 462.545 155.726 462.965C156.38 463.339 165.485 469.645 170.575 474.456C175.618 479.268 185.05 485.013 185.05 485.013L180.241 492.207C180.241 492.207 153.858 477.586 149.656 472.027C145.173 466.095 129.25 448.625 129.25 448.625C129.25 448.625 118.837 432.649 131.912 427.884Z" fill="#295174"/>
<path d="M192.148 528.83C192.148 528.83 191.121 524.812 189.813 524.205C188.506 523.598 188.833 525.093 188.833 525.093C188.833 525.093 188.553 523.644 187.385 523.738C186.171 523.831 186.638 525.513 186.638 525.513C186.638 525.513 186.124 524.485 185.004 524.952C183.883 525.466 184.537 526.774 184.537 526.774C184.537 526.774 182.996 525.7 182.622 527.195C182.015 529.717 183.883 532.099 183.883 532.099C183.883 532.099 184.49 532.613 185.517 532.053C185.517 532.053 186.731 533.407 188.132 531.913C188.132 531.913 190.187 532.473 190.374 530.745C190.374 530.791 192.755 531.165 192.148 528.83Z" fill="#C99A7D"/>
<path d="M149.936 476.185L140.877 461.611C140.877 461.611 148.582 470.719 149.375 471.7C150.169 472.681 150.263 472.728 150.263 472.728C150.263 472.728 150.029 475.671 149.936 476.185Z" fill="#2F386C"/>
<path d="M411.802 291.204H329.011V353.378V366.504L341.619 353.378H411.802V291.204Z" fill="#9AA9E2"/>
<path d="M33.0581 296.436H115.895V358.657V371.736L103.241 358.657H33.0581V296.436Z" fill="#9AA9E2"/>
<path d="M369.402 342.821C367.721 342.681 366.134 342.074 364.92 341C363.519 339.832 362.772 338.244 362.772 336.562C362.538 333.245 361.511 329.835 360.67 327.5C356.608 324.277 354.46 319.278 354.834 314.14C355.487 305.592 363.005 299.145 371.55 299.753C380.096 300.407 386.539 307.881 385.932 316.476C385.559 321.147 383.177 325.351 379.348 328.06C378.181 331.237 377.481 334.133 377.294 336.655C377.247 340.065 373.978 342.868 370.009 342.821C369.823 342.868 369.636 342.868 369.402 342.821ZM371.504 301.061C363.659 300.453 356.748 306.386 356.141 314.233C355.767 319.045 357.822 323.669 361.651 326.612L361.791 326.706L361.838 326.892C362.725 329.321 363.846 332.965 364.079 336.515V336.562C364.079 337.87 364.686 339.131 365.76 340.065C366.881 341.046 368.375 341.56 370.009 341.607C373.278 341.607 375.986 339.411 376.033 336.655V336.609V336.562C376.267 333.853 377.014 330.77 378.274 327.406L378.368 327.219L378.555 327.126C382.15 324.65 384.391 320.726 384.718 316.382C385.279 308.535 379.348 301.668 371.504 301.061Z" fill="#F6F7FE"/>
<path d="M366.554 337.543L364.5 320.54L368.048 323.482L370.243 321.007L372.111 323.296L375.426 320.493L373.418 337.543L372.158 337.356L373.792 323.576L371.971 325.117L370.196 322.969L368.142 325.211L366.134 323.529L367.815 337.356L366.554 337.543Z" fill="#F6F7FE"/>
<path d="M375.543 341.371L364.476 341.297L364.446 345.735L375.513 345.808L375.543 341.371Z" fill="#F6F7FE"/>
<path d="M377.373 336.805L362.758 336.708L362.709 343.901L377.325 343.999L377.373 336.805Z" fill="#F6F7FE"/>
<path d="M84.7027 319.045C84.3759 318.718 83.9556 318.344 83.3486 317.924C82.7416 317.55 82.0411 317.13 81.294 316.803C80.5002 316.429 79.6597 316.149 78.6791 315.868C77.7452 315.588 76.7646 315.448 75.784 315.354L75.7373 326.005L76.7179 326.192C78.5857 326.659 80.22 327.126 81.7143 327.687C83.2085 328.247 84.4693 328.901 85.4966 329.695C86.5239 330.489 87.3177 331.47 87.878 332.591C88.4383 333.759 88.7185 335.16 88.7185 336.795C88.7185 338.617 88.3916 340.159 87.7379 341.467C87.0842 342.728 86.197 343.802 85.0296 344.69C83.8622 345.531 82.5548 346.185 81.0138 346.605C79.4729 347.025 77.8386 347.259 76.1109 347.306V352.724H73.4492V347.212C70.9744 347.025 68.6397 346.558 66.3983 345.717C64.1569 344.923 62.1491 343.756 60.2812 342.307L62.8962 337.403C63.2697 337.823 63.8301 338.243 64.5305 338.757C65.2309 339.224 66.0714 339.692 67.052 340.159C68.0326 340.626 69.0599 341 70.2273 341.373C71.3947 341.7 72.562 341.98 73.7761 342.121L73.8228 331.47C73.636 331.423 73.4025 331.33 73.1691 331.283C72.9356 331.237 72.7488 331.19 72.5153 331.097C70.6942 330.629 69.1066 330.116 67.7525 329.555C66.3983 329.041 65.2776 328.387 64.3904 327.593C63.5032 326.846 62.8495 325.958 62.3825 324.93C61.9156 323.903 61.6821 322.688 61.6821 321.24C61.6821 319.559 61.9623 318.064 62.5693 316.756C63.1763 315.448 63.9702 314.327 65.0441 313.393C66.1181 312.458 67.3322 311.711 68.7797 311.197C70.1806 310.683 71.7682 310.356 73.4959 310.216V305.031H76.1576V310.216C78.3989 310.356 80.4535 310.823 82.3213 311.571C84.1891 312.318 85.8701 313.252 87.3177 314.327L84.7027 319.045ZM67.7058 320.306C67.7058 321.754 68.2194 322.828 69.2 323.529C70.2273 324.23 71.7215 324.884 73.7761 325.444L73.8228 315.308C71.7215 315.401 70.1806 315.868 69.2 316.756C68.2194 317.643 67.7058 318.811 67.7058 320.306ZM82.5081 337.403C82.5081 335.908 81.901 334.74 80.7337 333.993C79.5196 333.199 77.8386 332.498 75.6906 331.891L75.6439 342.074C77.8386 342.027 79.5196 341.653 80.687 340.859C81.901 340.065 82.5081 338.944 82.5081 337.403Z" fill="#F6F7FE"/>
<path d="M473.532 529.577C473.532 529.577 470.59 530.184 469.236 530.231C467.835 530.278 461.392 527.335 459.29 527.615C457.236 527.895 443.741 533.641 443.134 534.061C442.527 534.482 443.414 535.416 443.414 535.416L474.373 535.79L473.532 529.577Z" fill="#DBA585"/>
<path d="M432.448 539.808L483.952 540.198L483.988 535.48L432.483 535.09L432.448 539.808Z" fill="#363957"/>
<path d="M417.425 490.594L432.485 539.866L436.995 538.486L421.935 489.214L417.425 490.594Z" fill="#363957"/>
<path d="M526.531 635.193L528.539 639.491C528.539 639.491 536.897 636.361 536.944 636.268C536.991 636.174 534.656 630.289 534.656 630.289L526.531 635.193Z" fill="#525368"/>
<path d="M454.854 635.1L452.519 641.873C452.519 641.873 461.718 643.882 463.025 643.788C463.166 643.788 464.753 636.128 464.753 636.128L454.854 635.1Z" fill="#6A6B87"/>
<path d="M464.1 641.827C464.1 641.827 457.702 640.098 457.469 639.818C457.282 639.538 454.901 637.949 453.733 638.136C452.519 638.323 452.426 639.771 451.212 640.098C449.998 640.378 440.612 643.415 439.305 644.162C437.997 644.91 431.787 642.667 430.619 644.256C429.405 645.844 428.285 650.095 437.997 651.543C447.756 652.991 458.169 657.335 460.504 656.775C462.839 656.167 464.426 644.396 464.1 641.827Z" fill="#26283A"/>
<path d="M537.597 635.147C537.597 635.147 531.667 637.669 531.34 637.576C531.013 637.482 528.258 637.669 527.464 638.557C526.671 639.444 527.464 640.612 526.717 641.593C525.97 642.574 521.721 648.179 520.507 649.441C519.48 650.515 513.923 651.496 512.148 653.364C510.794 654.766 512.382 660.418 521.861 657.709C531.107 655.093 542.5 650.562 543.948 648.693C545.302 646.825 539.418 636.875 537.597 635.147Z" fill="#26283A"/>
<path d="M531.48 550.738C531.48 550.738 505.331 562.369 499.775 566.34C494.218 570.31 482.077 577.644 481.704 579.419C481.283 581.194 478.902 579.466 483.198 588.434C487.494 597.403 507.853 618.938 509.767 621.32C511.775 623.749 525.877 638.417 525.877 638.417L536.477 630.429C536.477 630.429 516.071 600.393 513.083 596.002C510.141 591.564 508.787 590.91 510.561 588.995C512.289 587.033 519.293 587.08 555.201 572.179C558.797 570.684 568.79 567.227 570.144 562.416C572.525 553.68 570.471 542.656 560.805 537.798C551.186 532.893 531.48 550.738 531.48 550.738Z" fill="#2E3048"/>
<path d="M519.06 466.515C519.294 466.702 519.527 467.169 519.807 467.777C520.181 468.664 520.601 469.879 520.975 471.233C522.142 475.391 523.216 480.716 523.216 480.716C523.216 480.716 538.205 468.244 536.057 467.45C533.956 466.655 532.368 463.012 532.368 463.012C532.368 463.012 517.472 465.114 519.06 466.515Z" fill="#DBA585"/>
<path d="M531.901 546.02C531.901 546.02 504.864 552.373 498.187 554.521C491.509 556.67 480.022 560.407 476.894 562.182C475.26 563.116 472.738 564.518 469.75 574.281C466.341 585.351 458.589 616.508 456.815 621.367C455.694 624.403 452.519 636.408 452.519 636.408L466.341 638.79C466.341 638.79 482.777 605.671 484.132 596.843C486.373 581.988 492.116 581.895 494.451 580.54C496.786 579.185 507.993 581.708 547.87 578.531C551.839 578.204 562.766 578.018 565.568 573.72C570.657 565.966 575.794 557.137 567.902 549.336C560.011 541.535 531.901 546.02 531.901 546.02Z" fill="#2E3048"/>
<path d="M513.783 435.218C513.783 435.218 509.114 443.299 510.188 445.495C511.262 447.69 505.285 453.015 506.265 454.137C507.246 455.258 509.254 456.612 509.207 456.939C509.161 457.266 510.935 467.823 513.223 468.057C515.511 468.29 531.201 467.496 532.508 462.545C533.816 457.64 537.645 446.896 538.532 444.888C539.466 442.926 530.407 427.511 513.783 435.218Z" fill="#DBA585"/>
<path d="M533.115 433.677C534.423 434.658 535.497 435.685 536.337 436.713C537.364 437.18 543.435 440.216 542.174 443.486C540.493 447.877 533.629 459.602 533.022 460.863C532.928 461.003 532.928 460.723 533.022 460.069C532.602 455.912 527.512 451.287 527.512 451.287L524.804 450.073C526.204 447.41 525.644 444.981 525.644 444.981C522.562 441.664 512.336 438.114 512.336 438.114C513.737 423.4 526.251 428.538 533.115 433.677Z" fill="#E9734D"/>
<path d="M528.492 447.784C529.239 446.663 533.021 446.85 532.461 450.119C531.901 453.389 527.231 456.005 526.204 454.557C525.177 453.109 527.698 448.952 528.492 447.784Z" fill="#DBA585"/>
<path d="M536.057 467.403C536.057 467.403 555.015 478.474 559.311 497.766C563.607 517.058 571.312 550.971 571.452 554.988C571.452 554.988 545.769 542.656 531.901 546.02C531.901 546.02 523.169 514.582 518.546 507.108C513.923 499.681 520.788 482.211 520.788 482.211C520.788 482.211 527.325 471.794 536.057 467.403Z" fill="#F9DD69"/>
<path d="M605.212 476.045L589.943 520.888C589.849 521.215 589.756 521.589 589.756 521.963L586.114 580.914L522.235 582.315L503.604 650.095C503.043 652.15 503.417 654.345 504.631 656.074C505.425 657.242 506.592 658.223 508.226 658.456C512.289 658.97 594.332 658.456 594.332 658.456V655.046C594.332 653.364 592.931 651.963 591.203 651.963H514.53C513.269 651.963 512.055 651.403 511.262 650.422C510.795 649.861 510.468 649.114 510.608 648.32C510.935 646.171 527.325 590.91 527.325 590.91L589.102 589.836C591.904 589.789 594.192 587.594 594.332 584.838L596.994 521.402C596.994 520.982 597.087 520.608 597.18 520.188L609.648 477.306C609.648 477.306 610.955 474.316 608.527 474.036C606.099 473.849 605.492 475.297 605.212 476.045Z" fill="#5E5E5B"/>
<path d="M521.815 583.576C521.815 583.576 521.768 578.672 528.492 578.345C536.197 577.971 586.301 577.597 586.301 577.597L585.974 582.782L521.815 583.576Z" fill="#C59661"/>
<path d="M490.903 543.684V545.973H382.057V543.684C382.057 541.535 383.504 539.807 385.232 539.807H487.681C489.455 539.807 490.903 541.535 490.903 543.684Z" fill="#C59661"/>
<path d="M421.093 657.335H388.22V652.057H415.864C418.759 652.057 421.093 654.439 421.093 657.335Z" fill="#7B6F66"/>
<path d="M394.617 545.973H390.275V657.382H394.617V545.973Z" fill="#7B6F66"/>
<path d="M403.396 545.973H399.053V657.382H403.396V545.973Z" fill="#7B6F66"/>
<path d="M519.807 467.777C520.18 468.664 520.601 469.879 520.974 471.233C523.216 470.299 527.513 466.375 527.606 466.235C525.831 466.889 519.807 467.777 519.807 467.777Z" fill="#997761"/>
<path d="M444.721 545.973H366.927V543.684C366.927 541.535 368.748 539.807 370.99 539.807H432.487L444.721 545.973Z" fill="#CEAF8A"/>
<path d="M527.745 482.351C527.745 482.351 523.216 488.75 520.461 493.608C517.285 499.121 514.203 504.539 513.503 505.754C512.102 508.229 507.153 509.584 504.958 510.518C502.95 511.406 469.236 529.437 468.816 529.39C468.396 529.343 472.458 536.117 472.458 536.117C472.458 536.117 519.247 522.71 521.348 520.795C523.449 518.88 529.706 510.145 532.228 506.501C534.656 503.091 538.391 497.439 540.353 495.01C542.547 492.301 547.217 483.005 541.287 478.38C533.722 472.448 529.566 479.642 527.745 482.351Z" fill="#F9DD69"/>
<path d="M540.586 494.683C540.586 494.683 535.169 509.351 531.901 514.349C528.632 519.347 525.037 523.504 525.037 523.504L523.309 518.459C523.309 518.459 537.317 499.167 540.586 494.683Z" fill="#46688D"/>
<path d="M32.5443 633.558C32.5443 633.558 28.5285 643.835 26.3805 645.657C24.1859 647.432 19.1895 650.655 20.4502 652.243C21.711 653.785 30.5364 654.018 32.6377 653.084C34.7389 652.15 35.0658 648.74 37.9142 647.619C40.7159 646.545 38.6146 640.705 38.2877 638.603C37.9142 635.894 37.1671 635.474 37.1671 634.072C37.1671 632.671 32.5443 633.558 32.5443 633.558Z" fill="#E6D8D1"/>
<path d="M70.7875 630.896C70.7875 630.896 71.7681 635.007 72.2818 636.128C72.7487 637.202 76.0174 642.854 76.6711 643.555C77.2781 644.256 86.2903 648.179 85.1229 649.394C83.9555 650.655 82.4613 652.15 76.2975 650.702C70.1338 649.3 68.2193 644.536 63.4097 644.069C58.5534 643.602 60.001 638.276 61.9155 635.941C63.7833 633.605 65.7445 629.448 65.7445 629.448L70.7875 630.896Z" fill="#E6D8D1"/>
<path d="M94.1817 570.357C93.3412 575.869 76.9046 606.185 71.5814 632.531C71.5347 632.764 71.488 632.951 71.4413 633.091C68.4061 632.764 65.6044 631.83 63.8767 631.176C64.0168 627.299 67.6123 596.095 69.4801 590.303C71.4413 584.23 77.3248 571.291 77.0914 567.18C76.8579 563.023 74.1963 560.267 72.4219 558.258C71.3946 557.09 64.9507 547.701 59.6274 539.62C56.5922 534.996 53.9306 530.791 52.9033 528.876C52.6232 528.316 52.4364 527.942 52.4364 527.802C52.4364 526.307 29.1356 485.948 70.6008 492.581C70.6008 492.581 71.6747 499.401 71.9082 500.662C72.0483 501.503 75.5504 509.724 78.5389 517.572C80.1732 521.869 81.6675 526.027 82.3679 528.783C83.2084 532.053 84.656 537.051 86.1502 541.909C88.2048 548.636 90.3061 555.129 90.9598 556.436C91.9404 558.772 95.0223 564.845 94.1817 570.357Z" fill="#414D99"/>
<path d="M53.4171 526.774C53.4171 526.774 50.2418 540.508 48.4674 546.02C46.693 551.532 43.1442 563.583 43.0041 566.713C42.864 569.89 42.864 576.803 42.6305 579.606C42.397 582.408 42.6772 593.713 41.9301 599.458C41.183 605.204 38.2412 632.998 38.0077 634.773C38.0077 634.82 38.0077 634.866 37.961 634.913C35.206 635.38 32.8246 635.287 31.1435 635.147C31.1435 635.1 31.1435 635.1 31.1435 635.053C29.5092 627.392 27.7348 598.991 27.6414 594.414C27.5013 589.836 28.8088 579.419 28.3418 576.242C27.8749 573.066 23.5323 540.601 24.9331 527.475C26.334 514.349 30.8167 492.674 30.8167 492.674C30.8167 492.674 77.4183 475.905 53.4171 526.774Z" fill="#414D99"/>
<path d="M74.3364 505.053C74.2431 503.885 72.9823 495.664 71.955 490.385C70.881 485.107 70.0405 480.249 69.4335 478.147C69.3868 478.007 69.3401 477.773 69.2467 477.446C68.8731 475.905 68.0326 472.401 67.1454 469.131C67.0987 468.898 67.0053 468.664 66.9586 468.431V467.216C66.3516 464.974 67.2855 463.806 67.519 462.078C67.5657 461.564 67.5657 461.003 67.4256 460.303C67.4256 460.256 67.4256 460.256 67.4256 460.209C66.7252 457.173 66.2582 454.557 66.2582 453.109C66.2582 448.298 64.0168 425.128 64.0168 425.128C64.0168 425.128 71.3947 428.585 72.4686 433.77C73.5426 438.908 73.8228 450.306 73.9629 452.642C74.103 454.977 77.7452 472.588 78.1187 476.558C78.4923 480.529 79.0059 483.939 79.7998 486.648C80.6403 489.358 79.8932 503.044 80.1266 505.146C80.3134 507.342 74.4298 506.221 74.3364 505.053Z" fill="#DBA585"/>
<path d="M59.2072 404.388C59.2072 404.388 64.9974 387.431 53.9307 382.153C42.9106 376.875 33.5249 384.489 31.7505 388.599C29.9761 392.71 30.4431 400.184 31.9373 405.416C33.4316 410.647 33.2448 418.589 29.9294 421.251C26.6608 423.914 23.7657 429.706 21.1041 434.564C18.4425 439.469 44.7318 423.026 44.7318 423.026L59.2072 404.388Z" fill="#2E4254"/>
<path d="M49.3544 385.049C49.3544 385.049 60.8414 388.459 59.2071 404.388C57.5728 420.317 50.0549 419.523 49.3544 419.616C48.654 419.756 39.7353 420.317 36.9336 400.978C34.1319 381.686 49.3544 385.049 49.3544 385.049Z" fill="#DBA585"/>
<path d="M54.8178 422.279C54.8178 422.279 65.9779 425.175 67.0052 427.043C68.0792 428.912 68.1726 437.133 68.873 439.796C69.5734 442.505 71.1144 448.204 70.0404 450.586C68.9664 452.922 67.799 455.164 68.1726 456.799C68.5462 458.434 69.4801 463.012 68.6395 466.515C67.799 470.019 67.3321 477.306 68.4061 482.351C69.4801 487.396 70.5073 491.833 70.6474 492.674C70.7875 493.515 30.8633 492.674 30.8633 492.674C30.8633 492.674 34.0852 481.417 35.2526 478.847C36.42 476.278 34.1786 466.328 33.1513 463.946C32.0773 461.611 27.5479 452.128 27.5479 451.054C27.5479 451.054 22.7383 434.517 23.1586 433.957C23.5788 433.35 23.3454 430.921 27.9215 428.071C31.4703 425.876 41.8833 423.26 44.8251 422.793C47.7202 422.326 54.8178 422.279 54.8178 422.279Z" fill="#EB4746"/>
<path d="M54.818 416.72C54.818 416.72 54.3043 422.419 55.3316 425.689C56.3589 428.959 43.8446 428.819 42.8173 426.296C41.7901 423.774 43.2843 420.317 41.9301 415.085C40.576 409.807 54.818 416.72 54.818 416.72Z" fill="#DBA585"/>
<path d="M66.2119 436.293C66.2119 436.293 69.3871 440.403 70.6012 444.888C71.6752 448.905 70.7413 453.016 68.1731 456.145C68.1731 456.145 57.5266 455.631 53.791 455.678C50.0554 455.772 38.1948 457.033 31.6108 460.676C31.6108 460.676 26.6612 451.614 26.8013 450.353C26.9413 449.092 29.9765 440.637 34.7861 439.749C43.7049 438.021 49.6351 449.185 52.4368 448.905C55.2852 448.578 57.1997 437.507 66.2119 436.293Z" fill="#EB4746"/>
<path d="M46.4129 392.196C46.4129 392.196 52.6701 402.146 59.2074 404.435C59.2074 404.435 62.8029 387.758 48.0006 384.302C33.1982 380.798 35.533 401.118 36.607 406.537C36.607 406.49 39.6888 398.549 46.4129 392.196Z" fill="#2E4254"/>
<path d="M43.6577 417.374C43.6577 417.374 48.1871 422.092 54.024 417.888C54.024 417.888 53.5571 420.924 49.3545 421.298C45.1986 421.672 43.6577 417.374 43.6577 417.374Z" fill="#997761"/>
<path d="M59.6282 539.667C56.5927 535.042 53.9307 530.838 52.9033 528.923C52.9033 528.923 57.013 518.553 57.4333 514.536C57.8536 510.472 59.6282 539.667 59.6282 539.667Z" fill="#343D77"/>
<path d="M40.856 423.634C40.856 423.634 46.0391 432.556 51.7359 434.004C57.4327 435.452 57.2926 426.717 55.6116 422.512C55.6116 422.512 55.4248 422.045 49.8214 421.999C43.9845 421.858 40.856 423.634 40.856 423.634Z" fill="#DBA585"/>
<path d="M28.6218 488.937C25.7268 472.448 36.7468 456.706 53.2768 453.81C69.7602 450.914 85.4964 461.938 88.3915 478.474C91.2866 494.963 80.2665 510.705 63.7365 513.601C47.2532 516.451 31.5169 505.427 28.6218 488.937Z" fill="#E7B96B"/>
<path d="M65.5112 513.228L55.0515 453.529C70.8811 451.708 85.5901 462.545 88.3918 478.427C91.1935 494.356 81.0606 509.537 65.5112 513.228Z" fill="#E7B96B"/>
<path d="M28.6218 488.937C26.147 474.924 33.7116 461.517 46.1324 455.958L56.312 513.975C42.7704 512.994 31.0966 502.904 28.6218 488.937Z" fill="#E7B96B"/>
<path d="M35.4861 483.098C35.813 470.346 46.4128 460.303 59.1605 460.63C71.9082 460.957 81.9477 471.56 81.6208 484.313C81.2939 497.065 70.6942 507.108 57.9464 506.781C45.1987 506.408 35.1126 495.804 35.4861 483.098Z" fill="#E09637"/>
<path d="M67.0521 480.669C66.912 480.389 66.7252 480.062 66.3984 479.735C66.1182 479.361 65.7446 478.988 65.3244 478.614C64.9041 478.24 64.3905 477.866 63.8769 477.539C63.3165 477.212 62.7562 476.932 62.1491 476.699L60.1412 483.378L60.7016 483.705C61.7756 484.313 62.7562 484.967 63.55 485.574C64.3905 486.181 65.0442 486.835 65.5579 487.536C66.0715 488.237 66.3517 488.984 66.4918 489.825C66.6319 490.666 66.5385 491.6 66.2116 492.628C65.8847 493.749 65.3711 494.683 64.7174 495.384C64.0636 496.084 63.3165 496.551 62.4293 496.878C61.5421 497.205 60.6082 497.345 59.5342 497.345C58.5069 497.345 57.4329 497.159 56.3123 496.832L55.285 500.242L53.6039 499.728L54.6312 496.271C53.137 495.711 51.7361 494.963 50.4754 494.029C49.2146 493.095 48.1406 492.02 47.2534 490.759L49.8216 488.143C49.9617 488.47 50.2419 488.844 50.6155 489.311C50.989 489.731 51.4093 490.199 51.9229 490.666C52.4366 491.133 53.0436 491.553 53.6973 492.02C54.3511 492.441 55.0515 492.814 55.7986 493.141L57.8065 486.462C57.7131 486.368 57.573 486.321 57.4329 486.228C57.2929 486.135 57.1995 486.088 57.0594 485.994C56.0321 485.34 55.0982 484.733 54.3511 484.126C53.6039 483.519 52.9969 482.911 52.6233 482.257C52.2031 481.603 51.9696 480.949 51.8295 480.202C51.7361 479.501 51.8295 478.661 52.1097 477.773C52.4366 476.699 52.9035 475.858 53.5106 475.11C54.1176 474.41 54.8647 473.849 55.7052 473.475C56.5457 473.102 57.4796 472.868 58.4602 472.775C59.4408 472.728 60.5148 472.775 61.5888 473.055L62.5694 469.785L64.2504 470.299L63.2698 473.569C64.624 474.083 65.838 474.737 66.8653 475.578C67.8926 476.418 68.7798 477.306 69.4803 478.24L67.0521 480.669ZM56.1722 478.287C55.892 479.174 56.0321 479.969 56.499 480.622C57.0127 481.276 57.8532 481.977 59.0206 482.678L60.9351 476.325C59.6276 475.998 58.5536 475.998 57.7598 476.372C56.966 476.699 56.4056 477.353 56.1722 478.287ZM62.2425 491.787C62.5227 490.852 62.3826 490.012 61.7756 489.311C61.1685 488.61 60.2346 487.863 59.0206 487.069L57.1061 493.468C58.5069 493.842 59.6276 493.935 60.5148 493.655C61.402 493.375 61.9624 492.768 62.2425 491.787Z" fill="#EAC483"/>
<path d="M70.2741 511.639C83.0218 506.267 90.8666 492.628 88.3917 478.427C85.9169 464.226 73.8696 454.043 60.0479 453.343L70.2741 511.639Z" fill="#F7F7F7"/>
<path d="M56.3121 513.975L46.1326 455.958C48.3739 454.977 50.7554 454.23 53.2769 453.763C53.8839 453.67 54.491 453.576 55.0513 453.483L65.511 513.181C64.9507 513.321 64.3436 513.461 63.7366 513.555C61.2618 514.022 58.7402 514.115 56.3121 513.975Z" fill="#F7F7F7"/>
<path d="M26.0538 429.239C26.0538 429.239 21.8979 432.462 18.7227 438.301C15.5474 444.14 8.30967 454.464 6.90882 457.874C5.50797 461.284 0.838469 467.029 0.138043 471.42C-0.515687 475.718 1.21203 477.306 4.06043 479.174C6.86213 481.043 26.8476 487.209 26.8476 487.209C26.8476 487.209 30.3964 481.557 28.5753 481.183C25.3067 480.482 17.5553 475.671 16.2478 474.877C14.8003 474.036 11.2982 471 13.0259 469.598C14.8003 468.197 26.7075 450.727 29.1824 447.317C31.6572 443.907 36.0932 435.592 34.4589 431.388C32.7779 427.137 28.9489 427.651 26.0538 429.239Z" fill="#DBA585"/>
<path d="M24.5129 480.062C24.5129 480.062 25.4468 480.576 26.334 480.436C27.8282 480.155 29.2291 478.38 31.0502 479.501C32.8713 480.622 30.6766 487.022 29.6493 487.91C28.5753 488.797 25.6802 488.003 22.1781 485.2C18.676 482.397 24.5129 480.062 24.5129 480.062Z" fill="#DBA585"/>
<path d="M30.3499 479.174C30.3499 479.174 33.5719 479.642 37.0273 480.576C40.1092 481.417 43.4712 482.911 43.5646 483.565C43.658 484.266 40.3427 483.192 37.2608 482.538C34.4124 481.977 34.8794 482.538 34.8794 482.538C34.8794 482.538 34.7393 482.351 37.7278 483.565C40.9497 484.873 44.0783 486.462 44.0783 487.256C44.0783 487.629 43.8448 487.769 42.6307 487.489C43.3312 487.816 43.3312 488.003 43.1911 488.283C42.6307 489.731 37.5877 488.517 35.5798 488.05C37.1207 488.423 38.1947 488.844 37.2141 489.545C36.0934 490.292 29.0892 488.33 26.521 487.816C23.7193 487.302 30.3499 479.174 30.3499 479.174Z" fill="#DBA585"/>
<path d="M83.4888 472.214C83.4888 472.214 88.1122 471.14 89.6066 473.382C91.101 475.624 91.1477 478.474 90.7741 479.828C90.4005 481.136 89.1863 484.593 87.6452 483.892C82.6015 481.603 83.4888 472.214 83.4888 472.214Z" fill="#DBA585"/>
<path d="M88.0657 472.262C88.0657 472.262 87.4118 469.131 86.1506 469.645C84.8894 470.159 86.0105 472.262 86.0105 472.262H88.0657Z" fill="#DBA585"/>
<path d="M27.9682 488.19C27.1277 491.647 26.6141 491.693 26.3806 491.693C26.007 491.693 25.8203 491.133 25.6802 490.712C25.4 489.685 25.3066 488.47 25.3066 487.256C25.3066 484.173 26.007 480.949 26.1004 480.436C26.1004 480.389 26.1004 480.295 26.1471 480.295L26.3339 480.342L26.5207 480.389C26.5207 480.436 25.6802 484.126 25.6802 487.489C25.6802 488.61 25.7736 489.731 26.0537 490.666C26.2405 491.32 26.3806 491.32 26.3806 491.32C26.4273 491.32 26.5674 491.273 26.8008 490.666C26.9876 490.199 27.2678 489.451 27.5946 488.143C27.7347 488.143 27.8748 488.19 27.9682 488.19Z" fill="#2D374B"/>
<path d="M326.49 640.939C326.49 640.939 328.591 644.816 329.945 646.404C331.299 647.946 336.529 650.702 336.576 655.326C336.622 660.325 327.75 658.923 324.295 658.736C320.84 658.549 320.559 655.887 319.112 653.084C317.664 650.281 316.17 650.749 315.937 648.46C315.656 646.171 317.337 640.986 317.337 640.986H326.49V640.939Z" fill="#26283A"/>
<path d="M273.864 640.472C273.864 640.472 269.615 645.236 265.272 646.217C260.93 647.198 257.941 648.506 257.895 651.216C257.848 653.925 270.362 655.747 275.312 652.991C282.69 648.88 283.437 650.141 284.277 648.086C285.118 646.031 283.297 640.518 283.343 639.865C283.39 639.07 273.864 640.472 273.864 640.472Z" fill="#26283A"/>
<path d="M274.331 638.183C274.331 638.183 273.771 640.425 273.864 640.472C273.958 640.519 283.624 641.686 283.297 639.865C283.063 638.416 282.736 636.828 282.736 636.828L274.331 638.183Z" fill="#807F7D"/>
<path d="M317.431 639.444C317.431 639.444 317.01 641.593 317.104 641.64C317.197 641.686 326.91 643.415 326.863 641.64C326.816 640.238 325.976 638.603 325.976 638.603L317.431 639.444Z" fill="#807F7D"/>
<path d="M283.11 504.773C283.11 504.773 279.608 538.919 277.787 550.597C275.639 564.284 274.938 575.542 274.331 582.642C273.584 591.517 273.444 635.287 272.93 637.903C272.417 640.519 284.557 638.603 284.557 638.603C284.557 638.603 290.534 581.428 292.776 571.945C294.877 563.116 302.582 525.139 304.45 527.568C306.364 529.997 308.699 571.898 310.1 578.858C311.5 585.819 315.796 640.285 315.796 640.285C315.796 640.285 325.462 642.2 328.031 640.051C328.031 640.051 329.198 593.106 328.311 580.073C327.984 575.121 334.148 520.468 326.209 498.467C322.054 486.789 283.11 504.773 283.11 504.773Z" fill="#2E3048"/>
<path d="M314.676 497.205C314.676 497.205 312.341 493.655 309.866 493.188C307.391 492.721 344.047 474.97 343.954 468.664C343.86 463.526 331.112 454.043 331.112 454.043V453.95C330.832 454.977 326.676 470.159 326.536 476.932C326.396 483.939 326.957 508.136 326.957 508.136L317.524 510.612L287.499 510.892L280.635 508.089C280.635 508.089 281.382 500.335 281.662 494.87C281.849 491.413 282.503 485.2 282.316 479.128C282.316 479.128 282.41 472.728 281.803 470.019C281.756 457.92 281.009 445.915 281.009 445.915C280.588 440.403 280.308 435.265 280.168 430.5C281.476 429.8 283.063 428.959 284.371 428.351C288.34 426.483 293.803 423.961 297.352 422.326C299.407 421.391 301.461 420.691 301.461 420.691C301.461 420.691 315.563 419.336 316.684 419.429C317.057 419.429 318.785 420.083 321.12 420.924C326.116 422.839 335.735 426.67 337.276 427.791C339.518 429.426 354.273 468.384 354.46 471.093C354.88 475.905 314.676 497.205 314.676 497.205Z" fill="#D8D6E1"/>
<path d="M281.569 505.52C281.569 505.52 302.208 507.295 320.279 505.52V511.453C320.279 511.453 293.383 514.022 280.682 510.331L281.569 505.52Z" fill="#232536"/>
<path d="M279.841 430.407C279.981 435.265 280.215 440.497 280.635 446.102C280.635 446.102 281.008 459.789 281.802 472.728C282.082 474.597 282.223 476.465 282.036 478.427C281.849 480.949 281.569 483.752 281.242 486.602C281.242 486.648 281.242 486.695 281.242 486.695C281.149 487.396 281.102 488.05 281.008 488.75C281.008 488.75 281.008 488.75 281.008 488.797C279.234 503.231 276.292 519.814 274.751 524.812C274.424 525.84 275.545 526.821 276.339 527.568L281.989 531.118C281.989 531.118 284.324 509.677 285.071 502.437C285.818 495.43 288.153 485.994 289.18 476.839C290.488 465.207 292.262 453.81 293.243 447.036C295.764 429.426 299.126 421.531 299.126 421.531C297.538 422.045 279.841 430.407 279.841 430.407Z" fill="#3B4044"/>
<path d="M339.751 466.889C342.179 472.261 317.291 481.837 317.851 483.145C319.205 486.321 324.715 492.814 324.715 492.814C324.715 492.814 357.495 476.605 357.122 472.915C356.841 470.252 341.479 429.753 339.237 428.118C337.93 427.184 328.311 423.774 323.595 421.905C322.754 421.578 319.766 420.457 319.018 420.177C318.038 421.298 311.127 428.912 308.652 457.733C308.232 462.592 309.539 472.868 310.427 481.276C311.36 490.245 312.388 497.205 313.135 504.726C314.629 519.487 315.656 531.212 315.656 531.212L330.319 524.672C332.7 523.504 336.809 520.375 335.922 517.899C332.513 508.37 327.424 490.385 327.424 482.024C327.424 482.024 329.805 458.995 331.112 454.51C331.066 454.464 336.996 460.863 339.751 466.889Z" fill="#3B4044"/>
<path d="M315.376 420.924C315.376 420.924 315.47 416.066 317.337 406.303C317.851 403.687 302.115 413.217 302.115 413.217C302.115 413.217 302.161 414.151 302.208 415.365C302.208 416.019 302.255 416.767 302.255 417.514C302.255 417.794 302.255 418.028 302.255 418.308C302.255 419.009 302.208 419.663 302.161 420.224C302.115 420.784 301.741 421.812 301.648 422.092C300.901 423.54 310.053 424.708 315.376 420.924Z" fill="#DBA686"/>
<path d="M305.57 425.969L302.955 429.473C302.955 429.473 304.496 431.528 307.204 429.986L305.57 425.969Z" fill="#2E3048"/>
<path d="M303.656 429.613C303.656 429.613 293.756 467.683 295.811 497.299L299.126 503.138L302.255 497.019C302.255 497.019 303.095 444.047 305.804 429.519L303.656 429.613Z" fill="#2E3048"/>
<path d="M302.769 422.699L305.57 425.969C305.57 425.969 310.053 425.082 311.36 422.746C312.668 420.41 302.769 422.699 302.769 422.699Z" fill="#DBA686"/>
<path d="M302.115 419.85C302.115 419.85 302.442 422.326 305.523 425.969L302.115 430.5L300.294 421.064L302.115 419.85Z" fill="#C1BFC9"/>
<path d="M315.656 417.094C315.656 417.094 310.053 424.194 305.57 425.969L307.672 431.154L317.291 419.523L315.656 417.094Z" fill="#C1BFC9"/>
<path d="M222.406 469.739C222.406 469.739 212.04 470.953 211.48 471.607C210.919 472.261 211.013 472.822 211.993 472.775C212.974 472.681 222.033 471.887 222.033 471.887C222.033 471.887 210.172 475.391 209.565 475.811C209.192 476.045 209.425 477.166 209.939 477.166C210.452 477.166 222.453 474.41 222.453 474.41C222.453 474.41 211.386 477.726 211.013 478.24C210.686 478.707 211.106 479.688 211.947 479.501C212.787 479.315 223.294 476.839 223.294 476.839C223.294 476.839 215.402 479.735 215.355 480.389C215.309 480.763 215.449 481.744 217.457 480.903C219.465 480.109 224.414 478.661 224.414 478.661L222.406 469.739Z" fill="#DBA585"/>
<path d="M234.641 470.206C234.641 470.206 231.185 470.392 230.158 468.664C229.271 467.169 227.076 465.815 226.422 465.441C225.535 464.88 223.34 462.218 222.687 463.292C222.033 464.367 226.095 467.87 226.843 468.758C227.543 469.645 222.593 469.318 221.706 469.972C220.819 470.626 221.286 478.847 224.695 478.661C228.103 478.474 231.465 476.045 232.072 476.138C232.679 476.232 234.547 476.138 234.547 476.138L234.641 470.206Z" fill="#DBA585"/>
<path d="M233.193 478.334C233.193 478.334 258.595 474.783 264.199 473.382C266.813 472.728 270.222 469.131 273.491 464.927C274.565 463.526 275.639 462.078 276.619 460.63C280.635 454.837 283.764 449.325 283.764 449.325C283.764 449.325 295.578 435.452 286.099 429.286C286.099 429.286 282.036 429.192 279.795 430.407C277.507 431.668 272.604 441.851 271.763 443.673C270.923 445.495 261.957 462.265 261.35 462.638C260.743 463.012 251.778 464.974 247.762 465.815C241.972 467.029 231.092 469.271 231.092 469.271L233.193 478.334Z" fill="#3B4044"/>
<path d="M296.764 513.178H306.43V505.844H296.764V513.178Z" fill="#3E4265"/>
<path d="M312.902 497.626C312.902 497.626 314.116 497.579 314.629 497.299C314.629 497.299 315.516 496.738 316.17 496.365C316.404 496.224 316.544 496.131 316.684 496.084C317.198 495.851 318.458 495.57 319.579 494.73C320.7 493.889 324.389 490.432 324.389 490.432L322.007 486.789L320.886 483.145C320.886 483.145 312.295 483.986 311.174 484.686C311.08 484.733 310.94 484.827 310.847 484.92C309.913 485.574 309.54 486.461 309.073 486.882C308.933 487.022 307.438 488.657 307.485 489.264C307.578 490.152 308.045 490.759 308.606 491.039C308.606 491.039 308.886 492.814 309.82 493.562C309.82 493.562 310.053 495.197 311.454 495.851C311.501 495.804 311.921 497.439 312.902 497.626Z" fill="#DCA787"/>
<path d="M324.669 492.768C324.669 492.768 319.906 488.844 317.291 483.098L332 475.11L337.416 486.181L324.669 492.768Z" fill="#70A9ED"/>
<path d="M293.85 389.066C293.85 389.066 290.395 395.466 292.122 396.447C293.523 397.288 290.488 403.547 290.068 404.575C289.647 405.603 292.636 406.35 293.243 407.004C293.897 407.658 295.718 415.786 298.193 416.019C300.621 416.253 311.641 412.423 314.629 409.34C317.618 406.21 320.093 392.149 318.085 386.217C316.03 380.331 299.92 377.902 293.85 389.066Z" fill="#DBA585"/>
<path d="M293.15 390.468C293.15 390.468 289.647 383.554 296.045 378.416C302.442 373.278 314.256 382.293 315.563 382.62C316.871 382.947 324.435 383.461 320.653 396.727C317.384 408.125 316.917 408.592 316.917 408.592C316.917 408.592 314.489 402.006 313.088 400.978C310.94 399.39 306.177 399.764 306.177 399.764C306.177 399.764 308.419 393.784 304.917 392.897C301.368 392.103 296.698 389.113 293.15 390.468Z" fill="#1F2531"/>
<path d="M309.913 396.4C310.24 395.559 311.22 392.056 314.255 394.111C317.29 396.167 312.387 402.847 311.827 402.94C311.314 403.033 307.298 403.314 309.913 396.4Z" fill="#DBA585"/>
<path d="M302.208 417.467C302.208 417.748 302.208 417.981 302.208 418.262C311.173 415.225 312.948 410.694 312.948 410.694C310.146 412.656 302.208 415.319 302.208 415.319C302.208 415.973 302.208 416.72 302.208 417.467Z" fill="#997761"/>
</svg>
