<svg width="11" height="10" viewBox="0 0 11 10" fill="none" xmlns="http://www.w3.org/2000/svg">
<path fill-rule="evenodd" clip-rule="evenodd" d="M8.491 4.33712L5.63091 1.47915C5.36424 1.21268 5.36424 0.792998 5.63024 0.533188C5.89024 0.266718 6.31024 0.266718 6.57691 0.532518L10.5769 4.52956C10.7442 4.69244 10.8039 4.92703 10.7559 5.14282C10.7216 5.30192 10.63 5.44039 10.504 5.53537L6.57037 9.4661C6.4437 9.586 6.27037 9.6593 6.09703 9.6593L6.1037 9.6666C5.9237 9.6666 5.75037 9.5933 5.63037 9.4734C5.3637 9.2136 5.3637 8.7872 5.6237 8.5274V8.5208L8.4771 5.66947H0.770674C0.397344 5.66947 0.104004 5.36969 0.104004 5.0033C0.104004 4.63024 0.397344 4.33712 0.770674 4.33712H8.491Z" fill="#050D18"/>
</svg>
