<svg width="115" height="39" viewBox="0 0 115 39" fill="none" xmlns="http://www.w3.org/2000/svg">
<path d="M39.5245 24.2245V15.3042H41.3799C42.7724 15.3042 43.9587 14.751 44.9389 13.6446C45.9191 12.5382 46.4092 11.207 46.4092 9.65115V6.21525C46.4092 4.59887 45.9775 3.26773 45.114 2.22183C44.1882 1.12407 42.9435 0.575195 41.3799 0.575195H36.3271V24.2245H39.5245ZM41.4615 11.7775H39.5245V4.21854H41.4615C42.0217 4.21854 42.467 4.40654 42.7977 4.78255C43.1283 5.15855 43.2936 5.65773 43.2936 6.28008V9.72894C43.2936 10.2908 43.1166 10.7727 42.7626 11.1746C42.4087 11.5765 41.975 11.7775 41.4615 11.7775ZM51.5062 24.2245L52.288 18.7919H55.637L56.3955 24.2245H59.7562L56.1971 0.575195H51.7746L48.1688 24.2245H51.5062ZM55.1586 15.3171H52.7781L53.9683 5.99483L55.1586 15.3171ZM66.9186 24.2245V15.3042H68.7739C70.1665 15.3042 71.3528 14.751 72.333 13.6446C73.3132 12.5382 73.8033 11.207 73.8033 9.65115V6.21525C73.8033 4.59887 73.3716 3.26773 72.508 2.22183C71.5823 1.12407 70.3376 0.575195 68.7739 0.575195H63.7212V24.2245H66.9186ZM68.8556 11.7775H66.9186V4.21854H68.8556C69.4157 4.21854 69.8611 4.40654 70.1917 4.78255C70.5224 5.15855 70.6877 5.65773 70.6877 6.28008V9.72894C70.6877 10.2908 70.5107 10.7727 70.1567 11.1746C69.8028 11.5765 69.3691 11.7775 68.8556 11.7775ZM86.7535 24.2245V20.659H80.8256V14.1891H85.1549V10.6106H80.8256V4.14075H86.7535V0.575195H77.6283V24.2245H86.7535ZM93.4258 24.2245V15.3042H95.2695C95.3706 15.3042 95.4679 15.2998 95.5612 15.2912L97.5216 24.2245H100.987L98.6069 13.8909C99.7504 12.7413 100.322 11.328 100.322 9.65115V6.21525C100.322 4.51243 99.9527 3.18129 99.2137 2.22183C98.3813 1.12407 97.0704 0.575195 95.2812 0.575195H90.2285V24.2245H93.4258ZM95.3629 11.7775H93.4258V4.21854H95.3629C96.5842 4.21854 97.1949 4.90572 97.1949 6.28008V9.72894C97.1949 10.2908 97.0179 10.7727 96.664 11.1746C96.31 11.5765 95.8763 11.7775 95.3629 11.7775ZM114.171 24.2245V20.6849H108.266L114.171 4.14075V0.575195H104.812V4.14075H110.729L104.812 20.6849V24.2245H114.171Z" fill="#12141D"/>
<path d="M38.6964 36.3368V35.8169H36.3795V30.618H35.8135V36.3368H38.6964ZM40.8321 36.471C41.2044 36.471 41.5264 36.3885 41.7981 36.2236C42.0698 36.0587 42.2887 35.8309 42.4547 35.5402L42.0472 35.2383C41.9264 35.4619 41.7667 35.6366 41.5679 35.7624C41.3692 35.8882 41.1189 35.9511 40.817 35.9511C40.4447 35.9511 40.1504 35.8085 39.934 35.5234C39.7177 35.2383 39.5995 34.8945 39.5793 34.492H42.4849C42.4899 34.4361 42.4924 34.3551 42.4924 34.2488C42.4924 33.8799 42.4195 33.5459 42.2736 33.2468C42.1277 32.9477 41.9264 32.7115 41.6698 32.5382C41.4132 32.3649 41.1264 32.2783 40.8095 32.2783C40.4724 32.2783 40.1718 32.3677 39.9076 32.5466C39.6435 32.7255 39.4372 32.9743 39.2888 33.2929C39.1404 33.6116 39.0662 33.9721 39.0662 34.3746C39.0662 34.7771 39.1416 35.1377 39.2926 35.4563C39.4435 35.775 39.6523 36.0237 39.9189 36.2026C40.1856 36.3815 40.49 36.471 40.8321 36.471ZM41.9792 34.0224H39.6095C39.6649 33.6702 39.7969 33.3782 40.0057 33.1462C40.2145 32.9142 40.4824 32.7982 40.8095 32.7982C41.1466 32.7982 41.4132 32.9002 41.6094 33.1042C41.8057 33.3083 41.9289 33.6143 41.9792 34.0224ZM44.7866 36.471C45.0382 36.471 45.2696 36.4081 45.481 36.2823C45.6923 36.1565 45.8709 35.9818 46.0168 35.7582V36.3368H46.53V32.4124H46.0168V32.9994C45.8709 32.7702 45.691 32.5927 45.4772 32.467C45.2634 32.3412 45.0281 32.2783 44.7716 32.2783C44.4345 32.2783 44.1339 32.3677 43.8697 32.5466C43.6056 32.7255 43.3993 32.9729 43.2509 33.2887C43.1025 33.6046 43.0282 33.9637 43.0282 34.3662C43.0282 34.7743 43.1037 35.1377 43.2546 35.4563C43.4056 35.775 43.6144 36.0237 43.881 36.2026C44.1477 36.3815 44.4496 36.471 44.7866 36.471ZM44.7716 35.9511C44.5351 35.9511 44.3238 35.884 44.1376 35.7498C43.9515 35.6157 43.8056 35.4284 43.6999 35.188C43.5943 34.9476 43.5414 34.6737 43.5414 34.3662C43.5414 34.0644 43.5943 33.7946 43.6999 33.557C43.8056 33.3195 43.9515 33.1336 44.1376 32.9994C44.3238 32.8653 44.5351 32.7982 44.7716 32.7982C45.0131 32.7982 45.2281 32.8653 45.4168 32.9994C45.6055 33.1336 45.7526 33.3209 45.8583 33.5612C45.964 33.8016 46.0168 34.0727 46.0168 34.3746C46.0168 34.6765 45.964 34.9476 45.8583 35.188C45.7526 35.4284 45.6055 35.6157 45.4168 35.7498C45.2281 35.884 45.0131 35.9511 44.7716 35.9511ZM49.0204 36.471C49.272 36.471 49.5034 36.4081 49.7147 36.2823C49.926 36.1565 50.1046 35.9818 50.2506 35.7582V36.3368H50.7637V30.249H50.2506V32.9994C50.1046 32.7702 49.9248 32.5927 49.711 32.467C49.4971 32.3412 49.2619 32.2783 49.0053 32.2783C48.6682 32.2783 48.3676 32.3677 48.1035 32.5466C47.8393 32.7255 47.6331 32.9729 47.4846 33.2887C47.3362 33.6046 47.262 33.9637 47.262 34.3662C47.262 34.7743 47.3375 35.1377 47.4884 35.4563C47.6393 35.775 47.8481 36.0237 48.1148 36.2026C48.3815 36.3815 48.6833 36.471 49.0204 36.471ZM49.0053 35.9511C48.7689 35.9511 48.5575 35.884 48.3714 35.7498C48.1852 35.6157 48.0393 35.4284 47.9337 35.188C47.828 34.9476 47.7752 34.6737 47.7752 34.3662C47.7752 34.0644 47.828 33.7946 47.9337 33.557C48.0393 33.3195 48.1852 33.1336 48.3714 32.9994C48.5575 32.8653 48.7689 32.7982 49.0053 32.7982C49.2468 32.7982 49.4619 32.8653 49.6506 32.9994C49.8392 33.1336 49.9864 33.3209 50.0921 33.5612C50.1977 33.8016 50.2506 34.0727 50.2506 34.3746C50.2506 34.6765 50.1977 34.9476 50.0921 35.188C49.9864 35.4284 49.8392 35.6157 49.6506 35.7498C49.4619 35.884 49.2468 35.9511 49.0053 35.9511ZM52.2505 31.6494C52.3611 31.6494 52.4567 31.6047 52.5372 31.5152C52.6177 31.4258 52.658 31.3196 52.658 31.1966C52.658 31.068 52.6177 30.9604 52.5372 30.8737C52.4567 30.7871 52.3611 30.7438 52.2505 30.7438C52.1347 30.7438 52.0379 30.7871 51.9599 30.8737C51.8819 30.9604 51.8429 31.0652 51.8429 31.1882C51.8429 31.3168 51.8819 31.4258 51.9599 31.5152C52.0379 31.6047 52.1347 31.6494 52.2505 31.6494ZM52.507 36.3368V32.4124H51.9939V36.3368H52.507ZM54.2504 36.3368V34.3746C54.2504 33.8939 54.3409 33.5109 54.5221 33.2258C54.7032 32.9407 54.9749 32.7982 55.3371 32.7982C55.961 32.7982 56.2729 33.1867 56.2729 33.9637V36.3368H56.7861V33.7122C56.7861 33.4159 56.7245 33.1587 56.6012 32.9407C56.4779 32.7227 56.3119 32.5578 56.1031 32.446C55.8943 32.3342 55.6667 32.2783 55.4201 32.2783C55.1585 32.2783 54.9283 32.3468 54.7296 32.4837C54.5309 32.6207 54.3711 32.8149 54.2504 33.0665V32.4124H53.7372V36.3368H54.2504ZM59.5181 38.0139C59.8199 38.0139 60.0891 37.9356 60.3256 37.7791C60.562 37.6226 60.7457 37.4059 60.8765 37.1292C61.0073 36.8525 61.0727 36.538 61.0727 36.1859V32.4124H60.5595V32.9994C60.4136 32.7702 60.2337 32.5927 60.0199 32.467C59.8061 32.3412 59.5709 32.2783 59.3143 32.2783C58.9772 32.2783 58.6766 32.3677 58.4124 32.5466C58.1483 32.7255 57.942 32.9729 57.7936 33.2887C57.6452 33.6046 57.571 33.9637 57.571 34.3662C57.571 34.7743 57.6464 35.1377 57.7974 35.4563C57.9483 35.775 58.1571 36.0237 58.4238 36.2026C58.6904 36.3815 58.9923 36.471 59.3294 36.471C59.5809 36.471 59.8124 36.4081 60.0237 36.2823C60.235 36.1565 60.4136 35.9818 60.5595 35.7582V36.1859C60.5595 36.566 60.4627 36.879 60.269 37.125C60.0753 37.371 59.825 37.494 59.5181 37.494H58.054V38.0139H59.5181ZM59.3143 35.9511C59.0778 35.9511 58.8665 35.884 58.6804 35.7498C58.4942 35.6157 58.3483 35.4284 58.2426 35.188C58.137 34.9476 58.0842 34.6737 58.0842 34.3662C58.0842 34.0644 58.137 33.7946 58.2426 33.557C58.3483 33.3195 58.4942 33.1336 58.6804 32.9994C58.8665 32.8653 59.0778 32.7982 59.3143 32.7982C59.5558 32.7982 59.7709 32.8653 59.9595 32.9994C60.1482 33.1336 60.2954 33.3209 60.401 33.5612C60.5067 33.8016 60.5595 34.0727 60.5595 34.3746C60.5595 34.6765 60.5067 34.9476 60.401 35.188C60.2954 35.4284 60.1482 35.6157 59.9595 35.7498C59.7709 35.884 59.5558 35.9511 59.3143 35.9511ZM64.4008 36.3368V34.1482H65.4951C65.9731 34.1482 66.3567 33.9917 66.646 33.6786C66.9353 33.3656 67.08 32.9351 67.08 32.3873C67.08 31.8339 66.9416 31.4006 66.6649 31.0876C66.3882 30.7745 66.0184 30.618 65.5555 30.618H63.8348V36.3368H64.4008ZM65.48 33.6283H64.4008V31.1379H65.48C65.8171 31.1379 66.0737 31.2441 66.2498 31.4565C66.4259 31.6689 66.514 31.9792 66.514 32.3873C66.514 32.7954 66.4259 33.1042 66.2498 33.3139C66.0737 33.5235 65.8171 33.6283 65.48 33.6283ZM69.2836 36.471C69.5352 36.471 69.7666 36.4081 69.9779 36.2823C70.1893 36.1565 70.3679 35.9818 70.5138 35.7582V36.3368H71.027V32.4124H70.5138V32.9994C70.3679 32.7702 70.188 32.5927 69.9742 32.467C69.7603 32.3412 69.5251 32.2783 69.2685 32.2783C68.9315 32.2783 68.6308 32.3677 68.3667 32.5466C68.1026 32.7255 67.8963 32.9729 67.7479 33.2887C67.5994 33.6046 67.5252 33.9637 67.5252 34.3662C67.5252 34.7743 67.6007 35.1377 67.7516 35.4563C67.9026 35.775 68.1114 36.0237 68.378 36.2026C68.6447 36.3815 68.9465 36.471 69.2836 36.471ZM69.2685 35.9511C69.0321 35.9511 68.8208 35.884 68.6346 35.7498C68.4485 35.6157 68.3026 35.4284 68.1969 35.188C68.0912 34.9476 68.0384 34.6737 68.0384 34.3662C68.0384 34.0644 68.0912 33.7946 68.1969 33.557C68.3026 33.3195 68.4485 33.1336 68.6346 32.9994C68.8208 32.8653 69.0321 32.7982 69.2685 32.7982C69.51 32.7982 69.7251 32.8653 69.9138 32.9994C70.1025 33.1336 70.2496 33.3209 70.3553 33.5612C70.4609 33.8016 70.5138 34.0727 70.5138 34.3746C70.5138 34.6765 70.4609 34.9476 70.3553 35.188C70.2496 35.4284 70.1025 35.6157 69.9138 35.7498C69.7251 35.884 69.51 35.9511 69.2685 35.9511ZM72.4986 38.0139V35.7498C72.6445 35.979 72.8244 36.1565 73.0382 36.2823C73.252 36.4081 73.4872 36.471 73.7438 36.471C74.0809 36.471 74.3815 36.3815 74.6457 36.2026C74.9098 36.0237 75.1161 35.7764 75.2645 35.4605C75.4129 35.1447 75.4871 34.7855 75.4871 34.383C75.4871 33.9749 75.4117 33.6116 75.2607 33.2929C75.1098 32.9743 74.901 32.7255 74.6343 32.5466C74.3677 32.3677 74.0658 32.2783 73.7287 32.2783C73.4772 32.2783 73.2457 32.3412 73.0344 32.467C72.8231 32.5927 72.6445 32.7674 72.4986 32.991V32.4124H71.9854V38.0139H72.4986ZM73.7438 35.9511C73.5023 35.9511 73.2872 35.884 73.0986 35.7498C72.9099 35.6157 72.7627 35.4284 72.6571 35.188C72.5514 34.9476 72.4986 34.6765 72.4986 34.3746C72.4986 34.0727 72.5514 33.8016 72.6571 33.5612C72.7627 33.3209 72.9099 33.1336 73.0986 32.9994C73.2872 32.8653 73.5023 32.7982 73.7438 32.7982C73.9803 32.7982 74.1916 32.8653 74.3777 32.9994C74.5639 33.1336 74.7098 33.3209 74.8155 33.5612C74.9211 33.8016 74.9739 34.0755 74.9739 34.383C74.9739 34.6849 74.9211 34.9546 74.8155 35.1922C74.7098 35.4298 74.5639 35.6157 74.3777 35.7498C74.1916 35.884 73.9803 35.9511 73.7438 35.9511ZM77.7587 36.471C78.131 36.471 78.453 36.3885 78.7247 36.2236C78.9964 36.0587 79.2153 35.8309 79.3813 35.5402L78.9738 35.2383C78.853 35.4619 78.6933 35.6366 78.4945 35.7624C78.2958 35.8882 78.0455 35.9511 77.7436 35.9511C77.3713 35.9511 77.077 35.8085 76.8607 35.5234C76.6443 35.2383 76.5261 34.8945 76.5059 34.492H79.4115C79.4165 34.4361 79.419 34.3551 79.419 34.2488C79.419 33.8799 79.3461 33.5459 79.2002 33.2468C79.0543 32.9477 78.853 32.7115 78.5964 32.5382C78.3398 32.3649 78.053 32.2783 77.7361 32.2783C77.399 32.2783 77.0984 32.3677 76.8342 32.5466C76.5701 32.7255 76.3638 32.9743 76.2154 33.2929C76.067 33.6116 75.9928 33.9721 75.9928 34.3746C75.9928 34.7771 76.0682 35.1377 76.2192 35.4563C76.3701 35.775 76.5789 36.0237 76.8456 36.2026C77.1122 36.3815 77.4166 36.471 77.7587 36.471ZM78.9058 34.0224H76.5361C76.5915 33.6702 76.7235 33.3782 76.9323 33.1462C77.1411 32.9142 77.4091 32.7982 77.7361 32.7982C78.0732 32.7982 78.3398 32.9002 78.536 33.1042C78.7323 33.3083 78.8555 33.6143 78.9058 34.0224ZM80.6869 36.3368V34.4585C80.6869 34.1119 80.7435 33.8114 80.8567 33.557C80.9699 33.3027 81.1196 33.1084 81.3057 32.9743C81.4919 32.8401 81.6931 32.773 81.9095 32.773C82.0353 32.773 82.151 32.801 82.2566 32.8569V32.337C82.1459 32.2978 82.0302 32.2783 81.9095 32.2783C81.6479 32.2783 81.4126 32.3593 81.2038 32.5215C80.995 32.6836 80.8227 32.91 80.6869 33.2007V32.4124H80.1737V36.3368H80.6869ZM86.4527 36.471C86.8652 36.471 87.2212 36.3564 87.5205 36.1272C87.8199 35.898 88.0601 35.5653 88.2413 35.1293L87.7658 34.8107C87.5947 35.1852 87.4099 35.4605 87.2111 35.6366C87.0124 35.8127 86.7344 35.9008 86.3772 35.9008C86.0904 35.9008 85.8389 35.8043 85.6225 35.6115C85.4062 35.4186 85.2401 35.1405 85.1244 34.7771C85.0087 34.4138 84.9508 33.9833 84.9508 33.4858C84.9508 32.7255 85.0779 32.1315 85.332 31.7039C85.586 31.2762 85.937 31.0624 86.3847 31.0624C86.6967 31.0624 86.9608 31.1337 87.1772 31.2762C87.3935 31.4188 87.5822 31.655 87.7432 31.9848L88.196 31.6913C88.0249 31.3112 87.7872 31.0163 87.4828 30.8066C87.1784 30.597 86.8124 30.4922 86.3847 30.4922C85.9671 30.4922 85.6062 30.611 85.3018 30.8486C84.9974 31.0862 84.7634 31.43 84.5999 31.88C84.4364 32.33 84.3546 32.8681 84.3546 33.4942C84.3546 34.1147 84.4389 34.6471 84.6075 35.0916C84.776 35.536 85.0175 35.877 85.332 36.1146C85.6464 36.3522 86.02 36.471 86.4527 36.471ZM90.5204 36.471C90.8575 36.471 91.1581 36.3815 91.4222 36.2026C91.6864 36.0237 91.8927 35.775 92.0411 35.4563C92.1895 35.1377 92.2637 34.7771 92.2637 34.3746C92.2637 33.9721 92.1882 33.6116 92.0373 33.2929C91.8864 32.9743 91.6776 32.7255 91.4109 32.5466C91.1443 32.3677 90.8424 32.2783 90.5053 32.2783C90.1682 32.2783 89.8676 32.3677 89.6035 32.5466C89.3393 32.7255 89.133 32.9729 88.9846 33.2887C88.8362 33.6046 88.762 33.9637 88.762 34.3662C88.762 34.7687 88.8375 35.1307 88.9884 35.4521C89.1393 35.7736 89.3481 36.0237 89.6148 36.2026C89.8814 36.3815 90.1833 36.471 90.5204 36.471ZM90.5053 35.9511C90.2688 35.9511 90.0575 35.884 89.8714 35.7498C89.6852 35.6157 89.5393 35.4284 89.4337 35.188C89.328 34.9476 89.2752 34.6737 89.2752 34.3662C89.2752 34.0644 89.328 33.7946 89.4337 33.557C89.5393 33.3195 89.6852 33.1336 89.8714 32.9994C90.0575 32.8653 90.2688 32.7982 90.5053 32.7982C90.7468 32.7982 90.9619 32.8653 91.1506 32.9994C91.3392 33.1336 91.4864 33.3209 91.592 33.5612C91.6977 33.8016 91.7505 34.0727 91.7505 34.3746C91.7505 34.6765 91.6977 34.9476 91.592 35.188C91.4864 35.4284 91.3392 35.6157 91.1506 35.7498C90.9619 35.884 90.7468 35.9511 90.5053 35.9511ZM93.5014 36.3368V34.3746C93.5014 33.8939 93.5781 33.5109 93.7316 33.2258C93.885 32.9407 94.1152 32.7982 94.4221 32.7982C94.6485 32.7982 94.8321 32.889 94.973 33.0707C95.1139 33.2524 95.1843 33.5501 95.1843 33.9637V36.3368H95.6975V34.1231C95.7227 33.715 95.812 33.3921 95.9654 33.1546C96.1189 32.917 96.334 32.7982 96.6107 32.7982C96.8371 32.7982 97.0207 32.889 97.1616 33.0707C97.3025 33.2524 97.3729 33.5501 97.3729 33.9637V36.3368H97.8861V33.7122C97.8861 33.265 97.7779 32.9142 97.5616 32.6598C97.3452 32.4055 97.0736 32.2783 96.7465 32.2783C96.495 32.2783 96.2736 32.3565 96.0824 32.5131C95.8912 32.6696 95.7403 32.8876 95.6296 33.1671C95.5541 32.882 95.4208 32.6626 95.2296 32.5089C95.0384 32.3551 94.8145 32.2783 94.5579 32.2783C94.3265 32.2783 94.1215 32.3426 93.9429 32.4711C93.7643 32.5997 93.6171 32.7842 93.5014 33.0246V32.4124H92.9882V36.3368H93.5014ZM99.32 38.0139V35.7498C99.4659 35.979 99.6458 36.1565 99.8596 36.2823C100.073 36.4081 100.309 36.471 100.565 36.471C100.902 36.471 101.203 36.3815 101.467 36.2026C101.731 36.0237 101.937 35.7764 102.086 35.4605C102.234 35.1447 102.309 34.7855 102.309 34.383C102.309 33.9749 102.233 33.6116 102.082 33.2929C101.931 32.9743 101.722 32.7255 101.456 32.5466C101.189 32.3677 100.887 32.2783 100.55 32.2783C100.299 32.2783 100.067 32.3412 99.8558 32.467C99.6445 32.5927 99.4659 32.7674 99.32 32.991V32.4124H98.8068V38.0139H99.32ZM100.565 35.9511C100.324 35.9511 100.109 35.884 99.92 35.7498C99.7313 35.6157 99.5841 35.4284 99.4785 35.188C99.3728 34.9476 99.32 34.6765 99.32 34.3746C99.32 34.0727 99.3728 33.8016 99.4785 33.5612C99.5841 33.3209 99.7313 33.1336 99.92 32.9994C100.109 32.8653 100.324 32.7982 100.565 32.7982C100.802 32.7982 101.013 32.8653 101.199 32.9994C101.385 33.1336 101.531 33.3209 101.637 33.5612C101.743 33.8016 101.795 34.0755 101.795 34.383C101.795 34.6849 101.743 34.9546 101.637 35.1922C101.531 35.4298 101.385 35.6157 101.199 35.7498C101.013 35.884 100.802 35.9511 100.565 35.9511ZM104.573 36.471C104.824 36.471 105.056 36.4081 105.267 36.2823C105.478 36.1565 105.657 35.9818 105.803 35.7582V36.3368H106.316V32.4124H105.803V32.9994C105.657 32.7702 105.477 32.5927 105.263 32.467C105.049 32.3412 104.814 32.2783 104.557 32.2783C104.22 32.2783 103.92 32.3677 103.656 32.5466C103.392 32.7255 103.185 32.9729 103.037 33.2887C102.888 33.6046 102.814 33.9637 102.814 34.3662C102.814 34.7743 102.89 35.1377 103.041 35.4563C103.192 35.775 103.4 36.0237 103.667 36.2026C103.934 36.3815 104.235 36.471 104.573 36.471ZM104.557 35.9511C104.321 35.9511 104.11 35.884 103.924 35.7498C103.737 35.6157 103.591 35.4284 103.486 35.188C103.38 34.9476 103.327 34.6737 103.327 34.3662C103.327 34.0644 103.38 33.7946 103.486 33.557C103.591 33.3195 103.737 33.1336 103.924 32.9994C104.11 32.8653 104.321 32.7982 104.557 32.7982C104.799 32.7982 105.014 32.8653 105.203 32.9994C105.391 33.1336 105.539 33.3209 105.644 33.5612C105.75 33.8016 105.803 34.0727 105.803 34.3746C105.803 34.6765 105.75 34.9476 105.644 35.188C105.539 35.4284 105.391 35.6157 105.203 35.7498C105.014 35.884 104.799 35.9511 104.557 35.9511ZM107.78 36.3368V34.3746C107.78 33.8939 107.871 33.5109 108.052 33.2258C108.233 32.9407 108.504 32.7982 108.867 32.7982C109.491 32.7982 109.803 33.1867 109.803 33.9637V36.3368H110.316V33.7122C110.316 33.4159 110.254 33.1587 110.131 32.9407C110.008 32.7227 109.842 32.5578 109.633 32.446C109.424 32.3342 109.196 32.2783 108.95 32.2783C108.688 32.2783 108.458 32.3468 108.259 32.4837C108.06 32.6207 107.901 32.8149 107.78 33.0665V32.4124H107.267V36.3368H107.78ZM112.323 38.0139L114.233 32.4124H113.75L112.625 35.666L111.455 32.4124H110.919L112.368 36.4123L111.81 38.0139H112.323Z" fill="#12141D"/>
<path fill-rule="evenodd" clip-rule="evenodd" d="M18.0285 6.05566V33.2607C16.0911 34.5864 13.7846 35.6785 11.2361 36.3953C9.1318 36.9879 7.0639 37.2678 5.13101 37.2678C3.26738 37.2678 1.5293 37.0079 0 36.5151V9.31021C0.000821982 9.31021 0.00226045 9.31089 0.00308243 9.31089C0.57251 9.49398 1.17071 9.64518 1.79418 9.76265C2.37101 9.87163 2.9692 9.95171 3.58528 10.001C4.08915 10.0428 4.60495 10.0637 5.13101 10.0637C7.06473 10.0637 9.1318 9.78284 11.2361 9.1909C13.7846 8.47323 16.0911 7.38203 18.0285 6.05566ZM14.4459 12.3011C14.2945 12.3584 14.1423 12.4145 13.9893 12.4693L14.4459 12.4691L14.4459 12.3011Z" fill="#12141D"/>
<path fill-rule="evenodd" clip-rule="evenodd" d="M24.7372 0V30.0474C22.5745 31.5116 19.9998 32.7178 17.1549 33.5094C14.8059 34.164 12.4976 34.4731 10.3399 34.4731C8.25961 34.4731 6.31943 34.186 4.6123 33.6417V3.59457C4.61322 3.59457 4.61483 3.59533 4.61575 3.59533C5.25139 3.79755 5.91914 3.96454 6.61511 4.09429C7.25901 4.21465 7.92676 4.30309 8.61448 4.35757C9.17694 4.40369 9.75271 4.42675 10.3399 4.42675C12.4985 4.42675 14.8059 4.11659 17.1549 3.4628C19.9998 2.67014 22.5745 1.46494 24.7372 0Z" fill="#12141D"/>
</svg>
