<svg width="106" height="29" viewBox="0 0 106 29" fill="none" xmlns="http://www.w3.org/2000/svg">
<path d="M0 26.8879C0.913397 26.822 1.57176 26.677 1.97507 26.4529C2.68681 26.0444 3.04268 25.2997 3.04268 24.2189V4.25066C3.04268 3.20941 2.70461 2.48449 2.02845 2.0759C1.637 1.83866 0.960847 1.6739 0 1.58164V0.553574H11.1387C15.6345 0.553574 19.0627 1.88479 21.4233 4.54722C23.5704 6.9724 24.6439 10.2279 24.6439 14.3138C24.6439 17.978 23.5645 21.082 21.4055 23.6258C18.9738 26.4859 15.676 27.916 11.5124 27.916H0V26.8879ZM8.93232 24.1793C8.9679 25.0097 9.10432 25.6094 9.34157 25.9784C9.59067 26.3475 10.1126 26.532 10.9074 26.532C13.0663 26.532 14.8397 25.6885 16.2276 24.0014C17.6155 22.3011 18.3095 19.0456 18.3095 14.2348C18.3095 11.3746 17.9358 8.9165 17.1885 6.86037C15.9785 3.5521 13.9382 1.89797 11.0675 1.89797C10.1185 1.89797 9.50171 2.12203 9.21701 2.57017C9.02721 2.86013 8.93232 3.4203 8.93232 4.25066V24.1793Z" fill="#12141D"/>
<path d="M26.6368 18.6436C26.6368 15.823 27.4138 13.4703 28.9677 11.5855C30.5336 9.70073 32.4968 8.75834 34.8574 8.75834C37.2654 8.75834 39.2346 9.7205 40.7648 11.6448C42.3069 13.5692 43.078 15.9021 43.078 18.6436C43.078 21.3456 42.3188 23.6719 40.8004 25.6226C39.282 27.5601 37.301 28.5288 34.8574 28.5288C32.4849 28.5288 30.5217 27.5865 28.9677 25.7017C27.4138 23.8037 26.6368 21.451 26.6368 18.6436ZM31.9926 18.6436C31.9926 21.4774 32.1231 23.461 32.3841 24.5945C32.7993 26.3475 33.6237 27.224 34.8574 27.224C36.0317 27.224 36.8028 26.5518 37.1705 25.2074C37.5383 23.863 37.7221 21.6751 37.7221 18.6436C37.7221 15.6253 37.5264 13.4439 37.1349 12.0996C36.7554 10.742 36.0021 10.0632 34.8752 10.0632C33.6415 10.0632 32.8171 10.9397 32.4019 12.6927C32.1291 13.8657 31.9926 15.8494 31.9926 18.6436Z" fill="#12141D"/>
<path d="M44.715 26.9472C45.4148 26.8549 45.9012 26.6704 46.174 26.3936C46.4469 26.1168 46.5951 25.583 46.6189 24.7922L46.6544 23.606V12.5938C46.6544 11.7503 46.524 11.1769 46.263 10.8738C46.002 10.5706 45.486 10.3663 44.715 10.2609V9.27237H51.6366V12.4554C52.4077 11.3351 53.1728 10.4454 53.932 9.7864C54.6912 9.12739 55.569 8.79788 56.5654 8.79788C57.3127 8.79788 57.9829 9.06807 58.5761 9.60847C59.181 10.1357 59.4835 10.9133 59.4835 11.9414C59.4835 12.7322 59.27 13.3846 58.843 13.8987C58.4278 14.4127 57.8821 14.6697 57.206 14.6697C56.4349 14.6697 55.7647 14.2677 55.1953 13.4637C54.6378 12.6597 54.2463 12.2577 54.0209 12.2577C53.5346 12.2577 53.0423 12.5938 52.5441 13.266C52.0577 13.925 51.8145 14.874 51.8145 16.113V23.7642C51.8145 25.1085 51.9865 25.9521 52.3306 26.2948C52.6864 26.6243 53.3863 26.8418 54.4302 26.9472V27.916H44.715V26.9472Z" fill="#12141D"/>
<path d="M60.7469 26.9472C61.4942 26.8813 62.028 26.6968 62.3483 26.3936C62.6804 26.0905 62.8465 25.4578 62.8465 24.4957V11.3285H60.7469V9.54916H62.8465V8.0466C62.8465 6.16181 63.1134 4.61312 63.6472 3.40053C64.6555 1.13351 66.5179 0 69.2343 0C70.6815 0 71.9034 0.36905 72.8998 1.10715C73.9081 1.83207 74.4122 2.79423 74.4122 3.99364C74.4122 4.74492 74.1987 5.35122 73.7717 5.81253C73.3565 6.27384 72.799 6.5045 72.0991 6.5045C71.5178 6.5045 71.0196 6.29361 70.6044 5.87184C70.1893 5.45007 69.9817 4.94263 69.9817 4.34951C69.9817 3.90138 70.1122 3.43348 70.3731 2.94581C70.646 2.44495 70.7824 2.14181 70.7824 2.03636C70.7824 1.70685 70.6756 1.49597 70.4621 1.40371C70.2486 1.31144 70.0173 1.26531 69.7681 1.26531C69.175 1.26531 68.7183 1.45643 68.398 1.83866C68.0778 2.22089 67.9176 3.04466 67.9176 4.30997V9.54916H71.0849V11.3285H67.9176V23.7642C67.9176 25.1613 68.0956 26.018 68.4514 26.3343C68.8192 26.6506 69.6258 26.8549 70.8713 26.9472V27.916H60.7469V26.9472Z" fill="#12141D"/>
<path d="M79.8392 9.27237V23.0129C79.8392 23.8301 79.9282 24.4298 80.1061 24.812C80.4146 25.4842 81.0255 25.8203 81.9389 25.8203C82.5201 25.8203 83.0895 25.616 83.647 25.2074C83.9673 24.9833 84.3706 24.6077 84.857 24.0805V12.5938C84.857 11.7503 84.7028 11.1637 84.3944 10.8342C84.0978 10.4916 83.4928 10.3004 82.5794 10.2609V9.27237H89.8392V23.8432C89.8392 24.6868 89.9815 25.2733 90.2662 25.6028C90.5509 25.9191 91.1084 26.1168 91.9388 26.1959V27.1251C89.685 27.3624 88.2615 27.5403 87.6684 27.6589C87.0871 27.7644 86.15 28.0412 84.857 28.4893V25.8203C83.9911 26.6506 83.2734 27.2372 82.704 27.5799C81.7076 28.1862 80.6696 28.4893 79.5901 28.4893C78.4158 28.4893 77.3185 28.0741 76.2983 27.2438C75.29 26.4134 74.7859 24.9372 74.7859 22.8152V12.5938C74.7859 11.7371 74.6613 11.1769 74.4122 10.9133C74.1631 10.6497 73.6827 10.4322 72.971 10.2609V9.27237H79.8392Z" fill="#12141D"/>
<path d="M93.5936 21.7871H94.6078C94.9637 23.7246 95.628 25.0954 96.6007 25.8994C97.5734 26.6902 98.5698 27.0856 99.59 27.0856C100.527 27.0856 101.215 26.8549 101.654 26.3936C102.093 25.9191 102.312 25.2997 102.312 24.5352C102.312 23.8103 102.075 23.1908 101.601 22.6768C101.34 22.4 100.919 22.1034 100.337 21.7871L97.6327 20.3241C96.2092 19.5464 95.1891 18.7029 94.5722 17.7935C93.9435 16.884 93.6292 15.8098 93.6292 14.5709C93.6292 13.0024 94.1215 11.6514 95.106 10.5179C96.0906 9.37122 97.4666 8.79788 99.2341 8.79788C100.005 8.79788 100.824 8.94286 101.69 9.23283C102.556 9.50961 103.095 9.64801 103.309 9.64801C103.605 9.64801 103.813 9.58211 103.932 9.4503C104.062 9.30532 104.169 9.10761 104.252 8.85719H105.053V14.7093H104.127C103.783 13.3385 103.22 12.2379 102.437 11.4076C101.654 10.5772 100.741 10.162 99.6967 10.162C98.8901 10.162 98.2851 10.4125 97.8818 10.9133C97.4903 11.4142 97.2946 11.9546 97.2946 12.5345C97.2946 13.009 97.4726 13.4835 97.8284 13.958C98.1724 14.4457 98.8249 14.9465 99.7857 15.4605L101.779 16.5281C103.012 17.1872 103.914 17.8264 104.483 18.4459C105.432 19.5003 105.907 20.7986 105.907 22.3407C105.907 23.8432 105.414 25.2469 104.43 26.5518C103.457 27.8435 101.992 28.4893 100.035 28.4893C99.5485 28.4893 99.0562 28.43 98.558 28.3114C98.0716 28.2059 97.4666 28.0148 96.743 27.738L96.1203 27.5008C95.8949 27.4085 95.7525 27.3558 95.6932 27.3426C95.6458 27.3294 95.5805 27.3228 95.4975 27.3228C95.2958 27.3228 95.1179 27.4151 94.9637 27.5996C94.8213 27.771 94.6553 28.0675 94.4655 28.4893H93.5936V21.7871Z" fill="#12141D"/>
</svg>
