<svg width="132" height="37" viewBox="0 0 132 37" fill="none" xmlns="http://www.w3.org/2000/svg">
<path d="M43.0245 22.4943V10.3205C43.0245 9.60778 42.9732 8.14901 42.8706 5.94423L44.2434 11.2899L47.5021 22.4943H50.1963L53.455 11.2899C53.5034 11.122 53.5563 10.9326 53.6136 10.7217L53.6844 10.4582C53.9639 9.4088 54.3365 7.90414 54.8021 5.94423C54.7251 8.03497 54.6845 9.21814 54.6802 9.49374C54.6759 9.76933 54.6738 10.0449 54.6738 10.3205V22.4943H58.0351V2.40897H52.9931L49.6703 14.1979L48.862 17.4195L48.2462 14.7253L47.9639 13.642L44.7309 2.40897H39.6632V22.4943H43.0245ZM64.812 22.7794C66.8477 22.7794 68.3701 21.7673 69.3794 19.7431H69.4563C69.5419 20.703 69.8006 21.43 70.2325 21.9241C70.6645 22.4183 71.3337 22.6654 72.2404 22.6654C72.497 22.6654 72.7215 22.6559 72.9139 22.6369C73.1064 22.6179 73.2881 22.5941 73.4592 22.5656C73.6302 22.5371 73.8013 22.4991 73.9723 22.4516C74.1434 22.4041 74.3359 22.3518 74.5497 22.2948V20.128C74.2931 20.185 74.0279 20.2135 73.7542 20.2135C73.3437 20.2135 73.0508 20.0496 72.8754 19.7217C72.7001 19.3939 72.6124 18.7975 72.6124 17.9327V12.3162C72.6124 10.5486 72.1377 9.18488 71.1883 8.22504C70.239 7.2652 68.8876 6.78527 67.1342 6.78527C65.3979 6.78527 64.0273 7.17254 63.0223 7.94706C62.0173 8.72159 61.3994 9.85962 61.1685 11.3611L64.9275 11.5607C65.0045 10.7814 65.1991 10.2231 65.5113 9.88575C65.8234 9.54838 66.3131 9.37969 66.9802 9.37969C67.6987 9.37969 68.2162 9.62441 68.5326 10.1138C68.8491 10.6033 69.0073 11.3516 69.0073 12.359V13.143L66.018 13.2001C64.239 13.2191 62.8812 13.6467 61.9446 14.483C61.0081 15.3193 60.5398 16.5357 60.5398 18.1323C60.5398 19.6053 60.9161 20.7481 61.6688 21.5606C62.4215 22.3732 63.4692 22.7794 64.812 22.7794ZM65.9667 19.9855C65.4621 19.9855 65.058 19.8073 64.7543 19.4509C64.4507 19.0945 64.2989 18.5504 64.2989 17.8187C64.2989 17.2485 64.3908 16.7923 64.5747 16.4502C64.7586 16.1081 65.0259 15.8539 65.3766 15.6876C65.7272 15.5212 66.3217 15.4191 67.1599 15.3811L69.0073 15.3526V16.1366C69.0073 16.8113 68.8747 17.4504 68.6096 18.0539C68.3445 18.6574 67.9788 19.1302 67.5127 19.4723C67.0465 19.8144 66.5312 19.9855 65.9667 19.9855ZM79.7999 22.4943V14.9249C79.7999 13.3378 80.0501 12.1404 80.5504 11.3326C81.0508 10.5249 81.75 10.121 82.648 10.121C83.0928 10.121 83.606 10.1922 84.1876 10.3348V6.98485C83.9053 6.8423 83.5333 6.77102 83.0714 6.77102C82.5069 6.77102 82.0365 6.87793 81.6602 7.09176C81.2838 7.30558 80.9588 7.63345 80.6851 8.07536C80.4114 8.51726 80.0992 9.27991 79.7486 10.3633H79.6973C79.6973 10.0782 79.6759 9.50086 79.6331 8.6313C79.5903 7.76175 79.5561 7.24144 79.5305 7.07038H76.0921C76.1178 7.50753 76.1413 8.00883 76.1627 8.57428C76.1841 9.13974 76.1948 9.84536 76.1948 10.6912V22.4943H79.7999ZM89.951 22.7509C91.0885 22.7509 92.1021 22.5894 92.9916 22.2663V19.7859C92.4699 19.9189 92.0679 19.9855 91.7856 19.9855C91.2468 19.9855 90.8491 19.8073 90.5925 19.4509C90.3359 19.0945 90.2076 18.5409 90.2076 17.7902V9.77884H92.8376V7.07038H90.2076V3.44959H87.9496L86.8206 7.07038H84.8833V9.77884H86.641V18.8736C86.641 20.1755 86.9275 21.1472 87.5005 21.7887C88.0736 22.4302 88.8904 22.7509 89.951 22.7509ZM98.7293 4.29064V1.33984H95.1242V4.29064H98.7293ZM98.7293 22.4943V7.07038H95.1242V22.4943H98.7293ZM106.007 22.4943V14.2264C106.007 12.9245 106.274 11.8577 106.808 11.0262C107.343 10.1946 108.047 9.77884 108.919 9.77884C110.57 9.77884 111.395 11.1331 111.395 13.8415V22.4943H114.987V12.7011C114.987 10.7624 114.594 9.28941 113.807 8.28206C113.02 7.2747 111.891 6.77102 110.42 6.77102C109.402 6.77102 108.525 7.03711 107.79 7.5693C107.054 8.10149 106.443 8.9568 105.955 10.1352H105.904C105.904 9.84061 105.883 9.30129 105.84 8.51726C105.797 7.73324 105.763 7.25094 105.737 7.07038H102.299C102.325 7.48852 102.348 7.96132 102.369 8.48875C102.391 9.01619 102.402 9.69331 102.402 10.5201V22.4943H106.007ZM124.561 22.7794C126.768 22.7794 128.495 22.0691 129.744 20.6483C130.993 19.2276 131.617 17.2675 131.617 14.7681C131.617 12.1927 131.021 10.2184 129.828 8.84513C128.634 7.47189 126.905 6.78527 124.638 6.78527C122.423 6.78527 120.699 7.49565 119.468 8.91641C118.236 10.3372 117.62 12.2877 117.62 14.7681C117.62 17.258 118.236 19.2157 119.468 20.6412C120.699 22.0667 122.397 22.7794 124.561 22.7794ZM124.523 20.0425C123.513 20.0425 122.741 19.5934 122.207 18.6954C121.672 17.7973 121.405 16.4882 121.405 14.7681C121.405 11.2804 122.5 9.5365 124.689 9.5365C125.716 9.5365 126.498 9.9499 127.037 10.7767C127.576 11.6035 127.845 12.934 127.845 14.7681C127.845 18.2844 126.738 20.0425 124.523 20.0425Z" fill="#12141D"/>
<path opacity="0.595853" d="M75.3993 35.0723C75.673 35.0723 75.9265 35.0237 76.1598 34.9265C76.3931 34.8293 76.5894 34.6997 76.7487 34.5376C76.908 34.3756 77.0404 34.2111 77.1458 34.0441C77.2512 33.8771 77.3376 33.7038 77.4049 33.5243L76.6108 33.2477C76.512 33.5219 76.3539 33.7537 76.1363 33.9431C75.9187 34.1326 75.6685 34.2273 75.3858 34.2273C74.9506 34.2273 74.6029 34.0254 74.3427 33.6216C74.0824 33.2177 73.9523 32.6694 73.9523 31.9764C73.9523 31.2934 74.0813 30.7487 74.3393 30.3424C74.5973 29.9361 74.9461 29.733 75.3858 29.733C75.848 29.733 76.2226 30.0196 76.5098 30.5929L77.2703 30.3163C77.1133 29.9124 76.8744 29.5734 76.5535 29.2992C76.2327 29.025 75.848 28.8879 75.3993 28.8879C74.7038 28.8879 74.1363 29.1659 73.6966 29.7218C73.2568 30.2776 73.037 31.0292 73.037 31.9764C73.037 32.9386 73.2602 33.6951 73.7066 34.246C74.1531 34.7969 74.7173 35.0723 75.3993 35.0723ZM79.5923 35.0723C79.8615 35.0723 80.1026 35.0225 80.3158 34.9227C80.5289 34.823 80.7005 34.6947 80.8306 34.5376C80.9607 34.3806 81.0684 34.1986 81.1537 33.9917C81.2389 33.7848 81.2984 33.5817 81.332 33.3823C81.3657 33.1829 81.3825 32.9834 81.3825 32.784C81.3825 32.1409 81.23 31.5975 80.9248 31.1538C80.6197 30.7101 80.1755 30.4883 79.5923 30.4883C79.0045 30.4883 78.558 30.7101 78.2529 31.1538C77.9478 31.5975 77.7953 32.1409 77.7953 32.784C77.7953 32.9934 77.8121 33.1991 77.8458 33.401C77.8794 33.6029 77.94 33.8073 78.0275 34.0142C78.115 34.2211 78.2249 34.4005 78.3573 34.5526C78.4896 34.7046 78.6624 34.8293 78.8755 34.9265C79.0886 35.0237 79.3275 35.0723 79.5923 35.0723ZM79.5923 34.2647C79.3455 34.2647 79.1301 34.1425 78.9462 33.8983C78.7622 33.654 78.6702 33.2826 78.6702 32.784C78.6702 32.2755 78.7633 31.9004 78.9495 31.6586C79.1357 31.4168 79.35 31.2959 79.5923 31.2959C79.8345 31.2959 80.0477 31.4168 80.2316 31.6586C80.4156 31.9004 80.5076 32.2755 80.5076 32.784C80.5076 33.2826 80.4156 33.654 80.2316 33.8983C80.0477 34.1425 79.8345 34.2647 79.5923 34.2647ZM83.0045 34.9377V28.8281H82.1565V34.9377H83.0045ZM85.5755 35.0723C85.8447 35.0723 86.0858 35.0225 86.299 34.9227C86.5121 34.823 86.6837 34.6947 86.8138 34.5376C86.9439 34.3806 87.0516 34.1986 87.1369 33.9917C87.2221 33.7848 87.2816 33.5817 87.3152 33.3823C87.3489 33.1829 87.3657 32.9834 87.3657 32.784C87.3657 32.1409 87.2132 31.5975 86.908 31.1538C86.6029 30.7101 86.1587 30.4883 85.5755 30.4883C84.9877 30.4883 84.5412 30.7101 84.2361 31.1538C83.931 31.5975 83.7785 32.1409 83.7785 32.784C83.7785 32.9934 83.7953 33.1991 83.829 33.401C83.8626 33.6029 83.9232 33.8073 84.0107 34.0142C84.0982 34.2211 84.2081 34.4005 84.3405 34.5526C84.4728 34.7046 84.6456 34.8293 84.8587 34.9265C85.0718 35.0237 85.3107 35.0723 85.5755 35.0723ZM85.5755 34.2647C85.3287 34.2647 85.1133 34.1425 84.9293 33.8983C84.7454 33.654 84.6534 33.2826 84.6534 32.784C84.6534 32.2755 84.7465 31.9004 84.9327 31.6586C85.1189 31.4168 85.3332 31.2959 85.5755 31.2959C85.8177 31.2959 86.0309 31.4168 86.2148 31.6586C86.3988 31.9004 86.4908 32.2755 86.4908 32.784C86.4908 33.2826 86.3988 33.654 86.2148 33.8983C86.0309 34.1425 85.8177 34.2647 85.5755 34.2647ZM88.9204 34.9377V32.7392C88.9204 32.3204 88.9978 31.9851 89.1526 31.7334C89.3074 31.4816 89.5306 31.3557 89.8222 31.3557C89.9883 31.3557 90.1565 31.3856 90.327 31.4454V30.5855C90.1969 30.5207 90.0286 30.4883 89.8222 30.4883C89.6024 30.4883 89.4128 30.5481 89.2535 30.6677C89.0943 30.7874 88.972 30.927 88.8867 31.0865V30.6229H88.0656V34.9377H88.9204ZM92.1644 35.0723C92.6534 35.0723 93.0315 34.9489 93.2984 34.7021C93.5654 34.4554 93.6989 34.155 93.6989 33.801C93.6989 33.2277 93.2995 32.799 92.5009 32.5148C92.4785 32.5048 92.4426 32.4924 92.3932 32.4774C92.2048 32.4076 92.0589 32.3503 91.9557 32.3054C91.8525 32.2606 91.7527 32.1895 91.6562 32.0923C91.5598 31.9951 91.5115 31.8842 91.5115 31.7595C91.5115 31.61 91.5665 31.4891 91.6764 31.3968C91.7864 31.3046 91.9445 31.2585 92.1509 31.2585C92.5278 31.2585 92.8486 31.4604 93.1133 31.8642L93.6787 31.4828C93.5396 31.1937 93.3287 30.9556 93.046 30.7687C92.7634 30.5817 92.4627 30.4883 92.1442 30.4883C91.7179 30.4883 91.3612 30.6029 91.0741 30.8322C90.7869 31.0616 90.6433 31.3657 90.6433 31.7446C90.6433 31.939 90.6747 32.1097 90.7376 32.2568C90.8004 32.4039 90.8924 32.526 91.0135 32.6232C91.1346 32.7205 91.2502 32.7977 91.3601 32.8551C91.47 32.9124 91.6058 32.971 91.7673 33.0308C91.7852 33.0358 91.8144 33.0458 91.8548 33.0607C92.0791 33.1405 92.2474 33.204 92.3596 33.2514C92.4717 33.2988 92.5783 33.3698 92.6792 33.4645C92.7802 33.5592 92.8307 33.6689 92.8307 33.7936C92.8307 33.9481 92.769 34.0715 92.6456 34.1637C92.5222 34.256 92.3551 34.3021 92.1442 34.3021C91.7134 34.3021 91.3635 34.0827 91.0943 33.644L90.4818 34.0403C90.6389 34.3594 90.8643 34.6112 91.1582 34.7956C91.4521 34.9801 91.7875 35.0723 92.1644 35.0723ZM97.6226 35.0723C97.8918 35.0723 98.133 35.0225 98.3461 34.9227C98.5592 34.823 98.7309 34.6947 98.861 34.5376C98.9911 34.3806 99.0988 34.1986 99.184 33.9917C99.2693 33.7848 99.3287 33.5817 99.3624 33.3823C99.396 33.1829 99.4129 32.9834 99.4129 32.784C99.4129 32.1409 99.2603 31.5975 98.9552 31.1538C98.6501 30.7101 98.2059 30.4883 97.6226 30.4883C97.0348 30.4883 96.5884 30.7101 96.2833 31.1538C95.9782 31.5975 95.8256 32.1409 95.8256 32.784C95.8256 32.9934 95.8425 33.1991 95.8761 33.401C95.9098 33.6029 95.9703 33.8073 96.0578 34.0142C96.1453 34.2211 96.2552 34.4005 96.3876 34.5526C96.52 34.7046 96.6927 34.8293 96.9058 34.9265C97.119 35.0237 97.3579 35.0723 97.6226 35.0723ZM97.6226 34.2647C97.3758 34.2647 97.1605 34.1425 96.9765 33.8983C96.7925 33.654 96.7006 33.2826 96.7006 32.784C96.7006 32.2755 96.7937 31.9004 96.9799 31.6586C97.1661 31.4168 97.3803 31.2959 97.6226 31.2959C97.8649 31.2959 98.078 31.4168 98.262 31.6586C98.4459 31.9004 98.5379 32.2755 98.5379 32.784C98.5379 33.2826 98.4459 33.654 98.262 33.8983C98.078 34.1425 97.8649 34.2647 97.6226 34.2647ZM101.264 34.9377V31.4305H102.071V30.6229H101.264V30.2265C101.264 30.0171 101.296 29.8651 101.361 29.7704C101.426 29.6756 101.528 29.6283 101.667 29.6283H102.159V28.8281H101.546C101.183 28.8281 100.901 28.939 100.702 29.1609C100.502 29.3827 100.402 29.7155 100.402 30.1592V30.6229H99.8099V31.4305H100.402V34.9377H101.264ZM104.555 36.7025C104.891 36.7025 105.173 36.6128 105.399 36.4333C105.626 36.2538 105.811 35.9447 105.955 35.506L107.563 30.6229H106.634L106.022 32.8438C105.878 33.4172 105.795 33.7487 105.773 33.8384H105.746C105.688 33.5842 105.602 33.2526 105.49 32.8438L104.824 30.6229H103.888L105.342 34.833L105.214 35.2593C105.138 35.4986 105.036 35.6668 104.908 35.764C104.78 35.8612 104.615 35.9099 104.413 35.9099H104.292V36.7025H104.555ZM109.65 35.0723C109.919 35.0723 110.16 35.0225 110.373 34.9227C110.586 34.823 110.758 34.6947 110.888 34.5376C111.018 34.3806 111.126 34.1986 111.211 33.9917C111.296 33.7848 111.356 33.5817 111.389 33.3823C111.423 33.1829 111.44 32.9834 111.44 32.784C111.44 32.1409 111.287 31.5975 110.982 31.1538C110.677 30.7101 110.233 30.4883 109.65 30.4883C109.062 30.4883 108.615 30.7101 108.31 31.1538C108.005 31.5975 107.853 32.1409 107.853 32.784C107.853 32.9934 107.869 33.1991 107.903 33.401C107.937 33.6029 107.997 33.8073 108.085 34.0142C108.172 34.2211 108.282 34.4005 108.415 34.5526C108.547 34.7046 108.72 34.8293 108.933 34.9265C109.146 35.0237 109.385 35.0723 109.65 35.0723ZM109.65 34.2647C109.403 34.2647 109.187 34.1425 109.003 33.8983C108.82 33.654 108.728 33.2826 108.728 32.784C108.728 32.2755 108.821 31.9004 109.007 31.6586C109.193 31.4168 109.407 31.2959 109.65 31.2959C109.892 31.2959 110.105 31.4168 110.289 31.6586C110.473 31.9004 110.565 32.2755 110.565 32.784C110.565 33.2826 110.473 33.654 110.289 33.8983C110.105 34.1425 109.892 34.2647 109.65 34.2647ZM113.398 35.0723C113.663 35.0723 113.884 35.005 114.061 34.8704C114.238 34.7358 114.359 34.5912 114.421 34.4367H114.428V34.9377H115.249V30.6229H114.401V33.0383C114.401 33.3723 114.329 33.6602 114.186 33.902C114.042 34.1438 113.843 34.2647 113.587 34.2647C113.161 34.2647 112.947 33.9282 112.947 33.2551V30.6229H112.093V33.3748C112.093 33.6988 112.133 33.978 112.214 34.2123C112.295 34.4466 112.402 34.6224 112.537 34.7395C112.671 34.8567 112.809 34.9414 112.951 34.9938C113.092 35.0461 113.241 35.0723 113.398 35.0723ZM117.033 34.9377V32.7392C117.033 32.3204 117.11 31.9851 117.265 31.7334C117.42 31.4816 117.643 31.3557 117.935 31.3557C118.101 31.3557 118.269 31.3856 118.439 31.4454V30.5855C118.309 30.5207 118.141 30.4883 117.935 30.4883C117.715 30.4883 117.525 30.5481 117.366 30.6677C117.207 30.7874 117.084 30.927 116.999 31.0865V30.6229H116.178V34.9377H117.033ZM121.488 34.9377V28.8281H120.64V34.9377H121.488ZM123.447 29.9797V28.9403H122.531V29.9797H123.447ZM123.413 34.9377V30.6229H122.572V34.9377H123.413ZM125.573 34.9377V31.4305H126.381V30.6229H125.573V30.2265C125.573 30.0171 125.606 29.8651 125.671 29.7704C125.736 29.6756 125.838 29.6283 125.977 29.6283H126.468V28.8281H125.856C125.493 28.8281 125.211 28.939 125.011 29.1609C124.812 29.3827 124.712 29.7155 124.712 30.1592V30.6229H124.12V31.4305H124.712V34.9377H125.573ZM128.555 35.0723C128.977 35.0723 129.329 34.9651 129.612 34.7508C129.894 34.5364 130.098 34.2697 130.224 33.9506L129.511 33.6814C129.425 33.8658 129.301 34.0167 129.137 34.1338C128.973 34.251 128.784 34.3095 128.568 34.3095C128.259 34.3095 128.015 34.1911 127.838 33.9543C127.661 33.7175 127.572 33.4346 127.572 33.1056H130.264C130.278 32.9809 130.285 32.8538 130.285 32.7242C130.285 32.0611 130.119 31.5227 129.787 31.1089C129.454 30.6951 129.033 30.4883 128.521 30.4883C128.001 30.4883 127.569 30.6939 127.226 31.1052C126.882 31.5165 126.711 32.0686 126.711 32.7616C126.711 33.4645 126.882 34.0254 127.226 34.4442C127.569 34.8629 128.012 35.0723 128.555 35.0723ZM129.416 32.44H127.586C127.59 32.121 127.677 31.843 127.845 31.6062C128.013 31.3694 128.239 31.251 128.521 31.251C128.804 31.251 129.024 31.3669 129.181 31.5987C129.338 31.8306 129.416 32.111 129.416 32.44Z" fill="#12141D"/>
<path d="M7.75326 4.82908L7.75326 34.6115C7.75313 34.8965 7.62102 35.1602 7.40593 35.3048C7.19083 35.4494 6.92483 35.4532 6.70657 35.315L0.362993 31.2904C0.139091 31.1485 0.000131657 30.8792 0 30.5868L0 0.804428C0.000128305 0.519405 0.132236 0.255711 0.34733 0.111141C0.562423 -0.0334282 0.828426 -0.0373154 1.04669 0.100922L7.39026 4.12557C7.61416 4.26738 7.75312 4.53669 7.75326 4.82908Z" fill="#12141D"/>
<path d="M18.0911 4.83006L18.0911 34.6125C18.091 34.8975 17.9589 35.1612 17.7438 35.3058C17.5287 35.4503 17.2627 35.4542 17.0445 35.316L10.7009 31.2913C10.477 31.1495 10.338 30.8802 10.3379 30.5878L10.3379 0.805405C10.338 0.520382 10.4701 0.256687 10.6852 0.112118C10.9003 -0.0324516 11.1663 -0.0363388 11.3846 0.101898L17.7282 4.12655C17.9521 4.26836 18.091 4.53767 18.0911 4.83006Z" fill="#12141D"/>
<path d="M28.4271 4.83006L28.4271 34.6125C28.427 34.8975 28.2948 35.1612 28.0798 35.3058C27.8647 35.4503 27.5987 35.4542 27.3804 35.316L21.0368 31.2913C20.8129 31.1495 20.674 30.8802 20.6738 30.5878L20.6738 0.805405C20.674 0.520382 20.8061 0.256687 21.0212 0.112118C21.2363 -0.0324516 21.5023 -0.0363388 21.7205 0.101898L28.0641 4.12655C28.288 4.26836 28.427 4.53767 28.4271 4.83006Z" fill="#12141D"/>
</svg>
