<svg width="137" height="35" viewBox="0 0 137 35" fill="none" xmlns="http://www.w3.org/2000/svg">
<path d="M47.798 22.7457C51.7286 22.7457 54.3385 20.7193 54.3385 17.2254C54.3385 13.7189 51.7452 12.6215 49.2556 11.7963L48.9689 11.7021C46.7772 10.9878 44.7478 10.4221 44.7478 8.52557C44.7478 7.0232 45.8484 6.07984 47.7665 6.07984C49.4331 6.07984 50.628 6.8485 51.1626 8.49063L53.7096 7.37259C52.9864 4.92686 50.8167 3.56424 47.798 3.56424C44.1503 3.56424 41.7919 5.52082 41.7919 8.70027C41.7919 15.0242 51.3198 13.0327 51.3198 17.47C51.3198 19.182 49.9677 20.1603 47.8923 20.1603C45.5968 20.1603 44.056 19.0422 43.5214 17.1555L40.9744 18.2736C41.8548 21.2084 44.3704 22.7457 47.798 22.7457ZM72.2832 28.6155V3.94856H69.799V7.37259C68.4783 4.99673 66.2772 3.56424 63.51 3.56424C58.7933 3.56424 55.4286 7.68704 55.4286 13.1725C55.4286 18.6579 58.8876 22.7457 63.5729 22.7457C66.1829 22.7457 68.2897 21.453 69.6104 19.3217V28.6155H72.2832ZM63.8874 20.1253C60.5542 20.1253 58.07 17.1555 58.07 13.1725C58.07 9.15448 60.5542 6.18466 63.8874 6.18466C67.3149 6.18466 69.7047 9.0846 69.7047 13.1725C69.7047 17.2603 67.3463 20.1253 63.8874 20.1253ZM82.0836 22.7457C84.5363 22.7457 86.5173 21.453 87.6179 19.741V22.3614H90.165V3.94856H87.4921V15.5134C87.4607 17.8543 85.574 20.0904 82.7754 20.0904C79.9453 20.1253 78.153 18.0639 78.153 14.9543V3.94856H75.4801V15.3037C75.4801 19.6711 77.8385 22.7457 82.0836 22.7457ZM100.689 22.7457C103.487 22.7457 105.657 21.2783 106.915 18.8326V22.3614H109.399V3.94856H106.915V7.51234C105.657 5.13649 103.487 3.73893 100.689 3.73893C96.0033 3.73893 92.5443 7.68704 92.5443 13.1375C92.5443 18.6579 95.9718 22.7457 100.689 22.7457ZM101.003 20.1253C97.6699 20.1253 95.1857 17.1555 95.1857 13.1375C95.1857 9.18941 97.6699 6.18466 101.003 6.18466C104.462 6.18466 106.82 9.04966 106.82 13.1375C106.82 17.2603 104.431 20.1253 101.003 20.1253ZM115.489 22.3614V11.2508C115.489 8.63039 117.596 6.35936 120.614 6.32442V3.56424C118.287 3.56424 116.401 4.92686 115.332 6.63887V3.94856H112.816V22.3614H115.489ZM128.937 22.7807C132.867 22.7807 135.163 20.894 136.389 18.2736L134.062 16.7013C133.245 18.8326 131.735 19.9856 129.031 19.9856C125.981 19.9856 123.56 17.6796 123.088 14.2556H136.861C136.892 13.9062 136.924 13.2773 136.924 12.7532C136.924 7.89667 133.748 3.5293 128.748 3.5293C124.063 3.5293 120.384 7.82679 120.384 13.1725C120.384 18.6579 123.843 22.7807 128.937 22.7807ZM134.188 11.6701H123.119C123.623 8.17618 126.044 6.11478 128.842 6.11478C131.61 6.11478 133.779 8.21112 134.188 11.6701Z" fill="#12141D"/>
<path d="M79.4113 33.6069C79.4972 33.6069 79.5881 33.6007 79.6839 33.5885C79.7798 33.5762 79.8842 33.5578 79.9972 33.5332V33.2138H79.9308C79.6188 33.2138 79.3965 33.1722 79.2639 33.0889C79.1312 33.0057 79.0268 32.8494 78.9506 32.6201C78.9162 32.5246 78.8696 32.3315 78.8106 32.0408C78.7516 31.7501 78.6804 31.5297 78.5969 31.3795C78.5232 31.243 78.4225 31.1291 78.2947 31.0376C78.167 30.9462 78.0085 30.8718 77.8193 30.8145C78.2247 30.7162 78.5293 30.5504 78.7332 30.317C78.9371 30.0836 79.0391 29.7854 79.0391 29.4224C79.0391 28.912 78.8904 28.5332 78.5932 28.2862C78.2959 28.0392 77.839 27.9157 77.2224 27.9157H75.2988V28.2514L75.7263 28.3005L75.8553 28.4193V33.0378L75.7263 33.1565L75.2988 33.1974V33.5414H77.0934V33.1974L76.6623 33.1565L76.5333 33.0378V31.0438L76.5591 31.0397C76.7212 31.0315 76.8391 31.0274 76.9128 31.0274C77.2592 31.0274 77.5178 31.0929 77.6885 31.2239C77.8593 31.355 77.995 31.5911 78.0957 31.9323C78.1227 32.0223 78.1584 32.1588 78.2026 32.3417C78.3205 32.8494 78.4691 33.1906 78.6485 33.3653C78.7345 33.4472 78.8395 33.5079 78.9635 33.5475C79.0876 33.5871 79.2368 33.6069 79.4113 33.6069ZM76.9497 30.6466C76.8858 30.6466 76.8195 30.6459 76.7507 30.6446C76.6819 30.6432 76.6095 30.6412 76.5333 30.6384V28.3005H76.8981C77.387 28.3005 77.7407 28.3947 77.9594 28.583C78.178 28.7714 78.2873 29.0744 78.2873 29.492C78.2873 29.896 78.1811 30.1894 77.9686 30.3723C77.7561 30.5552 77.4165 30.6466 76.9497 30.6466ZM81.3633 33.6151C81.6065 33.6151 81.8485 33.5728 82.0892 33.4881C82.33 33.4035 82.5622 33.2793 82.7857 33.1156V32.6529C82.5597 32.8194 82.3503 32.9422 82.1574 33.0214C81.9646 33.1005 81.7785 33.1401 81.5991 33.1401C81.211 33.1401 80.9027 32.9866 80.6742 32.6795C80.4457 32.3724 80.3315 31.9555 80.3315 31.4287V31.3345H82.7747C82.7796 31.3017 82.7826 31.2676 82.7839 31.2321C82.7851 31.1966 82.7857 31.1448 82.7857 31.0765C82.7857 30.5661 82.6635 30.1628 82.4191 29.8666C82.1746 29.5705 81.8436 29.4224 81.426 29.4224C80.915 29.4224 80.4967 29.621 80.1712 30.0181C79.8457 30.4153 79.683 30.9278 79.683 31.5556C79.683 32.167 79.8383 32.6631 80.1491 33.0439C80.4599 33.4247 80.8646 33.6151 81.3633 33.6151ZM82.1114 30.9824H80.3684C80.3905 30.6412 80.493 30.3593 80.6761 30.1369C80.8591 29.9144 81.0759 29.8032 81.3265 29.8032C81.5819 29.8032 81.7766 29.8933 81.9105 30.0734C82.0444 30.2536 82.1114 30.5129 82.1114 30.8513V30.9824ZM84.1408 33.5987C84.3177 33.5987 84.5075 33.5543 84.7101 33.4656C84.9128 33.3769 85.1357 33.2398 85.3789 33.0541L85.4784 33.5414H86.5397V33.2384L86.1417 33.1974L86.0128 33.0623V30.6302C86.0128 30.2072 85.9231 29.9001 85.7438 29.709C85.5644 29.5179 85.277 29.4224 84.8815 29.4224C84.4319 29.4224 84.0653 29.5125 83.7815 29.6926C83.4978 29.8728 83.3559 30.0993 83.3559 30.3723C83.3559 30.4706 83.3725 30.5381 83.4056 30.575C83.4388 30.6118 83.5008 30.6302 83.5917 30.6302H84.1113V29.926C84.212 29.8823 84.3091 29.8496 84.4024 29.8277C84.4958 29.8059 84.5904 29.795 84.6862 29.795C84.9417 29.795 85.121 29.8632 85.2242 29.9997C85.3274 30.1362 85.3789 30.3805 85.3789 30.7326V30.9987C84.4381 31.2499 83.8356 31.4778 83.5715 31.6825C83.3074 31.8872 83.1753 32.1684 83.1753 32.526C83.1753 32.8481 83.2632 33.1074 83.4388 33.3039C83.6145 33.5004 83.8485 33.5987 84.1408 33.5987ZM84.443 33.1483C84.2587 33.1483 84.1119 33.0862 84.0026 32.962C83.8933 32.8378 83.8386 32.6706 83.8386 32.4604C83.8386 32.1984 83.9375 31.9869 84.1353 31.8258C84.333 31.6648 84.7476 31.4873 85.3789 31.2935V32.7716C85.18 32.8972 85.0037 32.9914 84.8502 33.0541C84.6966 33.1169 84.5609 33.1483 84.443 33.1483ZM88.4107 33.5414V33.2384L87.9796 33.1974L87.8432 33.0623V27.3711H87.5558L86.6345 27.67V27.932H87.2168V33.0623L87.0878 33.1974L86.6419 33.2384V33.5414H88.4107ZM94.2899 33.5414V32.1738H93.8993L93.7704 33.0214L93.6635 33.1565H91.6405V30.8063H92.8786L92.9855 30.9332L93.0592 31.5392H93.4166V29.6926H93.0592L92.9855 30.3027L92.8786 30.4214H91.6405V28.3005H93.3871L93.4903 28.4275L93.5972 29.1399H94.0209V27.9157H90.406V28.2514L90.8334 28.3005L90.9624 28.4193V33.0378L90.8334 33.1565L90.406 33.1974V33.5414H94.2899ZM95.5492 33.6151C95.9914 33.6151 96.3372 33.5038 96.5865 33.2814C96.8359 33.0589 96.9606 32.7512 96.9606 32.3581C96.9606 32.208 96.936 32.0708 96.8869 31.9466C96.8377 31.8224 96.7665 31.7194 96.6731 31.6375C96.5454 31.5201 96.339 31.3891 96.0541 31.2444C95.973 31.2035 95.9128 31.1721 95.8735 31.1502C95.6229 31.0165 95.4534 30.895 95.365 30.7858C95.2765 30.6767 95.2323 30.5443 95.2323 30.3887C95.2323 30.1976 95.2876 30.0488 95.3981 29.9424C95.5087 29.8359 95.6622 29.7827 95.8588 29.7827C95.9497 29.7827 96.0406 29.7977 96.1314 29.8277C96.2223 29.8578 96.3182 29.9028 96.4189 29.9629L96.4778 30.5565H96.85V29.6066C96.7223 29.5466 96.5853 29.5009 96.4391 29.4695C96.293 29.4381 96.1351 29.4224 95.9656 29.4224C95.5406 29.4224 95.2114 29.5248 94.9781 29.7295C94.7447 29.9342 94.628 30.2235 94.628 30.5975C94.628 30.8432 94.6961 31.0492 94.8325 31.2157C94.9688 31.3823 95.2262 31.5597 95.6045 31.748C95.9386 31.9173 96.1499 32.0571 96.2383 32.1677C96.3268 32.2782 96.371 32.4181 96.371 32.5874C96.371 32.7894 96.3065 32.9525 96.1775 33.0767C96.0485 33.2009 95.8772 33.263 95.6635 33.263C95.5554 33.263 95.4479 33.2466 95.341 33.2138C95.2342 33.1811 95.1279 33.1306 95.0223 33.0623L94.9301 32.3499H94.569V33.439C94.709 33.4991 94.862 33.5434 95.0278 33.5721C95.1936 33.6007 95.3674 33.6151 95.5492 33.6151ZM98.4667 33.5659C98.6215 33.5659 98.7824 33.5502 98.9495 33.5189C99.1165 33.4875 99.286 33.4417 99.458 33.3817V33.0705C99.3646 33.0951 99.2744 33.1128 99.1872 33.1237C99.0999 33.1347 99.0158 33.1401 98.9347 33.1401C98.6989 33.1401 98.5355 33.078 98.4446 32.9538C98.3537 32.8296 98.3083 32.586 98.3083 32.223V30.012H99.458V29.6189H98.3083V28.7263H98.0282L97.704 29.5084L97.2065 29.7499V30.012H97.6818V32.7184C97.6818 33.0405 97.7402 33.2623 97.8569 33.3837C97.9736 33.5052 98.1769 33.5659 98.4667 33.5659ZM100.57 33.5987C100.747 33.5987 100.937 33.5543 101.139 33.4656C101.342 33.3769 101.565 33.2398 101.808 33.0541L101.908 33.5414H102.969V33.2384L102.571 33.1974L102.442 33.0623V30.6302C102.442 30.2072 102.352 29.9001 102.173 29.709C101.994 29.5179 101.706 29.4224 101.311 29.4224C100.861 29.4224 100.494 29.5125 100.211 29.6926C99.9268 29.8728 99.785 30.0993 99.785 30.3723C99.785 30.4706 99.8016 30.5381 99.8347 30.575C99.8679 30.6118 99.9299 30.6302 100.021 30.6302H100.54V29.926C100.641 29.8823 100.738 29.8496 100.832 29.8277C100.925 29.8059 101.019 29.795 101.115 29.795C101.371 29.795 101.55 29.8632 101.653 29.9997C101.756 30.1362 101.808 30.3805 101.808 30.7326V30.9987C100.867 31.2499 100.265 31.4778 100.001 31.6825C99.7365 31.8872 99.6044 32.1684 99.6044 32.526C99.6044 32.8481 99.6922 33.1074 99.8679 33.3039C100.044 33.5004 100.278 33.5987 100.57 33.5987ZM100.872 33.1483C100.688 33.1483 100.541 33.0862 100.432 32.962C100.322 32.8378 100.268 32.6706 100.268 32.4604C100.268 32.1984 100.367 31.9869 100.564 31.8258C100.762 31.6648 101.177 31.4873 101.808 31.2935V32.7716C101.609 32.8972 101.433 32.9914 101.279 33.0541C101.126 33.1169 100.99 33.1483 100.872 33.1483ZM104.309 33.5659C104.464 33.5659 104.625 33.5502 104.792 33.5189C104.959 33.4875 105.128 33.4417 105.3 33.3817V33.0705C105.207 33.0951 105.117 33.1128 105.03 33.1237C104.942 33.1347 104.858 33.1401 104.777 33.1401C104.541 33.1401 104.378 33.078 104.287 32.9538C104.196 32.8296 104.151 32.586 104.151 32.223V30.012H105.3V29.6189H104.151V28.7263H103.871L103.546 29.5084L103.049 29.7499V30.012H103.524V32.7184C103.524 33.0405 103.583 33.2623 103.699 33.3837C103.816 33.5052 104.019 33.5659 104.309 33.5659ZM107.09 33.6151C107.334 33.6151 107.576 33.5728 107.816 33.4881C108.057 33.4035 108.289 33.2793 108.513 33.1156V32.6529C108.287 32.8194 108.077 32.9422 107.884 33.0214C107.692 33.1005 107.505 33.1401 107.326 33.1401C106.938 33.1401 106.63 32.9866 106.401 32.6795C106.173 32.3724 106.059 31.9555 106.059 31.4287V31.3345H108.502C108.507 31.3017 108.51 31.2676 108.511 31.2321C108.512 31.1966 108.513 31.1448 108.513 31.0765C108.513 30.5661 108.39 30.1628 108.146 29.8666C107.902 29.5705 107.571 29.4224 107.153 29.4224C106.642 29.4224 106.224 29.621 105.898 30.0181C105.573 30.4153 105.41 30.9278 105.41 31.5556C105.41 32.167 105.565 32.6631 105.876 33.0439C106.187 33.4247 106.592 33.6151 107.09 33.6151ZM107.838 30.9824H106.095C106.117 30.6412 106.22 30.3593 106.403 30.1369C106.586 29.9144 106.803 29.8032 107.053 29.8032C107.309 29.8032 107.504 29.8933 107.638 30.0734C107.771 30.2536 107.838 30.5129 107.838 30.8513V30.9824ZM112.244 33.6437C112.833 33.6437 113.306 33.4888 113.662 33.179C114.019 32.8692 114.197 32.4618 114.197 31.9568C114.197 31.774 114.169 31.6047 114.114 31.4491C114.058 31.2935 113.976 31.1557 113.865 31.0356C113.671 30.8227 113.354 30.6207 112.914 30.4296C112.831 30.3941 112.768 30.3668 112.726 30.3477C112.279 30.1376 111.991 29.9581 111.862 29.8093C111.733 29.6606 111.669 29.4729 111.669 29.2463C111.669 28.9352 111.761 28.6888 111.945 28.5073C112.129 28.3258 112.379 28.235 112.693 28.235C112.826 28.235 112.949 28.2493 113.062 28.278C113.175 28.3067 113.279 28.351 113.375 28.4111L113.485 28.5503L113.6 29.3487H113.994V28.0508C113.773 27.9716 113.556 27.9122 113.344 27.8727C113.131 27.8331 112.919 27.8133 112.708 27.8133C112.182 27.8133 111.76 27.9614 111.442 28.2575C111.124 28.5537 110.965 28.942 110.965 29.4224C110.965 29.7636 111.048 30.0413 111.216 30.2556C111.383 30.4699 111.724 30.7012 112.24 30.9496C112.282 30.9687 112.342 30.9974 112.42 31.0356C113.143 31.3768 113.504 31.7617 113.504 32.1902C113.504 32.4987 113.401 32.7436 113.196 32.9252C112.991 33.1067 112.713 33.1974 112.362 33.1974C112.194 33.1974 112.04 33.1811 111.897 33.1483C111.755 33.1156 111.628 33.0678 111.518 33.005L111.418 32.8617L111.33 31.8995H110.884V33.3735C111.063 33.4609 111.269 33.5277 111.501 33.5741C111.733 33.6205 111.981 33.6437 112.244 33.6437ZM116.407 33.6151C116.918 33.6151 117.338 33.4192 117.669 33.0275C117.999 32.6358 118.164 32.1329 118.164 31.5187C118.164 30.9046 118 30.4016 117.671 30.0099C117.341 29.6182 116.92 29.4224 116.407 29.4224C115.891 29.4224 115.47 29.6176 115.145 30.0079C114.819 30.3982 114.656 30.9018 114.656 31.5187C114.656 32.1356 114.82 32.6392 115.148 33.0296C115.476 33.4199 115.896 33.6151 116.407 33.6151ZM116.407 33.2548C116.095 33.2548 115.843 33.0971 115.651 32.7819C115.46 32.4666 115.364 32.0455 115.364 31.5187C115.364 30.9919 115.459 30.5709 115.649 30.2556C115.84 29.9403 116.092 29.7827 116.407 29.7827C116.721 29.7827 116.975 29.941 117.168 30.2577C117.36 30.5743 117.457 30.9946 117.457 31.5187C117.457 32.0483 117.361 32.47 117.169 32.7839C116.978 33.0978 116.724 33.2548 116.407 33.2548ZM120.172 33.5414V33.2384L119.741 33.1974L119.604 33.0623V27.3711H119.317L118.396 27.67V27.932H118.978V33.0623L118.849 33.1974L118.403 33.2384V33.5414H120.172ZM121.814 33.6233C121.994 33.6233 122.183 33.5782 122.384 33.4881C122.584 33.3981 122.802 33.2589 123.038 33.0705V33.5414H124.154V33.2384L123.8 33.1974L123.664 33.0623V29.4224H123.377L122.5 29.7336V29.9956H123.038V32.8371C122.88 32.9218 122.73 32.9845 122.586 33.0255C122.443 33.0664 122.301 33.0869 122.161 33.0869C121.91 33.0869 121.726 33.0152 121.608 32.8719C121.49 32.7286 121.431 32.5041 121.431 32.1984V29.4224H121.144L120.267 29.7336V29.9956H120.805V32.3417C120.805 32.7566 120.891 33.0739 121.064 33.2937C121.238 33.5134 121.487 33.6233 121.814 33.6233ZM125.561 33.5659C125.716 33.5659 125.877 33.5502 126.044 33.5189C126.211 33.4875 126.38 33.4417 126.552 33.3817V33.0705C126.459 33.0951 126.368 33.1128 126.281 33.1237C126.194 33.1347 126.11 33.1401 126.029 33.1401C125.793 33.1401 125.63 33.078 125.539 32.9538C125.448 32.8296 125.402 32.586 125.402 32.223V30.012H126.552V29.6189H125.402V28.7263H125.122L124.798 29.5084L124.301 29.7499V30.012H124.776V32.7184C124.776 33.0405 124.834 33.2623 124.951 33.3837C125.068 33.5052 125.271 33.5659 125.561 33.5659ZM127.542 28.5708C127.665 28.5708 127.769 28.5244 127.854 28.4315C127.939 28.3387 127.981 28.2255 127.981 28.0917C127.981 27.958 127.939 27.8433 127.854 27.7478C127.769 27.6522 127.665 27.6045 127.542 27.6045C127.422 27.6045 127.319 27.6516 127.235 27.7457C127.15 27.8399 127.108 27.9552 127.108 28.0917C127.108 28.2255 127.15 28.3387 127.235 28.4315C127.319 28.5244 127.422 28.5708 127.542 28.5708ZM128.342 33.5414V33.2384L127.937 33.1974L127.808 33.0623V29.4674H127.513L126.647 29.7663V30.0284H127.174V33.0623L127.045 33.1974L126.647 33.2384V33.5414H128.342ZM130.272 33.6151C130.783 33.6151 131.204 33.4192 131.534 33.0275C131.865 32.6358 132.03 32.1329 132.03 31.5187C132.03 30.9046 131.865 30.4016 131.536 30.0099C131.207 29.6182 130.785 29.4224 130.272 29.4224C129.756 29.4224 129.335 29.6176 129.01 30.0079C128.684 30.3982 128.522 30.9018 128.522 31.5187C128.522 32.1356 128.686 32.6392 129.014 33.0296C129.342 33.4199 129.761 33.6151 130.272 33.6151ZM130.272 33.2548C129.96 33.2548 129.708 33.0971 129.517 32.7819C129.325 32.4666 129.229 32.0455 129.229 31.5187C129.229 30.9919 129.324 30.5709 129.515 30.2556C129.705 29.9403 129.958 29.7827 130.272 29.7827C130.586 29.7827 130.84 29.941 131.033 30.2577C131.226 30.5743 131.322 30.9946 131.322 31.5187C131.322 32.0483 131.226 32.47 131.035 32.7839C130.843 33.0978 130.589 33.2548 130.272 33.2548ZM133.938 33.5414V33.2384L133.576 33.1974L133.447 33.0623V30.2536C133.61 30.1608 133.761 30.0918 133.901 30.0468C134.041 30.0018 134.171 29.9792 134.291 29.9792C134.566 29.9792 134.762 30.0447 134.879 30.1758C134.996 30.3068 135.054 30.5293 135.054 30.8432V33.0623L134.925 33.1974L134.564 33.2384V33.5414H136.215V33.2384L135.81 33.1974L135.681 33.0623V30.6999C135.681 30.285 135.593 29.9683 135.419 29.7499C135.244 29.5316 134.993 29.4224 134.663 29.4224C134.523 29.4224 134.361 29.4599 134.177 29.535C133.993 29.6101 133.75 29.7404 133.447 29.926V29.4674H133.16L132.283 29.7663V30.0284H132.821V33.0623L132.692 33.1974L132.283 33.2384V33.5414H133.938Z" fill="#12141D"/>
<path fill-rule="evenodd" clip-rule="evenodd" d="M0 0H31.4451V34.939H0V0ZM23.4035 8.93476L8.03995 8.93293V26.0051L8.03485 26.0105L8.035 26.0117H23.4105L23.4093 8.92869L23.4086 8.92854L23.4035 8.93476Z" fill="#12141D"/>
</svg>
