<svg width="145" height="41" viewBox="0 0 145 41" fill="none" xmlns="http://www.w3.org/2000/svg">
<path fill-rule="evenodd" clip-rule="evenodd" d="M0 18.4461V25.8113L18.8671 8.48629V1.12109L0 18.4461Z" fill="#12141D"/>
<path fill-rule="evenodd" clip-rule="evenodd" d="M0 32.8877V40.2527L18.8671 22.9277V15.5625L0 32.8877Z" fill="#12141D"/>
<path fill-rule="evenodd" clip-rule="evenodd" d="M8.38672 18.4461V25.8113L27.2538 8.48629V1.12109L8.38672 18.4461Z" fill="#12141D"/>
<path fill-rule="evenodd" clip-rule="evenodd" d="M8.38672 32.8877V40.2527L27.2538 22.9277V15.5625L8.38672 32.8877Z" fill="#12141D"/>
<path d="M49.2236 26.2384C50.3496 26.2384 51.496 26.1189 52.6629 25.8801C53.8298 25.6413 55.0325 25.283 56.2711 24.8053V16.6506L56.7624 16.1729L58.5896 16.0023V14.2793H49.4078V16.0023L51.7417 16.1729L52.233 16.6506V23.7817C51.844 23.8158 51.5011 23.8414 51.2043 23.8585C50.9074 23.8755 50.6771 23.8841 50.5133 23.8841C48.0669 23.8841 46.1553 23.0055 44.7786 21.2483C43.4018 19.4911 42.7135 17.0544 42.7135 13.9381C42.7135 10.9014 43.3865 8.51581 44.7325 6.78137C46.0786 5.04693 47.9287 4.17971 50.283 4.17971C50.7539 4.17971 51.2043 4.22521 51.6342 4.31619C52.0641 4.40718 52.4838 4.54935 52.8932 4.7427L53.3692 5.37392L53.968 9.07595H56.2711V3.13905C55.1042 2.75236 53.9654 2.46233 52.8548 2.26899C51.7442 2.07564 50.6669 1.97897 49.6228 1.97897C46.163 1.97897 43.3865 3.06797 41.2932 5.24597C39.2 7.42397 38.1533 10.3213 38.1533 13.9381C38.1533 17.5889 39.1769 20.5517 41.2241 22.8264C43.2713 25.101 45.9378 26.2384 49.2236 26.2384ZM67.2298 26.0848C69.6864 26.0848 71.6569 25.2887 73.1411 23.6964C74.6253 22.1041 75.3674 20.0001 75.3674 17.3842C75.3674 14.6205 74.656 12.4283 73.2332 10.8075C71.8104 9.18684 69.8912 8.37649 67.4755 8.37649C65.0188 8.37649 63.0484 9.19253 61.5642 10.8246C60.0799 12.4567 59.3378 14.6205 59.3378 17.316C59.3378 19.9432 60.062 22.0615 61.5104 23.6708C62.9588 25.2802 64.8653 26.0848 67.2298 26.0848ZM67.3219 24.2423C66.1857 24.2423 65.2977 23.6225 64.658 22.3828C64.0182 21.1431 63.6984 19.4087 63.6984 17.1795C63.6984 14.9844 64.0208 13.2784 64.6657 12.0615C65.3105 10.8445 66.2062 10.236 67.3526 10.236C68.5093 10.236 69.4126 10.8559 70.0626 12.0956C70.7126 13.3353 71.0376 15.064 71.0376 17.2818C71.0376 19.511 70.7152 21.2284 70.0703 22.434C69.4254 23.6396 68.5093 24.2423 67.3219 24.2423ZM82.1652 25.8119C83.4038 25.8119 84.4606 25.7465 85.3358 25.6157C86.211 25.4849 86.9352 25.283 87.5084 25.01C89.1257 24.2025 90.3566 23.0624 91.2011 21.5895C92.0455 20.1166 92.4678 18.368 92.4678 16.3435C92.4678 14.012 91.8894 12.107 90.7328 10.6284C89.5761 9.14988 88.0919 8.41061 86.2801 8.41061C85.5943 8.41061 84.8777 8.53856 84.1305 8.79446C83.3833 9.05036 82.5798 9.44558 81.7199 9.98013V0H80.2152L75.5476 1.63777V3.00257H77.82V25.7436L81.3054 25.8119H82.1652ZM82.7179 23.9523C82.4518 23.9523 82.2471 23.9495 82.1038 23.9438C81.9605 23.9381 81.8325 23.9296 81.7199 23.9182V11.4132C82.1294 11.3222 82.4953 11.254 82.8177 11.2085C83.1402 11.163 83.4345 11.1402 83.7006 11.1402C85.1644 11.1402 86.2903 11.6662 87.0785 12.7183C87.8667 13.7703 88.2608 15.2801 88.2608 17.2477C88.2608 19.5451 87.8129 21.2369 86.9173 22.3231C86.0216 23.4092 84.6218 23.9523 82.7179 23.9523ZM101.43 26.0848C103.887 26.0848 105.858 25.2887 107.342 23.6964C108.826 22.1041 109.568 20.0001 109.568 17.3842C109.568 14.6205 108.857 12.4283 107.434 10.8075C106.011 9.18684 104.092 8.37649 101.676 8.37649C99.2195 8.37649 97.249 9.19253 95.7648 10.8246C94.2806 12.4567 93.5385 14.6205 93.5385 17.316C93.5385 19.9432 94.2627 22.0615 95.7111 23.6708C97.1595 25.2802 99.0659 26.0848 101.43 26.0848ZM101.523 24.2423C100.386 24.2423 99.4984 23.6225 98.8586 22.3828C98.2189 21.1431 97.899 19.4087 97.899 17.1795C97.899 14.9844 98.2214 13.2784 98.8663 12.0615C99.5112 10.8445 100.407 10.236 101.553 10.236C102.71 10.236 103.613 10.8559 104.263 12.0956C104.913 13.3353 105.238 15.064 105.238 17.2818C105.238 19.511 104.916 21.2284 104.271 22.434C103.626 23.6396 102.71 24.2423 101.523 24.2423ZM118.208 25.8119V24.2423L116.826 24.1059L116.397 23.577V12.0444C117.011 11.8511 117.566 11.7032 118.062 11.6008C118.559 11.4985 118.996 11.4473 119.375 11.4473C120.358 11.4473 121.074 11.7515 121.525 12.36C121.975 12.9685 122.2 13.921 122.2 15.2176V23.577L121.77 24.1059L120.419 24.2423V25.8119H128.112V24.2423L126.453 24.1059L126.039 23.577V14.211C126.039 12.2548 125.686 10.799 124.979 9.84365C124.273 8.88829 123.204 8.41061 121.77 8.41061C121.126 8.41061 120.368 8.58121 119.498 8.92241C118.628 9.26361 117.594 9.80385 116.397 10.5431V8.47885H114.876L110.347 10.1166V11.5155H112.497V23.577L112.051 24.1059L110.439 24.2423V25.8119H118.208ZM132.821 26.1189C133.62 26.1189 134.454 25.937 135.324 25.573C136.194 25.2091 137.161 24.6233 138.226 23.8158L138.64 25.8119H144.245V24.2765L142.571 24.1059L142.157 23.6111V14.5693C142.157 12.2832 141.716 10.6796 140.836 9.75835C139.956 8.83711 138.436 8.37649 136.276 8.37649C134.352 8.37649 132.729 8.78024 131.409 9.58775C130.088 10.3953 129.428 11.3449 129.428 12.4368C129.428 12.8803 129.543 13.2045 129.773 13.4092C130.004 13.6139 130.37 13.7163 130.871 13.7163H133.773V10.4408C134.06 10.3725 134.326 10.3213 134.572 10.2872C134.817 10.2531 135.053 10.236 135.278 10.236C136.312 10.236 137.069 10.5261 137.55 11.1061C138.031 11.6861 138.272 12.6074 138.272 13.8698V14.9105C134.147 15.9455 131.521 16.9065 130.395 17.7936C129.269 18.6808 128.706 19.9432 128.706 21.581C128.706 22.9117 129.09 24.0007 129.858 24.848C130.626 25.6953 131.613 26.1189 132.821 26.1189ZM135.186 23.4405C134.469 23.4405 133.901 23.2045 133.482 22.7325C133.062 22.2605 132.852 21.6208 132.852 20.8133C132.852 19.7783 133.231 18.9594 133.988 18.3566C134.746 17.7538 136.158 17.1965 138.226 16.6847V22.3828C137.612 22.7354 137.051 22.9998 136.545 23.1761C136.038 23.3524 135.585 23.4405 135.186 23.4405Z" fill="#12141D"/>
<path d="M41.8676 38.3901V37.9888L41.2701 37.941L41.1282 37.8025V35.6004L42.9596 32.3426L43.497 32.2184V31.8267H41.7V32.2184L42.2374 32.3235L42.319 32.462L40.8401 35.075L39.4902 32.3856L39.5805 32.2757L40.0835 32.2184V31.8267H38.0371V32.2184L38.5745 32.314L40.3285 35.7294V37.8025L40.1867 37.941L39.5891 37.9888V38.3901H41.8676ZM44.5449 38.4761C45.141 38.4761 45.6318 38.2476 46.0173 37.7906C46.4028 37.3336 46.5955 36.7468 46.5955 36.0303C46.5955 35.3138 46.4035 34.727 46.0195 34.2701C45.6354 33.8131 45.1439 33.5846 44.5449 33.5846C43.943 33.5846 43.4522 33.8123 43.0724 34.2677C42.6926 34.7231 42.5028 35.3106 42.5028 36.0303C42.5028 36.75 42.6941 37.3376 43.0767 37.793C43.4593 38.2484 43.9487 38.4761 44.5449 38.4761ZM44.5449 38.0557C44.1809 38.0557 43.8871 37.8718 43.6635 37.504C43.44 37.1362 43.3282 36.6449 43.3282 36.0303C43.3282 35.4157 43.4393 34.9245 43.6614 34.5567C43.8835 34.1889 44.178 34.005 44.5449 34.005C44.9117 34.005 45.2076 34.1897 45.4326 34.5591C45.6576 34.9285 45.7701 35.4189 45.7701 36.0303C45.7701 36.6481 45.6583 37.1401 45.4348 37.5064C45.2112 37.8726 44.9146 38.0557 44.5449 38.0557ZM48.6623 38.4856C48.8715 38.4856 49.0929 38.4331 49.3265 38.328C49.5601 38.2229 49.8144 38.0605 50.0896 37.8407V38.3901H51.3922V38.0366L50.9795 37.9888L50.8204 37.8312V33.5846H50.4851L49.4619 33.9476V34.2533H50.0896V37.5685C49.9062 37.6672 49.7306 37.7404 49.5629 37.7882C49.3953 37.836 49.2298 37.8598 49.0664 37.8598C48.7741 37.8598 48.5591 37.7762 48.4215 37.6091C48.284 37.4419 48.2152 37.1799 48.2152 36.8233V33.5846H47.8798L46.8566 33.9476V34.2533H47.4843V36.9905C47.4843 37.4745 47.5853 37.8447 47.7874 38.1011C47.9895 38.3574 48.2811 38.4856 48.6623 38.4856ZM53.7298 38.3901V38.0366L53.115 37.9888L52.9646 37.8312V35.0367C53.1509 34.7915 53.3221 34.6108 53.4783 34.4946C53.6345 34.3783 53.7828 34.3202 53.9233 34.3202C54.015 34.3202 54.0988 34.3401 54.1748 34.3799C54.2507 34.4197 54.3174 34.4779 54.3747 34.5543H54.6541V33.7136C54.5624 33.669 54.4736 33.6363 54.3876 33.6156C54.3016 33.5949 54.2142 33.5846 54.1253 33.5846C54.0651 33.5846 54.02 33.5862 53.9899 33.5894C53.9598 33.5926 53.9319 33.5989 53.9061 33.6085C53.7341 33.7613 53.57 33.9166 53.4138 34.0742C53.2576 34.2318 53.1079 34.3919 52.9646 34.5543V33.6371H52.6292L51.606 33.9858V34.2916H52.2251V37.8312L52.0746 37.9888L51.606 38.0366V38.3901H53.7298ZM60.3439 38.3901V37.9888L59.7506 37.941L59.6044 37.8025V32.2757H60.9501L61.0747 32.4238L61.1951 33.3314H61.6809V31.8267H56.7068V33.3314H57.1883L57.313 32.4238L57.4377 32.2757H58.7833V37.8025L58.6328 37.941L58.0438 37.9888V38.3901H60.3439ZM63.2747 38.3901V38.0366L62.66 37.9888L62.5095 37.8312V35.0367C62.6958 34.7915 62.867 34.6108 63.0232 34.4946C63.1794 34.3783 63.3278 34.3202 63.4682 34.3202C63.5599 34.3202 63.6438 34.3401 63.7197 34.3799C63.7957 34.4197 63.8623 34.4779 63.9196 34.5543H64.1991V33.7136C64.1073 33.669 64.0185 33.6363 63.9325 33.6156C63.8465 33.5949 63.7591 33.5846 63.6703 33.5846C63.6101 33.5846 63.5649 33.5862 63.5348 33.5894C63.5048 33.5926 63.4768 33.5989 63.451 33.6085C63.279 33.7613 63.115 33.9166 62.9588 34.0742C62.8026 34.2318 62.6528 34.3919 62.5095 34.5543V33.6371H62.1742L61.151 33.9858V34.2916H61.7701V37.8312L61.6196 37.9888L61.151 38.0366V38.3901H63.2747ZM65.9907 38.4856C66.1999 38.4856 66.4213 38.4331 66.6549 38.328C66.8885 38.2229 67.1428 38.0605 67.418 37.8407V38.3901H68.7206V38.0366L68.3079 37.9888L68.1488 37.8312V33.5846H67.8135L66.7903 33.9476V34.2533H67.418V37.5685C67.2345 37.6672 67.059 37.7404 66.8913 37.7882C66.7237 37.836 66.5581 37.8598 66.3948 37.8598C66.1024 37.8598 65.8875 37.7762 65.7499 37.6091C65.6123 37.4419 65.5435 37.1799 65.5435 36.8233V33.5846H65.2082L64.185 33.9476V34.2533H64.8127V36.9905C64.8127 37.4745 64.9137 37.8447 65.1158 38.1011C65.3178 38.3574 65.6095 38.4856 65.9907 38.4856ZM70.1855 38.4761C70.7014 38.4761 71.1048 38.3463 71.3957 38.0867C71.6866 37.8272 71.832 37.4681 71.832 37.0096C71.832 36.8344 71.8034 36.6744 71.746 36.5295C71.6887 36.3846 71.6056 36.2644 71.4967 36.1688C71.3477 36.0319 71.1069 35.8791 70.7744 35.7103C70.6799 35.6625 70.6096 35.6259 70.5638 35.6004C70.2714 35.4444 70.0737 35.3027 69.9705 35.1753C69.8673 35.0479 69.8157 34.8934 69.8157 34.7119C69.8157 34.489 69.8802 34.3154 70.0092 34.1912C70.1382 34.067 70.3173 34.005 70.5466 34.005C70.6526 34.005 70.7587 34.0225 70.8647 34.0575C70.9708 34.0925 71.0825 34.1451 71.2001 34.2151L71.2688 34.9078H71.7031V33.7995C71.554 33.7295 71.3942 33.6761 71.2237 33.6395C71.0532 33.6029 70.869 33.5846 70.6713 33.5846C70.1754 33.5846 69.7914 33.704 69.5191 33.9429C69.2468 34.1817 69.1107 34.5193 69.1107 34.9555C69.1107 35.2421 69.1902 35.4826 69.3493 35.6768C69.5083 35.8711 69.8086 36.0781 70.2499 36.2978C70.6397 36.4953 70.8862 36.6585 70.9894 36.7874C71.0926 36.9164 71.1442 37.0796 71.1442 37.2771C71.1442 37.5127 71.0689 37.703 70.9185 37.8479C70.768 37.9928 70.5681 38.0652 70.3187 38.0652C70.1926 38.0652 70.0672 38.0461 69.9426 38.0079C69.8179 37.9697 69.6939 37.9108 69.5707 37.8312L69.4632 37H69.0419V38.2706C69.2053 38.3407 69.3837 38.3925 69.5771 38.4259C69.7706 38.4593 69.9734 38.4761 70.1855 38.4761ZM73.5892 38.4187C73.7698 38.4187 73.9575 38.4004 74.1524 38.3638C74.3473 38.3272 74.5451 38.2738 74.7457 38.2038V37.8407C74.6368 37.8694 74.5315 37.8901 74.4297 37.9028C74.328 37.9156 74.2298 37.9219 74.1352 37.9219C73.8601 37.9219 73.6695 37.8495 73.5634 37.7046C73.4574 37.5597 73.4044 37.2755 73.4044 36.8519V34.2725H74.7457V33.8139H73.4044V32.7725H73.0776L72.6993 33.6849L72.1189 33.9667V34.2725H72.6735V37.4299C72.6735 37.8057 72.7416 38.0644 72.8777 38.2062C73.0139 38.3479 73.251 38.4187 73.5892 38.4187ZM76.8339 38.4761C77.1177 38.4761 77.4 38.4267 77.6809 38.328C77.9617 38.2292 78.2326 38.0844 78.4934 37.8933V37.3535C78.2297 37.5478 77.9854 37.6911 77.7604 37.7834C77.5354 37.8758 77.3183 37.9219 77.1091 37.9219C76.6562 37.9219 76.2965 37.7428 76.03 37.3845C75.7634 37.0263 75.6302 36.5398 75.6302 35.9252V35.8154H78.4805C78.4862 35.7771 78.4898 35.7373 78.4912 35.6959C78.4927 35.6545 78.4934 35.594 78.4934 35.5144C78.4934 34.9189 78.3508 34.4484 78.0656 34.1029C77.7805 33.7574 77.3942 33.5846 76.907 33.5846C76.3109 33.5846 75.8229 33.8163 75.4432 34.2796C75.0634 34.743 74.8735 35.3409 74.8735 36.0733C74.8735 36.7867 75.0548 37.3654 75.4174 37.8097C75.7799 38.2539 76.2521 38.4761 76.8339 38.4761ZM77.7066 35.4046H75.6732C75.699 35.0065 75.8186 34.6777 76.0321 34.4181C76.2457 34.1586 76.4986 34.0288 76.7909 34.0288C77.089 34.0288 77.3161 34.1339 77.4723 34.3441C77.6286 34.5543 77.7066 34.8568 77.7066 35.2517V35.4046ZM80.5945 38.4761C80.8324 38.4761 81.0603 38.4283 81.2781 38.3327C81.4959 38.2372 81.7195 38.0875 81.9488 37.8837V38.3901H83.2514V38.0366L82.8301 37.9888L82.6796 37.8312V31.1914H82.3486L81.2738 31.5401V31.8458H81.9488V33.6849C81.8083 33.6499 81.6722 33.6228 81.5403 33.6037C81.4085 33.5846 81.2838 33.575 81.1663 33.575C80.4928 33.575 79.9461 33.8163 79.5262 34.2987C79.1063 34.7812 78.8964 35.4109 78.8964 36.188C78.8964 36.8567 79.0562 37.4052 79.3757 37.8336C79.6953 38.2619 80.1016 38.4761 80.5945 38.4761ZM80.99 37.8598C80.5888 37.8598 80.2685 37.6942 80.0292 37.3631C79.7899 37.0319 79.6702 36.5844 79.6702 36.0208C79.6702 35.4157 79.8085 34.9285 80.0851 34.5591C80.3617 34.1897 80.7249 34.005 81.1749 34.005C81.2752 34.005 81.3891 34.0185 81.5167 34.0456C81.6442 34.0726 81.7882 34.1116 81.9488 34.1626V37.5207C81.7825 37.6353 81.6199 37.7205 81.4608 37.7762C81.3017 37.832 81.1448 37.8598 80.99 37.8598ZM88.8122 38.5095C89.1045 38.5095 89.4012 38.48 89.7021 38.4211C90.003 38.3622 90.2982 38.277 90.5877 38.1656V36.6179H90.1148L89.8999 37.707L89.7623 37.8598C89.6333 37.9044 89.5051 37.9371 89.3775 37.9578C89.25 37.9785 89.1231 37.9888 88.997 37.9888C88.2776 37.9888 87.7145 37.7269 87.3075 37.203C86.9005 36.6792 86.697 35.9571 86.697 35.0367C86.697 34.1705 86.8919 33.4859 87.2817 32.9827C87.6715 32.4796 88.1988 32.228 88.8638 32.228C89.03 32.228 89.1934 32.2487 89.3539 32.2901C89.5144 32.3315 89.6792 32.3952 89.8483 32.4811L89.9643 32.6579L90.0976 33.5464H90.5877V32.0417C90.2724 31.9302 89.9694 31.8466 89.6784 31.7909C89.3875 31.7352 89.1102 31.7073 88.8466 31.7073C87.9294 31.7073 87.1907 32.0186 86.6304 32.6412C86.07 33.2637 85.7899 34.0846 85.7899 35.1036C85.7899 35.7405 85.9253 36.3273 86.1961 36.8639C86.467 37.4005 86.8389 37.8184 87.3118 38.1178C87.5181 38.2452 87.7474 38.3423 87.9996 38.4092C88.2519 38.4761 88.5227 38.5095 88.8122 38.5095ZM92.7146 38.4856C92.9239 38.4856 93.1453 38.4331 93.3789 38.328C93.6124 38.2229 93.8668 38.0605 94.142 37.8407V38.3901H95.4446V38.0366L95.0319 37.9888L94.8728 37.8312V33.5846H94.5375L93.5143 33.9476V34.2533H94.142V37.5685C93.9585 37.6672 93.783 37.7404 93.6153 37.7882C93.4476 37.836 93.2821 37.8598 93.1188 37.8598C92.8264 37.8598 92.6115 37.7762 92.4739 37.6091C92.3363 37.4419 92.2675 37.1799 92.2675 36.8233V33.5846H91.9322L90.909 33.9476V34.2533H91.5367V36.9905C91.5367 37.4745 91.6377 37.8447 91.8398 38.1011C92.0418 38.3574 92.3335 38.4856 92.7146 38.4856ZM97.7822 38.3901V38.0366L97.1674 37.9888L97.0169 37.8312V35.0367C97.2032 34.7915 97.3745 34.6108 97.5307 34.4946C97.6869 34.3783 97.8352 34.3202 97.9756 34.3202C98.0673 34.3202 98.1512 34.3401 98.2271 34.3799C98.3031 34.4197 98.3697 34.4779 98.427 34.5543H98.7065V33.7136C98.6148 33.669 98.5259 33.6363 98.4399 33.6156C98.354 33.5949 98.2665 33.5846 98.1777 33.5846C98.1175 33.5846 98.0724 33.5862 98.0423 33.5894C98.0122 33.5926 97.9842 33.5989 97.9584 33.6085C97.7865 33.7613 97.6224 33.9166 97.4662 34.0742C97.31 34.2318 97.1602 34.3919 97.0169 34.5543V33.6371H96.6816L95.6584 33.9858V34.2916H96.2775V37.8312L96.127 37.9888L95.6584 38.0366V38.3901H97.7822ZM100.851 38.3901V38.0366L100.236 37.9888L100.085 37.8312V35.0367C100.272 34.7915 100.443 34.6108 100.599 34.4946C100.755 34.3783 100.904 34.3202 101.044 34.3202C101.136 34.3202 101.22 34.3401 101.296 34.3799C101.372 34.4197 101.438 34.4779 101.495 34.5543H101.775V33.7136C101.683 33.669 101.594 33.6363 101.508 33.6156C101.422 33.5949 101.335 33.5846 101.246 33.5846C101.186 33.5846 101.141 33.5862 101.111 33.5894C101.081 33.5926 101.053 33.5989 101.027 33.6085C100.855 33.7613 100.691 33.9166 100.535 34.0742C100.378 34.2318 100.229 34.3919 100.085 34.5543V33.6371H99.75L98.7268 33.9858V34.2916H99.3459V37.8312L99.1954 37.9888L98.7268 38.0366V38.3901H100.851ZM102.887 32.591C103.031 32.591 103.152 32.5369 103.251 32.4286C103.349 32.3203 103.399 32.1882 103.399 32.0321C103.399 31.8761 103.349 31.7423 103.251 31.6309C103.152 31.5194 103.031 31.4637 102.887 31.4637C102.747 31.4637 102.627 31.5186 102.528 31.6285C102.429 31.7384 102.38 31.8729 102.38 32.0321C102.38 32.1882 102.429 32.3203 102.528 32.4286C102.627 32.5369 102.747 32.591 102.887 32.591ZM103.82 38.3901V38.0366L103.347 37.9888L103.197 37.8312V33.6371H102.853L101.843 33.9858V34.2916H102.457V37.8312L102.307 37.9888L101.843 38.0366V38.3901H103.82ZM105.99 38.4761C106.274 38.4761 106.556 38.4267 106.837 38.328C107.118 38.2292 107.389 38.0844 107.65 37.8933V37.3535C107.386 37.5478 107.142 37.6911 106.917 37.7834C106.692 37.8758 106.474 37.9219 106.265 37.9219C105.812 37.9219 105.453 37.7428 105.186 37.3845C104.92 37.0263 104.786 36.5398 104.786 35.9252V35.8154H107.637C107.642 35.7771 107.646 35.7373 107.647 35.6959C107.649 35.6545 107.65 35.594 107.65 35.5144C107.65 34.9189 107.507 34.4484 107.222 34.1029C106.937 33.7574 106.55 33.5846 106.063 33.5846C105.467 33.5846 104.979 33.8163 104.599 34.2796C104.22 34.743 104.03 35.3409 104.03 36.0733C104.03 36.7867 104.211 37.3654 104.574 37.8097C104.936 38.2539 105.408 38.4761 105.99 38.4761ZM106.863 35.4046H104.829C104.855 35.0065 104.975 34.6777 105.188 34.4181C105.402 34.1586 105.655 34.0288 105.947 34.0288C106.245 34.0288 106.472 34.1339 106.629 34.3441C106.785 34.5543 106.863 34.8568 106.863 35.2517V35.4046ZM110.12 38.3901V38.0366L109.506 37.9888L109.355 37.8312V35.0367C109.541 34.7915 109.713 34.6108 109.869 34.4946C110.025 34.3783 110.173 34.3202 110.314 34.3202C110.406 34.3202 110.489 34.3401 110.565 34.3799C110.641 34.4197 110.708 34.4779 110.765 34.5543H111.045V33.7136C110.953 33.669 110.864 33.6363 110.778 33.6156C110.692 33.5949 110.605 33.5846 110.516 33.5846C110.456 33.5846 110.411 33.5862 110.381 33.5894C110.35 33.5926 110.322 33.5989 110.297 33.6085C110.125 33.7613 109.961 33.9166 109.804 34.0742C109.648 34.2318 109.498 34.3919 109.355 34.5543V33.6371H109.02L107.997 33.9858V34.2916H108.616V37.8312L108.465 37.9888L107.997 38.0366V38.3901H110.12Z" fill="#12141D"/>
</svg>
